{"glyphs":{"0":{"ha":1332,"x_min":0,"x_max":0,"o":"m 868 0 b 1279 258 1142 0 1279 86 l 1279 749 b 868 1007 1279 922 1142 1007 l 464 1007 b 53 749 190 1007 53 922 l 53 258 b 464 0 53 86 190 0 z m 863 150 l 469 150 b 236 258 307 150 236 199 l 236 749 b 469 857 236 810 307 857 l 863 857 b 1096 749 1025 857 1096 810 l 1096 258 b 863 150 1096 199 1025 150 z "},"1":{"ha":315,"x_min":0,"x_max":0,"o":"m 250 947 b 157 1013 250 1000 218 1013 b 65 947 97 1013 65 1000 l 65 60 b 157 -6 65 7 97 -6 b 250 60 218 -6 250 7 z "},"2":{"ha":1414,"x_min":0,"x_max":0,"o":"m 943 422 b 1354 681 1217 422 1354 508 l 1354 749 b 943 1007 1354 922 1217 1007 l 732 1007 b 678 932 688 1007 678 982 b 732 857 678 882 688 857 l 947 857 b 1171 749 1110 857 1171 810 l 1171 681 b 947 572 1171 621 1110 572 l 469 572 b 58 314 196 572 58 486 l 58 68 b 124 0 58 22 78 0 l 1300 0 b 1354 75 1344 0 1354 25 b 1300 150 1354 125 1344 150 l 242 150 l 242 314 b 465 422 242 374 303 422 z "},"3":{"ha":1388,"x_min":0,"x_max":0,"o":"m 1165 282 b 956 150 1165 189 1139 150 l 110 150 b 56 75 65 150 56 125 b 110 0 56 25 65 0 l 944 0 b 1354 288 1150 0 1354 50 b 1214 500 1354 411 1299 468 b 1342 718 1313 549 1342 621 b 933 1007 1342 950 1175 1007 l 743 1007 b 689 932 699 1007 689 982 b 743 857 689 882 699 857 l 953 857 b 1164 719 1128 857 1164 817 b 946 581 1164 603 1113 581 l 111 581 b 57 506 67 581 57 556 b 111 431 57 456 67 431 l 936 431 b 1165 282 1131 431 1165 389 z "},"4":{"ha":1496,"x_min":0,"x_max":0,"o":"m 243 947 b 150 1013 243 1000 211 1013 b 58 947 90 1013 58 1000 l 58 324 b 126 267 58 283 88 267 l 1246 267 l 1246 60 b 1339 -6 1246 7 1278 -6 b 1431 60 1399 -6 1431 7 l 1431 947 b 1339 1013 1431 1000 1399 1013 b 1246 947 1278 1013 1246 1000 l 1246 417 l 243 417 z "},"5":{"ha":1418,"x_min":0,"x_max":0,"o":"m 247 664 l 247 857 l 742 857 b 796 932 786 857 796 882 b 742 1007 796 982 786 1007 l 129 1007 b 64 939 83 1007 64 985 l 64 574 b 128 514 64 536 89 514 l 974 514 b 1197 406 1136 514 1197 465 l 1197 258 b 974 150 1197 197 1136 150 l 114 150 b 60 75 69 150 60 125 b 114 0 60 25 69 0 l 969 0 b 1381 258 1243 0 1381 85 l 1381 406 b 969 664 1381 578 1243 664 z "},"6":{"ha":1438,"x_min":0,"x_max":0,"o":"m 986 0 b 1397 258 1260 0 1397 86 l 1397 408 b 986 667 1397 582 1260 667 l 236 667 l 236 749 b 469 857 236 810 307 857 l 714 857 b 768 932 758 857 768 882 b 714 1007 768 982 758 1007 l 464 1007 b 53 749 190 1007 53 922 l 53 258 b 464 0 53 86 190 0 z m 981 150 l 469 150 b 236 258 307 150 236 199 l 236 517 l 981 517 b 1214 408 1143 517 1214 469 l 1214 258 b 981 150 1214 199 1143 150 z "},"7":{"ha":1343,"x_min":0,"x_max":0,"o":"m 79 1007 b 25 932 35 1007 25 982 b 79 857 25 882 35 857 l 1081 857 l 443 119 b 410 51 414 86 410 67 b 497 -6 410 13 436 -6 b 592 32 539 -6 567 3 l 1290 844 b 1318 911 1313 869 1318 888 b 1165 1007 1318 986 1264 1007 z "},"8":{"ha":1324,"x_min":0,"x_max":0,"o":"m 881 0 b 1290 288 1086 0 1290 50 b 1150 500 1290 411 1235 468 b 1278 718 1249 549 1278 621 b 869 1007 1278 950 1111 1007 l 454 1007 b 46 718 213 1007 46 950 b 174 500 46 621 75 549 b 33 288 89 468 33 411 b 443 0 33 50 238 0 z m 222 282 b 451 431 222 389 257 431 l 872 431 b 1101 282 1067 431 1101 389 b 892 150 1101 189 1075 150 l 432 150 b 222 282 249 150 222 189 z m 889 857 b 1100 719 1064 857 1100 817 b 882 581 1100 603 1049 581 l 442 581 b 224 719 275 581 224 603 b 435 857 224 817 260 857 z "},"9":{"ha":1356,"x_min":0,"x_max":0,"o":"m 451 1007 b 40 749 178 1007 40 921 l 40 599 b 451 340 40 425 178 340 l 1119 340 l 1119 258 b 886 150 1119 197 1049 150 l 694 150 b 640 75 650 150 640 125 b 694 0 640 25 650 0 l 892 0 b 1303 258 1165 0 1303 85 l 1303 749 b 892 1007 1303 921 1165 1007 z m 886 857 b 1119 749 1049 857 1119 808 l 1119 490 l 457 490 b 224 599 294 490 224 538 l 224 749 b 457 857 224 808 294 857 z "},"\u0017":{"ha":485,"x_min":0,"x_max":0,"o":""}," ":{"ha":485,"x_min":0,"x_max":0,"o":""},"!":{"ha":350,"x_min":0,"x_max":0,"o":"m 65 81 b 175 -6 65 21 97 -6 b 285 81 253 -6 285 21 b 175 167 285 140 253 167 b 65 81 97 167 65 140 z m 268 947 b 175 1013 268 1000 236 1013 b 83 947 115 1013 83 1000 l 83 286 b 175 221 83 233 115 221 b 268 286 236 221 268 233 z "},"\"":{"ha":542,"x_min":0,"x_max":0,"o":"m 221 967 b 135 1029 221 1017 192 1029 b 50 967 79 1029 50 1017 l 50 717 b 135 654 50 667 79 654 b 221 717 192 654 221 667 z m 492 967 b 406 1029 492 1017 463 1029 b 321 967 350 1029 321 1017 l 321 717 b 406 654 321 667 350 654 b 492 717 463 654 492 667 z "},"#":{"ha":1213,"x_min":0,"x_max":0,"o":"m 88 439 b 38 368 46 439 38 414 b 88 299 38 322 46 299 l 243 299 l 160 71 b 154 47 156 60 154 53 b 256 -6 154 7 217 -6 b 328 26 292 -6 319 4 l 428 299 l 636 299 l 553 71 b 547 47 549 60 547 53 b 649 -6 547 7 610 -6 b 721 26 685 -6 713 4 l 821 299 l 1028 299 b 1078 368 1069 299 1078 322 b 1028 439 1078 414 1069 439 l 872 439 l 918 564 l 1124 564 b 1174 633 1165 564 1174 588 b 1124 704 1174 679 1165 704 l 969 704 l 1054 936 b 1060 960 1058 947 1060 954 b 958 1013 1060 1000 997 1013 b 886 981 922 1013 894 1003 l 785 704 l 576 704 l 661 936 b 667 960 665 947 667 954 b 565 1013 667 1000 604 1013 b 493 981 529 1013 501 1003 l 392 704 l 183 704 b 133 633 142 704 133 679 b 183 564 133 588 142 564 l 340 564 l 294 439 z m 525 564 l 733 564 l 688 439 l 479 439 z "},"$":{"ha":1236,"x_min":0,"x_max":0,"o":"m 713 1017 b 624 1082 713 1069 683 1082 b 536 1017 565 1082 536 1069 l 536 979 l 456 979 b 44 721 182 979 44 894 l 44 694 b 456 436 44 522 182 436 l 536 436 l 536 178 l 99 178 b 44 103 54 178 44 153 b 99 28 44 53 54 28 l 536 28 l 536 -10 b 624 -75 536 -62 565 -75 b 713 -10 683 -75 713 -62 l 713 28 l 779 28 b 1190 286 1053 28 1190 113 l 1190 328 b 779 586 1190 500 1053 586 l 713 586 z m 783 436 b 1007 328 946 436 1007 388 l 1007 286 b 783 178 1007 225 946 178 l 713 178 l 713 436 z m 228 694 l 228 721 b 451 829 228 782 289 829 l 536 829 l 536 586 l 451 586 b 228 694 289 586 228 635 z "},"%":{"ha":1751,"x_min":0,"x_max":0,"o":"m 513 431 b 750 583 669 431 750 482 l 750 853 b 513 1007 750 956 669 1007 l 290 1007 b 53 853 132 1007 53 956 l 53 583 b 290 431 53 482 132 431 z m 510 535 l 293 535 b 176 583 213 535 176 557 l 176 853 b 293 901 176 881 213 901 l 510 901 b 626 853 590 901 626 881 l 626 583 b 510 535 626 557 590 535 z m 1274 929 b 1293 969 1289 949 1293 961 b 1232 1013 1293 1000 1274 1013 b 1168 988 1203 1013 1183 1007 l 481 79 b 461 38 464 56 461 43 b 522 -6 461 8 481 -6 b 586 21 551 -6 571 1 z m 1461 0 b 1699 153 1618 0 1699 51 l 1699 422 b 1461 576 1699 525 1618 576 l 1239 576 b 1001 422 1081 576 1001 525 l 1001 153 b 1239 0 1001 51 1081 0 z m 1458 104 l 1242 104 b 1125 153 1161 104 1125 126 l 1125 422 b 1242 471 1125 450 1161 471 l 1458 471 b 1575 422 1539 471 1575 450 l 1575 153 b 1458 104 1575 126 1539 104 z "},"&":{"ha":1433,"x_min":0,"x_max":0,"o":"m 1201 18 b 1310 -6 1217 8 1249 -6 b 1406 50 1374 -6 1406 10 b 1365 108 1406 76 1392 93 l 1279 157 b 1296 242 1289 182 1296 210 l 1296 465 b 1208 531 1296 518 1267 531 b 1119 465 1149 531 1119 518 l 1119 249 l 686 496 l 911 568 b 1064 753 1014 601 1064 653 l 1064 796 b 719 1007 1064 928 969 1007 l 486 1007 b 164 797 269 1007 164 928 l 164 725 b 258 581 164 668 192 621 l 340 531 l 188 486 b 51 293 76 453 51 374 l 51 242 b 444 0 51 81 183 0 l 963 0 b 1161 42 1029 0 1101 13 z m 919 140 l 450 140 b 228 242 294 140 228 186 l 228 293 b 289 369 228 324 246 356 l 499 436 l 989 144 b 919 140 968 142 944 140 z m 340 728 l 340 772 b 504 867 340 853 407 867 l 717 867 b 888 796 840 867 888 842 l 888 754 b 832 676 888 708 869 688 l 528 586 l 407 656 b 340 728 360 683 340 700 z "},"'":{"ha":271,"x_min":0,"x_max":0,"o":"m 221 967 b 135 1029 221 1017 192 1029 b 50 967 79 1029 50 1017 l 50 717 b 135 654 50 667 79 654 b 221 717 192 654 221 667 z "},"(":{"ha":493,"x_min":0,"x_max":0,"o":"m 272 1 l 272 960 b 429 1133 272 1082 343 1106 b 475 1190 456 1142 475 1150 b 393 1253 475 1236 450 1253 b 113 960 238 1253 113 1125 l 113 1 b 393 -292 113 -164 238 -292 b 475 -229 450 -292 475 -275 b 429 -172 475 -189 456 -181 b 272 1 343 -144 272 -121 z "},")":{"ha":493,"x_min":0,"x_max":0,"o":"m 221 1 b 64 -172 221 -121 150 -144 b 18 -229 38 -181 18 -189 b 100 -292 18 -275 43 -292 b 381 1 256 -292 381 -164 l 381 960 b 100 1253 381 1125 256 1253 b 18 1190 43 1253 18 1236 b 64 1133 18 1150 38 1142 b 221 960 150 1106 221 1082 z "},"*":{"ha":814,"x_min":0,"x_max":0,"o":"m 500 588 b 476 704 500 606 497 625 l 622 624 b 656 614 636 615 644 614 b 749 724 694 614 749 682 b 697 775 749 749 731 769 l 588 794 l 697 815 b 749 867 731 821 749 842 b 656 976 749 908 694 976 b 622 967 644 976 636 975 l 476 886 b 500 1003 497 965 500 985 b 407 1054 500 1046 479 1054 b 314 1003 335 1054 314 1046 b 338 886 314 985 317 965 l 192 967 b 158 976 178 975 169 976 b 65 867 119 976 65 908 b 117 815 65 842 83 821 l 226 794 l 117 775 b 65 724 83 769 65 749 b 158 614 65 682 119 614 b 192 624 169 614 178 615 l 338 704 b 314 588 317 625 314 606 b 407 536 314 544 335 536 b 500 588 479 536 500 544 z "},"+":{"ha":846,"x_min":0,"x_max":0,"o":"m 735 422 b 793 503 782 422 793 449 b 735 582 793 556 782 582 l 503 582 l 503 815 b 422 874 503 863 476 874 b 343 815 369 874 343 863 l 343 582 l 111 582 b 53 503 64 582 53 556 b 111 422 53 449 64 422 l 343 422 l 343 192 b 422 133 343 144 369 133 b 503 192 476 133 503 144 l 503 422 z "},",":{"ha":350,"x_min":0,"x_max":0,"o":"m 282 157 b 285 189 283 167 285 179 b 196 243 285 231 260 243 b 100 188 132 243 107 231 l 64 -36 b 58 -81 61 -53 58 -69 b 149 -131 58 -118 86 -131 b 244 -75 213 -131 238 -118 z "},"-":{"ha":656,"x_min":0,"x_max":0,"o":"m 67 567 b 17 496 25 567 17 542 b 67 426 17 450 25 426 l 589 426 b 639 496 631 426 639 450 b 589 567 639 542 631 567 z "},".":{"ha":350,"x_min":0,"x_max":0,"o":"m 65 81 b 175 -6 65 21 97 -6 b 285 81 253 -6 285 21 b 175 167 285 140 253 167 b 65 81 97 167 65 140 z "},"/":{"ha":1157,"x_min":0,"x_max":0,"o":"m 1131 1082 b 1157 1139 1151 1110 1157 1126 b 1072 1197 1157 1179 1129 1197 b 986 1163 1032 1197 1007 1189 l 26 -112 b 0 -169 6 -140 0 -157 b 85 -228 0 -210 28 -228 b 171 -193 125 -228 150 -219 z "},":":{"ha":392,"x_min":0,"x_max":0,"o":"m 88 81 b 197 -6 88 21 119 -6 b 307 81 275 -6 307 21 b 197 167 307 140 275 167 b 88 81 119 167 88 140 z m 88 479 b 197 393 88 419 119 393 b 307 479 275 393 307 419 b 197 565 307 539 275 565 b 88 479 119 565 88 539 z "},";":{"ha":392,"x_min":0,"x_max":0,"o":"m 88 479 b 197 393 88 419 119 393 b 307 479 275 393 307 419 b 197 565 307 539 275 565 b 88 479 119 565 88 539 z m 276 157 b 279 189 278 167 279 179 b 190 243 279 231 254 243 b 94 188 126 243 101 231 l 58 -36 b 53 -81 56 -53 53 -69 b 143 -131 53 -118 81 -131 b 239 -75 207 -131 232 -118 z "},"<":{"ha":846,"x_min":0,"x_max":0,"o":"m 51 507 b 90 432 51 457 67 442 l 600 211 b 703 193 625 200 663 193 b 790 253 761 193 790 208 b 749 313 790 282 779 300 l 265 507 l 749 701 b 790 761 779 714 790 732 b 703 821 790 806 761 821 b 600 803 663 821 625 814 l 90 582 b 51 507 67 572 51 556 z "},"=":{"ha":846,"x_min":0,"x_max":0,"o":"m 735 228 b 793 308 782 228 793 254 b 735 388 793 361 782 388 l 111 388 b 53 308 64 388 53 361 b 111 228 53 254 64 228 z m 735 617 b 793 697 782 617 793 643 b 735 776 793 750 782 776 l 111 776 b 53 697 64 776 53 750 b 111 617 53 643 64 617 z "},">":{"ha":846,"x_min":0,"x_max":0,"o":"m 790 507 b 751 582 790 556 775 572 l 242 803 b 139 821 217 814 179 821 b 51 761 81 821 51 806 b 93 701 51 732 63 714 l 576 507 l 93 313 b 51 253 63 300 51 282 b 139 193 51 208 81 193 b 242 211 179 193 217 200 l 751 432 b 790 507 775 442 790 457 z "},"?":{"ha":932,"x_min":0,"x_max":0,"o":"m 481 400 b 892 654 754 400 892 482 l 892 749 b 481 1007 892 922 754 1007 l 426 1007 b 372 932 382 1007 372 982 b 426 857 372 882 382 857 l 485 857 b 714 749 647 857 714 810 l 714 654 b 485 546 714 594 647 546 l 292 546 b 60 363 176 546 60 500 l 60 285 b 150 221 60 233 90 221 b 240 285 210 221 240 233 l 240 344 b 290 400 240 385 244 400 z m 40 81 b 150 -6 40 21 72 -6 b 260 81 228 -6 260 21 b 150 167 260 140 228 167 b 40 81 72 167 40 140 z "},"@":{"ha":1106,"x_min":0,"x_max":0,"o":"m 761 56 b 1053 242 944 56 1053 118 l 1053 661 b 715 857 1053 786 939 857 l 390 857 b 53 661 167 857 53 793 l 53 -32 b 390 -228 53 -162 167 -228 l 990 -228 b 1032 -171 1025 -228 1032 -207 b 990 -114 1032 -133 1025 -114 l 394 -114 b 204 -32 261 -114 204 -78 l 204 661 b 394 743 204 708 261 743 l 711 743 b 908 661 844 743 908 706 l 908 554 l 656 554 b 335 368 443 554 335 493 l 335 242 b 617 56 335 118 443 56 z m 908 446 l 908 242 b 761 164 908 199 854 164 l 617 164 b 479 242 533 164 479 199 l 479 368 b 661 446 479 411 533 446 z "},"A":{"ha":1446,"x_min":0,"x_max":0,"o":"m 706 1011 b 596 963 650 1011 617 993 l 26 99 b 17 68 21 89 17 79 b 117 -7 17 25 71 -7 b 176 21 140 -7 164 1 l 331 260 l 1103 260 l 1267 21 b 1328 -7 1281 1 1303 -7 b 1429 67 1375 -7 1429 25 b 1419 99 1429 76 1426 88 l 814 963 b 706 1011 792 993 760 1011 z m 706 842 l 1000 410 l 426 410 z "},"B":{"ha":1357,"x_min":0,"x_max":0,"o":"m 1324 288 b 1183 500 1324 411 1268 468 b 1311 718 1282 549 1311 621 b 903 1007 1311 950 1144 1007 l 129 1007 b 65 943 86 1007 65 986 l 65 65 b 129 0 65 22 86 0 l 914 0 b 1324 288 1119 0 1324 50 z m 254 857 l 922 857 b 1133 719 1097 857 1133 817 b 915 581 1133 603 1082 581 l 254 581 z m 1135 282 b 925 150 1135 189 1108 150 l 250 150 l 250 429 l 906 429 b 1135 282 1100 429 1135 389 z "},"C":{"ha":1244,"x_min":0,"x_max":0,"o":"m 1146 0 b 1199 75 1190 0 1199 26 b 1146 150 1199 125 1190 150 l 469 150 b 236 258 307 150 236 199 l 236 749 b 469 857 236 810 307 857 l 1144 857 b 1199 932 1189 857 1199 882 b 1144 1007 1199 982 1189 1007 l 464 1007 b 53 749 190 1007 53 922 l 53 258 b 464 0 53 86 190 0 z "},"D":{"ha":1381,"x_min":0,"x_max":0,"o":"m 1328 749 b 917 1007 1328 922 1192 1007 l 129 1007 b 65 943 86 1007 65 986 l 65 65 b 129 0 65 22 86 0 l 917 0 b 1328 258 1192 0 1328 86 z m 250 857 l 911 857 b 1146 749 1074 857 1146 810 l 1146 258 b 911 150 1146 199 1074 150 l 250 150 z "},"E":{"ha":1239,"x_min":0,"x_max":0,"o":"m 1138 421 b 1192 496 1182 421 1192 446 b 1138 571 1192 546 1182 571 l 236 571 l 236 749 b 469 857 236 810 307 857 l 671 857 b 724 932 714 857 724 882 b 671 1007 724 982 714 1007 l 464 1007 b 53 749 190 1007 53 922 l 53 258 b 464 0 53 86 190 0 l 1133 0 b 1188 75 1178 0 1188 26 b 1133 150 1188 125 1178 150 l 469 150 b 236 258 307 150 236 199 l 236 421 z "},"F":{"ha":1215,"x_min":0,"x_max":0,"o":"m 471 1007 b 60 749 197 1007 60 922 l 60 60 b 151 -6 60 7 92 -6 b 244 60 213 -6 244 7 l 244 421 l 1144 421 b 1199 496 1189 421 1199 446 b 1144 571 1199 546 1189 571 l 244 571 l 244 749 b 476 857 244 810 314 857 l 622 857 b 675 932 667 857 675 882 b 622 1007 675 982 667 1007 z "},"G":{"ha":1347,"x_min":0,"x_max":0,"o":"m 1297 506 b 1203 571 1297 560 1264 571 b 1111 506 1142 571 1111 560 l 1111 258 b 879 150 1111 199 1042 150 l 469 150 b 236 258 307 150 236 199 l 236 749 b 469 857 236 810 307 857 l 660 857 b 714 932 704 857 714 882 b 660 1007 714 982 704 1007 l 464 1007 b 53 749 190 1007 53 922 l 53 258 b 464 0 53 86 190 0 l 885 0 b 1297 258 1153 0 1297 82 z "},"H":{"ha":1394,"x_min":0,"x_max":0,"o":"m 250 947 b 157 1013 250 1000 218 1013 b 65 947 97 1013 65 1000 l 65 60 b 157 -6 65 7 97 -6 b 250 60 218 -6 250 7 l 250 421 l 1144 421 l 1144 60 b 1238 -6 1144 7 1176 -6 b 1329 60 1297 -6 1329 7 l 1329 947 b 1238 1013 1329 1000 1297 1013 b 1144 947 1176 1013 1144 1000 l 1144 571 l 250 571 z "},"I":{"ha":315,"x_min":0,"x_max":0,"o":"m 250 947 b 157 1013 250 1000 218 1013 b 65 947 97 1013 65 1000 l 65 60 b 157 -6 65 7 97 -6 b 250 60 218 -6 250 7 z "},"J":{"ha":640,"x_min":0,"x_max":0,"o":"m 168 0 b 581 258 443 0 581 86 l 581 947 b 489 1013 581 1000 549 1013 b 396 947 428 1013 396 1000 l 396 258 b 164 150 396 199 326 150 l 69 150 b 17 76 25 150 17 125 b 69 0 17 26 25 0 z "},"K":{"ha":1221,"x_min":0,"x_max":0,"o":"m 250 947 b 157 1013 250 1000 218 1013 b 65 947 97 1013 65 1000 l 65 60 b 157 -6 65 7 97 -6 b 250 60 218 -6 250 7 l 250 415 l 1007 14 b 1119 -6 1033 0 1057 -6 b 1194 58 1160 -6 1194 15 b 1150 122 1194 85 1181 107 l 383 511 l 1125 885 b 1169 949 1156 900 1169 922 b 1094 1013 1169 992 1135 1013 b 982 993 1032 1013 1008 1007 l 250 599 z "},"L":{"ha":1226,"x_min":0,"x_max":0,"o":"m 1157 0 b 1210 76 1201 0 1210 26 b 1157 150 1210 125 1201 150 l 476 150 b 244 258 314 150 244 199 l 244 947 b 151 1013 244 1000 213 1013 b 60 947 92 1013 60 1000 l 60 258 b 471 0 60 86 197 0 z "},"M":{"ha":1838,"x_min":0,"x_max":0,"o":"m 915 185 l 276 956 b 167 1004 249 988 214 1004 b 65 910 100 1004 65 972 l 65 60 b 157 -6 65 7 97 -6 b 250 60 218 -6 250 7 l 250 718 l 806 47 b 922 -6 835 11 869 -6 b 1032 47 971 -6 1000 10 l 1586 718 l 1586 60 b 1679 -6 1586 7 1618 -6 b 1772 60 1740 -6 1772 7 l 1772 910 b 1669 1004 1772 972 1738 1004 b 1560 956 1625 1004 1589 990 z "},"N":{"ha":1385,"x_min":0,"x_max":0,"o":"m 1224 -6 b 1319 60 1288 -6 1319 6 l 1319 947 b 1226 1013 1319 1000 1288 1013 b 1135 947 1167 1013 1135 1000 l 1135 236 l 283 961 b 153 1013 240 997 214 1013 b 65 947 96 1013 65 999 l 65 60 b 157 -6 65 7 97 -6 b 250 60 218 -6 250 7 l 250 769 l 1114 42 b 1224 -6 1163 1 1174 -6 z "},"O":{"ha":1332,"x_min":0,"x_max":0,"o":"m 868 0 b 1279 258 1142 0 1279 86 l 1279 749 b 868 1007 1279 922 1142 1007 l 464 1007 b 53 749 190 1007 53 922 l 53 258 b 464 0 53 86 190 0 z m 863 150 l 469 150 b 236 258 307 150 236 199 l 236 749 b 469 857 236 810 307 857 l 863 857 b 1096 749 1025 857 1096 810 l 1096 258 b 863 150 1096 199 1025 150 z "},"P":{"ha":1367,"x_min":0,"x_max":0,"o":"m 65 943 l 65 60 b 157 -6 65 7 97 -6 b 250 60 218 -6 250 7 l 250 356 l 918 356 b 1326 581 1169 356 1326 444 l 1326 782 b 918 1007 1326 918 1169 1007 l 131 1007 b 65 943 86 1007 65 986 z m 901 857 b 1143 768 1090 857 1143 818 l 1143 594 b 901 506 1143 544 1090 506 l 250 506 l 250 857 z "},"Q":{"ha":1360,"x_min":0,"x_max":0,"o":"m 1307 263 l 1307 749 b 896 1007 1307 922 1169 1007 l 464 1007 b 53 749 190 1007 53 922 l 53 263 b 464 4 53 90 190 4 l 874 4 l 1083 -114 b 1176 -133 1110 -128 1142 -133 b 1271 -71 1243 -133 1271 -112 b 1226 -6 1271 -42 1257 -22 l 1138 42 b 1307 263 1246 82 1307 154 z m 890 150 l 469 150 b 236 258 307 150 236 199 l 236 749 b 469 857 236 810 307 857 l 890 857 b 1124 749 1053 857 1124 810 l 1124 258 b 890 150 1124 199 1071 150 z "},"R":{"ha":1368,"x_min":0,"x_max":0,"o":"m 65 943 l 65 60 b 157 -6 65 7 97 -6 b 250 60 218 -6 250 7 l 250 365 l 1063 14 b 1172 -6 1092 -3 1146 -6 b 1267 60 1233 -6 1267 10 b 1222 122 1267 90 1254 110 l 888 257 b 553 385 676 342 613 363 l 553 388 b 856 382 625 383 692 382 l 911 382 b 1319 607 1163 382 1319 471 l 1319 782 b 911 1007 1319 918 1163 1007 l 131 1007 b 65 943 86 1007 65 986 z m 894 857 b 1136 768 1083 857 1136 818 l 1136 618 b 894 529 1136 568 1083 529 l 250 529 l 250 857 z "},"S":{"ha":1232,"x_min":0,"x_max":0,"o":"m 786 436 b 1010 328 949 436 1010 388 l 1010 258 b 786 150 1010 197 949 150 l 101 150 b 47 75 57 150 47 125 b 101 0 47 25 57 0 l 782 0 b 1193 258 1056 0 1193 85 l 1193 328 b 782 586 1193 500 1056 586 l 454 586 b 231 694 292 586 231 635 l 231 749 b 454 857 231 810 292 857 l 597 857 b 651 932 642 857 651 882 b 597 1007 651 982 642 1007 l 458 1007 b 47 749 185 1007 47 922 l 47 694 b 458 436 47 522 185 436 z "},"T":{"ha":1164,"x_min":0,"x_max":0,"o":"m 1093 857 b 1147 932 1138 857 1147 882 b 1093 1007 1147 982 1138 1007 l 71 1007 b 17 932 26 1007 17 982 b 71 857 17 882 26 857 l 489 857 l 489 60 b 581 -6 489 7 521 -6 b 674 60 642 -6 674 7 l 674 857 z "},"U":{"ha":1369,"x_min":0,"x_max":0,"o":"m 899 0 b 1310 258 1172 0 1310 86 l 1310 947 b 1218 1013 1310 1000 1278 1013 b 1125 947 1157 1013 1125 1000 l 1125 258 b 893 150 1125 199 1056 150 l 476 150 b 244 258 314 150 244 199 l 244 947 b 151 1013 244 1000 213 1013 b 60 947 92 1013 60 1000 l 60 258 b 471 0 60 86 197 0 z "},"V":{"ha":1489,"x_min":0,"x_max":0,"o":"m 747 -6 b 857 43 801 -6 835 11 l 1461 907 b 1472 938 1468 915 1472 926 b 1368 1013 1472 981 1415 1013 b 1307 983 1342 1013 1319 1003 l 751 176 l 190 983 b 124 1013 176 1004 147 1013 b 17 939 75 1013 17 979 b 28 907 17 928 21 918 l 639 43 b 747 -6 661 11 693 -6 z "},"W":{"ha":1932,"x_min":0,"x_max":0,"o":"m 961 768 l 1289 54 b 1399 -6 1308 13 1349 -6 b 1513 58 1453 -6 1493 15 l 1907 915 b 1915 947 1913 926 1915 938 b 1814 1013 1915 988 1872 1013 b 1735 971 1771 1013 1747 999 l 1401 208 l 1065 943 b 965 1013 1042 996 1024 1013 b 860 943 910 1013 885 997 l 522 208 l 197 971 b 118 1013 185 999 161 1013 b 17 947 60 1013 17 988 b 25 915 17 938 19 926 l 411 58 b 525 -6 431 14 471 -6 b 632 54 578 -6 614 14 z "},"X":{"ha":1318,"x_min":0,"x_max":0,"o":"m 218 982 b 131 1007 196 1001 174 1007 b 40 950 78 1007 40 999 b 86 882 40 925 50 913 l 528 510 l 71 119 b 26 51 36 89 26 76 b 118 -6 26 0 72 -6 b 208 19 158 -6 183 -1 l 656 403 l 1114 19 b 1200 -6 1139 -1 1160 -6 b 1292 51 1253 -6 1292 1 b 1246 119 1292 76 1282 89 l 793 499 l 1242 882 b 1286 950 1276 913 1286 925 b 1197 1007 1286 1001 1240 1007 b 1104 982 1153 1007 1128 1001 l 665 606 z "},"Y":{"ha":1276,"x_min":0,"x_max":0,"o":"m 546 417 l 546 60 b 638 -6 546 7 578 -6 b 731 60 699 -6 731 7 l 731 417 l 1232 901 b 1261 957 1250 918 1261 939 b 1161 1013 1261 988 1231 1013 b 1083 986 1121 1013 1101 1004 l 639 553 l 193 986 b 115 1013 174 1004 156 1013 b 15 957 44 1013 15 986 b 44 901 15 939 26 918 z "},"Z":{"ha":1233,"x_min":0,"x_max":0,"o":"m 1115 0 b 1169 75 1160 0 1169 25 b 1115 150 1169 125 1160 150 l 278 150 l 1128 882 b 1172 950 1160 910 1172 922 b 1086 1007 1172 1001 1126 1007 b 990 982 1044 1007 1013 1001 l 54 161 b 25 96 35 144 25 128 b 178 0 25 21 79 0 z "},"[":{"ha":493,"x_min":0,"x_max":0,"o":"m 418 -292 b 464 -228 457 -292 464 -269 b 418 -165 464 -186 457 -165 l 294 -165 l 294 1126 l 418 1126 b 464 1189 457 1126 464 1147 b 418 1253 464 1231 457 1253 l 203 1253 b 135 1181 156 1253 135 1229 l 135 -219 b 203 -292 135 -268 156 -292 z "},"\\":{"ha":1157,"x_min":0,"x_max":0,"o":"m 986 -193 b 1072 -228 1007 -219 1032 -228 b 1157 -169 1129 -228 1157 -210 b 1131 -112 1157 -157 1151 -140 l 171 1163 b 85 1197 150 1189 125 1197 b 0 1139 28 1197 0 1179 b 26 1082 0 1126 6 1110 z "},"]":{"ha":493,"x_min":0,"x_max":0,"o":"m 290 -292 b 358 -219 338 -292 358 -268 l 358 1181 b 290 1253 358 1229 338 1253 l 75 1253 b 29 1189 36 1253 29 1231 b 75 1126 29 1147 36 1126 l 199 1126 l 199 -165 l 75 -165 b 29 -228 36 -165 29 -186 b 75 -292 29 -269 36 -292 z "},"^":{"ha":846,"x_min":0,"x_max":0,"o":"m 422 836 l 619 381 b 694 349 629 358 654 349 b 790 399 751 349 790 368 b 782 425 790 407 788 415 l 526 963 b 422 1013 510 997 472 1013 b 318 963 372 1013 335 997 l 63 425 b 54 399 57 415 54 407 b 150 349 54 368 93 349 b 225 381 190 349 215 358 z "},"_":{"ha":1238,"x_min":0,"x_max":0,"o":"m 1183 -256 b 1238 -181 1228 -256 1238 -231 b 1183 -106 1238 -131 1228 -106 l 54 -106 b 0 -181 10 -106 0 -131 b 54 -256 0 -231 10 -256 z "},"`":{"ha":603,"x_min":0,"x_max":0,"o":"m 376 882 b 481 864 401 869 422 864 b 550 922 518 864 550 883 b 508 982 550 947 538 967 l 226 1135 b 122 1153 201 1147 181 1153 b 53 1093 85 1153 53 1133 b 94 1035 53 1069 65 1050 z "},"a":{"ha":1261,"x_min":0,"x_max":0,"o":"m 815 0 b 1208 242 1076 0 1208 81 l 1208 543 b 815 785 1208 706 1076 785 l 679 785 b 628 714 638 785 628 761 b 679 644 628 668 638 644 l 810 644 b 1032 558 965 644 1032 611 l 1032 557 l 438 557 b 44 315 176 557 44 478 l 44 242 b 438 0 44 81 176 0 z m 810 140 l 443 140 b 221 242 288 140 221 186 l 221 321 b 443 422 221 378 288 422 l 1032 422 l 1032 242 b 810 140 1032 186 965 140 z "},"b":{"ha":1225,"x_min":0,"x_max":0,"o":"m 236 947 b 147 1013 236 1000 207 1013 b 60 947 89 1013 60 1000 l 60 242 b 453 0 60 81 192 0 l 779 0 b 1172 242 1040 0 1172 81 l 1172 543 b 779 785 1172 706 1040 785 l 236 785 z m 774 644 b 996 543 929 644 996 600 l 996 242 b 774 140 996 186 929 140 l 458 140 b 236 242 303 140 236 186 l 236 644 z "},"c":{"ha":1240,"x_min":0,"x_max":0,"o":"m 1144 0 b 1194 71 1186 0 1194 25 b 1144 140 1194 117 1186 140 l 451 140 b 229 242 296 140 229 186 l 229 543 b 451 644 229 600 296 644 l 1140 644 b 1192 714 1182 644 1192 668 b 1140 785 1192 761 1182 785 l 446 785 b 53 543 185 785 53 706 l 53 242 b 446 0 53 81 185 0 z "},"d":{"ha":1232,"x_min":0,"x_max":0,"o":"m 996 785 l 446 785 b 53 543 185 785 53 706 l 53 242 b 446 0 53 81 185 0 l 779 0 b 1172 242 1040 0 1172 81 l 1172 947 b 1085 1013 1172 1000 1143 1013 b 996 947 1025 1013 996 1000 z m 996 644 l 996 242 b 774 140 996 186 929 140 l 451 140 b 229 242 296 140 229 186 l 229 543 b 451 644 229 600 296 644 z "},"e":{"ha":1201,"x_min":0,"x_max":0,"o":"m 1076 313 b 1160 383 1147 313 1160 329 l 1160 543 b 767 785 1160 706 1044 785 l 446 785 b 53 543 185 785 53 706 l 53 242 b 446 0 53 81 185 0 l 611 0 b 661 71 653 0 661 25 b 611 140 661 117 653 140 l 451 140 b 229 242 296 140 229 186 l 229 313 z m 229 543 b 451 644 229 600 296 644 l 761 644 b 983 543 917 644 983 607 l 983 450 l 229 450 z "},"f":{"ha":611,"x_min":0,"x_max":0,"o":"m 419 1007 b 60 767 188 1007 60 926 l 60 60 b 147 -6 60 7 89 -6 b 236 60 207 -6 236 7 l 236 644 l 519 644 b 569 714 561 644 569 668 b 519 785 569 760 561 785 l 238 785 b 419 867 246 838 294 867 l 519 867 b 569 936 561 867 569 890 b 519 1007 569 982 561 1007 z "},"g":{"ha":1217,"x_min":0,"x_max":0,"o":"m 797 -228 b 1157 13 1029 -228 1157 -147 l 1157 543 b 764 785 1157 704 1025 785 l 446 785 b 53 543 185 785 53 704 l 53 261 b 446 19 53 99 185 19 l 981 19 l 981 13 b 797 -87 981 -51 935 -87 l 606 -87 b 556 -157 564 -87 556 -111 b 606 -228 556 -203 564 -228 z m 451 157 b 229 258 296 157 229 201 l 229 543 b 451 644 229 599 296 644 l 758 644 b 981 543 914 644 981 599 l 981 157 z "},"h":{"ha":1228,"x_min":0,"x_max":0,"o":"m 153 -6 b 242 60 213 -6 242 7 l 242 644 l 769 644 b 992 543 925 644 992 600 l 992 60 b 1079 -6 992 7 1021 -6 b 1168 60 1139 -6 1168 7 l 1168 543 b 775 785 1168 706 1036 785 l 242 785 l 242 947 b 153 1013 242 1000 213 1013 b 65 947 94 1013 65 1000 l 65 60 b 153 -6 65 7 94 -6 z "},"i":{"ha":307,"x_min":0,"x_max":0,"o":"m 242 715 b 153 781 242 768 213 781 b 65 715 94 781 65 768 l 65 60 b 153 -6 65 7 94 -6 b 242 60 213 -6 242 7 z m 43 926 b 153 840 43 867 75 840 b 263 926 231 840 263 867 b 153 1013 263 986 231 1013 b 43 926 75 1013 43 986 z "},"j":{"ha":389,"x_min":0,"x_max":0,"o":"m 125 926 b 235 840 125 867 157 840 b 344 926 313 840 344 867 b 235 1013 344 986 313 1013 b 125 926 157 1013 125 986 z m -36 -228 b 324 13 196 -228 324 -147 l 324 715 b 236 781 324 768 294 781 b 147 715 176 781 147 768 l 147 13 b -36 -87 147 -51 101 -87 l -150 -87 b -200 -157 -192 -87 -200 -111 b -150 -228 -200 -203 -192 -228 z "},"k":{"ha":1024,"x_min":0,"x_max":0,"o":"m 242 947 b 153 1013 242 1000 213 1013 b 65 947 94 1013 65 1000 l 65 60 b 153 -6 65 7 94 -6 b 242 60 213 -6 242 7 l 242 307 l 793 15 b 900 -6 808 7 840 -6 b 997 50 965 -6 997 10 b 957 108 997 76 983 94 l 389 396 l 947 689 b 986 739 969 700 986 714 b 918 790 986 774 956 790 b 811 775 861 790 835 788 l 242 475 z "},"l":{"ha":307,"x_min":0,"x_max":0,"o":"m 242 947 b 153 1013 242 1000 213 1013 b 65 947 94 1013 65 1000 l 65 60 b 153 -6 65 7 94 -6 b 242 60 213 -6 242 7 z "},"m":{"ha":1629,"x_min":0,"x_max":0,"o":"m 1482 -6 b 1569 60 1540 -6 1569 7 l 1569 543 b 1213 785 1569 706 1438 785 l 1075 785 b 814 715 958 785 871 761 b 554 785 758 761 669 785 l 417 785 b 60 543 192 785 60 706 l 60 60 b 147 -6 60 7 89 -6 b 236 60 207 -6 236 7 l 236 543 b 447 644 236 600 292 644 l 525 644 b 726 543 679 644 726 600 l 726 60 b 814 -6 726 10 751 -6 b 903 60 874 -6 903 7 l 903 543 b 1104 644 903 600 950 644 l 1182 644 b 1393 543 1338 644 1393 600 l 1393 60 b 1482 -6 1393 7 1422 -6 z "},"n":{"ha":1208,"x_min":0,"x_max":0,"o":"m 147 -6 b 236 60 207 -6 236 7 l 236 543 b 458 644 236 600 303 644 l 750 644 b 972 543 906 644 972 600 l 972 60 b 1060 -6 972 7 1001 -6 b 1149 60 1119 -6 1149 7 l 1149 543 b 756 785 1149 706 1017 785 l 453 785 b 60 543 192 785 60 706 l 60 60 b 147 -6 60 7 89 -6 z "},"o":{"ha":1194,"x_min":0,"x_max":0,"o":"m 53 543 l 53 242 b 446 0 53 81 185 0 l 749 0 b 1142 242 1010 0 1142 81 l 1142 543 b 749 785 1142 706 1010 785 l 446 785 b 53 543 185 785 53 706 z m 965 242 b 743 140 965 186 899 140 l 451 140 b 229 242 296 140 229 186 l 229 543 b 451 644 229 600 296 644 l 743 644 b 965 543 899 644 965 600 z "},"p":{"ha":1232,"x_min":0,"x_max":0,"o":"m 236 0 l 786 0 b 1179 242 1047 0 1179 79 l 1179 543 b 786 785 1179 704 1047 785 l 453 785 b 60 543 192 785 60 704 l 60 -168 b 147 -233 60 -221 89 -233 b 236 -168 207 -233 236 -221 z m 236 140 l 236 543 b 458 644 236 599 303 644 l 781 644 b 1003 543 936 644 1003 599 l 1003 242 b 781 140 1003 185 936 140 z "},"q":{"ha":1217,"x_min":0,"x_max":0,"o":"m 981 -168 b 1069 -233 981 -221 1010 -233 b 1157 -168 1128 -233 1157 -221 l 1157 543 b 764 785 1157 704 1025 785 l 446 785 b 53 543 185 785 53 704 l 53 242 b 446 0 53 79 185 0 l 981 0 z m 451 140 b 229 242 296 140 229 185 l 229 543 b 451 644 229 599 296 644 l 758 644 b 981 543 914 644 981 599 l 981 140 z "},"r":{"ha":608,"x_min":0,"x_max":0,"o":"m 419 785 b 60 544 188 785 60 704 l 60 60 b 147 -6 60 7 89 -6 b 236 60 207 -6 236 7 l 236 544 b 419 644 236 608 282 644 l 528 644 b 578 714 569 644 578 668 b 528 785 578 760 569 785 z "},"s":{"ha":1096,"x_min":0,"x_max":0,"o":"m 47 536 b 385 331 47 408 161 331 l 696 331 b 879 260 839 331 879 303 l 879 210 b 690 140 879 167 839 140 l 101 140 b 50 71 60 140 50 117 b 101 0 50 24 60 0 l 664 0 b 1057 213 943 0 1057 79 l 1057 257 b 690 468 1057 390 950 468 l 383 468 b 222 539 272 468 222 496 l 222 575 b 376 644 222 618 272 644 l 568 644 b 619 714 610 644 619 668 b 568 785 619 761 610 785 l 378 785 b 47 576 161 785 47 706 z "},"t":{"ha":682,"x_min":0,"x_max":0,"o":"m 67 785 b 17 714 25 785 17 760 b 67 644 17 668 25 644 l 146 644 l 146 60 b 233 -6 146 7 175 -6 b 322 60 293 -6 322 7 l 322 644 l 615 644 b 665 714 657 644 665 668 b 615 785 665 760 657 785 l 322 785 l 322 947 b 233 1013 322 1000 293 1013 b 146 947 175 1013 146 1000 l 146 785 z "},"u":{"ha":1238,"x_min":0,"x_max":0,"o":"m 1090 790 b 1001 725 1031 790 1001 778 l 1001 242 b 779 140 1001 185 935 140 l 458 140 b 236 242 303 140 236 185 l 236 725 b 149 790 236 778 207 790 b 60 725 89 790 60 778 l 60 242 b 453 0 60 79 192 0 l 785 0 b 1178 242 1046 0 1178 79 l 1178 725 b 1090 790 1178 778 1149 790 z "},"v":{"ha":1339,"x_min":0,"x_max":0,"o":"m 672 -6 b 769 32 721 -6 750 7 l 1310 708 b 1322 739 1318 719 1322 729 b 1224 790 1322 769 1275 790 b 1140 760 1193 790 1158 783 l 674 175 l 208 758 b 121 790 189 783 153 790 b 17 738 64 790 17 769 b 29 708 17 728 21 718 l 575 32 b 672 -6 594 7 624 -6 z "},"w":{"ha":1644,"x_min":0,"x_max":0,"o":"m 824 583 l 1090 42 b 1192 -6 1107 8 1146 -6 b 1294 44 1240 -6 1278 10 l 1622 714 b 1631 740 1628 724 1631 732 b 1535 790 1631 771 1592 790 b 1458 758 1494 790 1468 781 l 1193 175 l 913 736 b 826 790 893 774 882 790 b 736 736 779 790 758 778 l 444 175 l 185 758 b 110 790 175 781 150 790 b 14 740 53 790 14 771 b 22 714 14 732 17 724 l 342 44 b 446 -6 358 10 396 -6 b 546 42 496 -6 529 10 z "},"x":{"ha":1182,"x_min":0,"x_max":0,"o":"m 229 771 b 139 790 210 786 189 790 b 42 746 74 790 42 783 b 81 692 42 729 49 717 l 464 400 l 68 93 b 29 40 36 68 29 58 b 129 -6 29 -1 68 -6 b 221 14 178 -6 199 -3 l 589 304 l 964 14 b 1058 -6 985 -1 1006 -6 b 1153 39 1119 -6 1153 0 b 1113 93 1153 58 1144 68 l 721 390 l 1108 692 b 1149 744 1140 717 1149 726 b 1051 790 1149 785 1108 790 b 956 771 993 790 975 786 l 596 486 z "},"y":{"ha":1222,"x_min":0,"x_max":0,"o":"m 458 160 b 236 260 303 160 236 203 l 236 725 b 147 790 236 778 207 790 b 60 725 89 790 60 778 l 60 261 b 453 19 60 99 192 19 l 981 19 l 981 13 b 797 -87 981 -51 935 -87 l 606 -87 b 556 -157 564 -87 556 -111 b 606 -228 556 -203 564 -228 l 797 -228 b 1157 13 1029 -228 1157 -147 l 1157 725 b 1068 790 1157 778 1128 790 b 981 725 1010 790 981 778 l 981 160 z "},"z":{"ha":1201,"x_min":0,"x_max":0,"o":"m 1081 693 b 1122 746 1110 714 1122 724 b 1028 790 1122 786 1079 790 b 926 771 976 790 947 786 l 71 136 b 36 72 44 117 36 97 b 171 0 36 22 71 0 l 1092 0 b 1142 69 1133 0 1142 24 b 1092 140 1142 115 1133 140 l 322 140 z "},"{":{"ha":493,"x_min":0,"x_max":0,"o":"m 381 -292 b 464 -231 439 -292 464 -278 b 403 -165 464 -169 424 -167 b 336 -75 356 -161 336 -126 l 336 331 b 257 481 336 417 310 475 b 336 631 310 486 336 542 l 336 1036 b 403 1126 336 1088 356 1122 b 464 1192 424 1128 464 1131 b 381 1253 464 1239 439 1253 b 176 1036 236 1253 176 1168 l 176 633 b 108 547 176 565 149 557 b 78 481 86 542 78 532 b 108 414 78 429 86 419 b 176 328 149 404 176 396 l 176 -75 b 381 -292 176 -207 236 -292 z "},"|":{"ha":496,"x_min":0,"x_max":0,"o":"m 328 1194 b 247 1253 328 1242 301 1253 b 168 1194 194 1253 168 1242 l 168 -233 b 247 -292 168 -281 194 -292 b 328 -233 301 -292 328 -281 z "},"}":{"ha":493,"x_min":0,"x_max":0,"o":"m 113 -292 b 317 -75 257 -292 317 -207 l 317 328 b 385 414 317 396 344 404 b 415 481 407 419 415 429 b 385 547 415 532 407 542 b 317 633 344 557 317 565 l 317 1036 b 113 1253 317 1168 257 1253 b 29 1192 54 1253 29 1239 b 90 1126 29 1131 69 1128 b 157 1036 138 1122 157 1088 l 157 631 b 236 481 157 542 183 486 b 157 331 183 475 157 417 l 157 -75 b 90 -165 157 -126 138 -161 b 29 -231 69 -167 29 -169 b 113 -292 29 -278 54 -292 z "},"~":{"ha":846,"x_min":0,"x_max":0,"o":"m 576 381 b 793 571 686 381 793 456 b 729 632 793 622 771 632 b 657 593 682 632 672 619 b 554 515 631 549 596 515 b 268 632 475 515 400 632 b 53 442 161 632 53 557 b 115 381 53 390 75 381 b 189 419 164 381 174 394 b 290 497 214 460 247 497 b 576 381 365 497 439 381 z "}," ":{"ha":485,"x_min":0,"x_max":0,"o":""},"¡":{"ha":350,"x_min":0,"x_max":0,"o":"m 65 732 b 175 646 65 672 97 646 b 285 732 253 646 285 672 b 175 818 285 792 253 818 b 65 732 97 818 65 792 z m 268 526 b 175 592 268 579 236 592 b 83 526 115 592 83 579 l 83 -135 b 175 -200 83 -187 115 -200 b 268 -135 236 -200 268 -187 z "},"¢":{"ha":1139,"x_min":0,"x_max":0,"o":"m 700 949 b 619 1007 700 996 674 1007 b 540 949 567 1007 540 996 l 540 882 l 446 882 b 53 640 185 882 53 803 l 53 339 b 446 97 53 178 185 97 l 540 97 l 540 53 b 619 -6 540 6 567 -6 b 700 53 674 -6 700 6 l 700 97 l 1033 97 b 1083 168 1075 97 1083 122 b 1033 238 1083 214 1075 238 l 700 238 l 700 742 l 1029 742 b 1081 811 1071 742 1081 765 b 1029 882 1081 858 1071 882 l 700 882 z m 229 339 l 229 640 b 451 742 229 697 296 742 l 540 742 l 540 238 l 451 238 b 229 339 296 238 229 283 z "},"£":{"ha":1164,"x_min":0,"x_max":0,"o":"m 396 579 l 396 749 b 628 857 396 808 465 857 l 722 857 b 775 931 767 857 775 882 b 722 1007 775 981 767 1007 l 624 1007 b 211 749 349 1007 211 921 l 211 579 l 115 579 b 65 508 74 579 65 554 b 115 439 65 463 74 439 l 211 439 l 211 150 l 71 150 b 17 75 26 150 17 125 b 71 0 17 25 26 0 l 1051 0 b 1106 75 1096 0 1106 25 b 1051 150 1106 125 1096 150 l 396 150 l 396 439 l 985 439 b 1035 508 1026 439 1035 463 b 985 579 1035 554 1026 579 z "},"¤":{"ha":846,"x_min":0,"x_max":0,"o":"m 661 151 b 721 124 679 133 700 124 b 799 200 761 124 799 160 b 774 257 799 219 792 239 l 678 351 b 721 497 704 393 721 443 b 676 643 721 550 704 601 l 774 739 b 799 794 790 756 799 775 b 721 871 799 835 761 871 b 661 843 699 871 678 860 l 569 751 b 422 796 528 778 476 796 b 275 751 368 796 317 779 l 185 843 b 125 869 165 863 146 869 b 46 794 85 869 46 835 b 71 739 46 775 54 756 l 167 644 b 122 497 139 603 122 550 b 167 350 122 443 139 392 l 71 257 b 46 200 53 239 46 218 b 124 125 46 158 83 125 b 185 151 146 125 167 133 l 275 243 b 422 199 315 215 367 199 b 571 243 476 199 529 215 z m 596 497 b 422 324 596 400 519 324 b 249 497 325 324 249 400 b 422 669 249 592 325 669 b 596 497 519 669 596 592 z "},"¥":{"ha":1176,"x_min":0,"x_max":0,"o":"m 1039 367 b 1097 447 1086 367 1097 393 b 1039 526 1097 500 1086 526 l 693 526 l 1083 901 b 1113 957 1101 918 1113 939 b 1013 1013 1113 988 1082 1013 b 935 986 972 1013 953 1004 l 589 650 l 242 986 b 164 1013 222 1004 204 1013 b 64 957 93 1013 64 986 b 93 901 64 939 75 918 l 482 526 l 138 526 b 79 447 90 526 79 500 b 138 367 79 393 90 367 l 496 367 l 496 290 l 138 290 b 79 211 90 290 79 264 b 138 131 79 157 90 131 l 496 131 l 496 60 b 588 -6 496 7 528 -6 b 681 60 649 -6 681 7 l 681 131 l 1039 131 b 1097 211 1086 131 1097 157 b 1039 290 1097 264 1086 290 l 681 290 l 681 367 z "},"¦":{"ha":496,"x_min":0,"x_max":0,"o":"m 328 1139 b 247 1197 328 1186 301 1197 b 168 1139 194 1197 168 1186 l 168 628 b 247 569 168 581 194 569 b 328 628 301 569 328 581 z m 328 333 b 247 392 328 381 301 392 b 168 333 194 392 168 381 l 168 -178 b 247 -236 168 -225 194 -236 b 328 -178 301 -236 328 -225 z "},"§":{"ha":1054,"x_min":0,"x_max":0,"o":"m 665 532 b 824 429 769 532 824 497 l 824 368 b 682 276 824 307 778 276 l 418 276 b 236 376 297 276 236 311 l 236 443 b 392 532 236 500 288 532 z m 983 429 b 646 675 983 593 869 675 l 410 675 b 236 775 293 675 236 708 b 392 865 236 833 288 865 l 463 865 b 536 935 511 865 536 889 b 463 1007 536 982 511 1007 l 428 1007 b 81 775 199 1007 81 931 b 192 607 81 701 118 644 b 81 443 118 568 81 515 l 81 375 b 444 133 81 213 201 133 l 668 133 b 824 31 772 133 824 99 b 682 -86 824 -47 778 -86 l 140 -86 b 71 -160 94 -86 71 -110 b 140 -229 71 -206 94 -229 l 654 -229 b 983 31 874 -229 983 -142 b 871 200 983 104 947 160 b 983 368 947 236 983 293 z "},"¨":{"ha":644,"x_min":0,"x_max":0,"o":"m 372 968 b 482 882 372 908 404 882 b 592 968 560 882 592 908 b 482 1054 592 1028 560 1054 b 372 968 404 1054 372 1028 z m 53 968 b 163 882 53 908 85 882 b 272 968 240 882 272 908 b 163 1054 272 1028 240 1054 b 53 968 85 1054 53 1028 z "},"©":{"ha":1201,"x_min":0,"x_max":0,"o":"m 1136 739 b 818 1007 1136 907 1042 1007 l 383 1007 b 65 739 160 1007 65 907 l 65 268 b 383 0 65 100 160 0 l 818 0 b 1136 268 1042 0 1136 100 z m 153 278 l 153 729 b 385 917 153 857 231 917 l 817 917 b 1049 729 971 917 1049 857 l 1049 278 b 817 90 1049 150 971 90 l 385 90 b 153 278 231 90 153 150 z m 844 246 b 872 285 868 246 872 260 b 844 325 872 311 868 325 l 488 325 b 365 382 403 325 365 350 l 365 640 b 488 697 365 672 403 697 l 844 697 b 872 738 868 697 872 711 b 844 776 872 764 868 776 l 485 776 b 268 640 340 776 268 732 l 268 382 b 485 246 268 292 340 246 z "},"ª":{"ha":735,"x_min":0,"x_max":0,"o":"m 469 553 b 697 697 619 553 697 601 l 697 863 b 469 1007 697 958 619 1007 l 394 1007 b 356 957 361 1007 356 989 b 394 907 356 925 361 907 l 467 907 b 578 868 547 907 575 892 l 261 868 b 35 724 111 868 35 819 l 35 697 b 261 553 35 601 111 553 z m 467 653 l 264 653 b 153 697 188 653 153 672 l 153 726 b 264 771 153 751 188 771 l 578 771 l 578 697 b 467 653 578 672 543 653 z "},"«":{"ha":794,"x_min":0,"x_max":0,"o":"m 39 392 b 63 319 39 356 47 333 l 396 4 b 417 -6 403 -3 410 -6 b 449 68 435 -6 449 29 b 429 129 449 90 444 117 l 154 390 l 424 647 b 444 713 440 663 444 689 b 411 790 444 756 431 790 b 392 781 404 790 399 788 l 63 464 b 39 392 47 449 39 428 z m 346 392 b 369 319 346 356 354 333 l 703 4 b 724 -6 710 -3 717 -6 b 756 68 742 -6 756 29 b 736 129 756 90 751 117 l 461 390 l 731 647 b 751 713 747 663 751 689 b 718 790 751 756 738 790 b 699 781 711 790 706 788 l 369 464 b 346 392 354 449 346 428 z "},"¬":{"ha":846,"x_min":0,"x_max":0,"o":"m 793 528 b 742 582 793 563 779 582 l 111 582 b 53 503 64 582 53 556 b 111 422 53 449 64 422 l 633 422 l 633 53 b 713 -6 633 6 660 -6 b 793 53 767 -6 793 6 z "},"­":{"ha":656,"x_min":0,"x_max":0,"o":"m 67 567 b 17 496 25 567 17 542 b 67 426 17 450 25 426 l 589 426 b 639 496 631 426 639 450 b 589 567 639 542 631 567 z "},"®":{"ha":1201,"x_min":0,"x_max":0,"o":"m 1136 739 b 818 1007 1136 907 1042 1007 l 383 1007 b 65 739 160 1007 65 907 l 65 268 b 383 0 65 100 160 0 l 818 0 b 1136 268 1042 0 1136 100 z m 153 278 l 153 729 b 385 917 153 857 231 917 l 817 917 b 1049 729 971 917 1049 857 l 1049 278 b 817 90 1049 150 971 90 l 385 90 b 153 278 231 90 153 150 z m 278 743 l 278 278 b 326 243 278 250 296 243 b 376 278 358 243 376 250 l 376 439 l 804 253 b 868 243 818 246 836 243 b 911 276 894 243 911 254 b 888 310 911 293 906 304 l 547 447 l 724 447 b 939 565 857 447 939 494 l 939 658 b 724 776 939 729 857 776 l 313 776 b 278 743 289 776 278 765 z m 715 697 b 843 650 815 697 843 676 l 843 572 b 715 525 843 546 815 525 l 376 525 l 376 697 z "},"¯":{"ha":724,"x_min":0,"x_max":0,"o":"m 99 1039 b 53 975 60 1039 53 1017 b 99 911 53 932 60 911 l 625 911 b 671 975 663 911 671 932 b 625 1039 671 1017 663 1039 z "},"°":{"ha":642,"x_min":0,"x_max":0,"o":"m 65 1021 l 65 776 b 261 642 65 688 131 642 l 379 642 b 576 776 510 642 576 688 l 576 1021 b 379 1154 576 1110 510 1154 l 261 1154 b 65 1021 131 1154 65 1110 z m 461 796 b 368 747 461 769 433 747 l 272 747 b 179 796 207 747 179 769 l 179 1001 b 272 1049 179 1028 207 1049 l 368 1049 b 461 1001 433 1049 461 1028 z "},"±":{"ha":846,"x_min":0,"x_max":0,"o":"m 735 519 b 793 600 782 519 793 546 b 735 679 793 653 782 679 l 503 679 l 503 913 b 422 971 503 960 476 971 b 343 913 369 971 343 960 l 343 679 l 111 679 b 53 600 64 679 53 653 b 111 519 53 546 64 519 l 343 519 l 343 289 b 422 231 343 242 369 231 b 503 289 476 231 503 242 l 503 519 z m 735 0 b 793 81 782 0 793 26 b 735 160 793 133 782 160 l 111 160 b 53 81 64 160 53 133 b 111 0 53 26 64 0 z "},"²":{"ha":819,"x_min":0,"x_max":0,"o":"m 539 663 b 776 815 697 663 776 714 l 776 853 b 539 1007 776 956 697 1007 l 424 1007 b 382 954 389 1007 382 989 b 424 901 382 919 389 901 l 542 901 b 654 853 622 901 654 881 l 654 815 b 542 768 654 789 622 768 l 279 768 b 42 614 122 768 42 717 l 42 479 b 89 431 42 447 56 431 l 736 431 b 776 483 768 431 776 449 b 736 535 776 519 768 535 l 165 535 l 165 614 b 276 663 165 642 196 663 z "},"³":{"ha":804,"x_min":0,"x_max":0,"o":"m 650 597 b 546 535 650 554 638 535 l 81 535 b 40 483 49 535 40 519 b 81 431 40 449 49 431 l 540 431 b 776 600 658 431 776 460 b 714 717 776 664 753 696 b 769 836 757 744 769 786 b 535 1007 769 972 674 1007 l 429 1007 b 389 954 397 1007 389 989 b 429 901 389 919 397 901 l 544 901 b 650 838 632 901 650 882 b 542 772 650 783 625 772 l 82 772 b 42 719 47 772 42 754 b 82 667 42 685 47 667 l 536 667 b 650 597 633 667 650 647 z "},"´":{"ha":603,"x_min":0,"x_max":0,"o":"m 508 1035 b 550 1093 538 1050 550 1069 b 481 1153 550 1133 518 1153 b 376 1135 422 1153 401 1147 l 94 982 b 53 922 65 967 53 947 b 122 864 53 883 85 864 b 226 882 181 864 201 869 z "},"¶":{"ha":1032,"x_min":0,"x_max":0,"o":"m 178 781 b 306 886 178 851 219 886 l 815 886 l 815 668 l 314 668 b 178 781 222 668 178 707 z m 890 -229 b 967 -175 942 -229 967 -218 l 967 957 b 917 1007 967 990 950 1007 l 325 1007 b 32 781 128 1007 32 932 b 333 547 32 626 131 547 l 446 547 l 446 -175 b 521 -226 446 -217 471 -226 b 597 -175 572 -226 597 -217 l 597 547 l 815 547 l 815 -175 b 890 -229 815 -218 840 -229 z "},"·":{"ha":350,"x_min":0,"x_max":0,"o":"m 65 497 b 175 411 65 438 97 411 b 285 497 253 411 285 438 b 175 583 285 557 253 583 b 65 497 97 583 65 557 z "},"¸":{"ha":317,"x_min":0,"x_max":0,"o":"m 261 -106 b 264 -74 263 -96 264 -83 b 175 -19 264 -32 239 -19 b 79 -75 111 -19 86 -32 l 58 -197 b 53 -242 56 -214 53 -231 b 144 -292 53 -279 81 -292 b 239 -236 207 -292 232 -279 z "},"¹":{"ha":215,"x_min":0,"x_max":0,"o":"m 169 963 b 107 1010 169 1000 147 1010 b 46 963 67 1010 46 1000 l 46 475 b 107 428 46 438 67 428 b 169 475 147 428 169 438 z "},"º":{"ha":699,"x_min":0,"x_max":0,"o":"m 39 863 l 39 697 b 267 553 39 601 115 553 l 432 553 b 660 697 583 553 660 601 l 660 863 b 432 1007 660 958 583 1007 l 267 1007 b 39 863 115 1007 39 958 z m 540 697 b 429 653 540 672 507 653 l 269 653 b 158 697 192 653 158 672 l 158 863 b 269 907 158 888 192 907 l 429 907 b 540 863 507 907 540 888 z "},"»":{"ha":794,"x_min":0,"x_max":0,"o":"m 449 392 b 425 464 449 428 440 449 l 96 781 b 76 790 89 788 83 790 b 43 713 57 790 43 756 b 64 647 43 689 47 663 l 333 390 l 58 129 b 39 68 43 117 39 90 b 71 -6 39 29 53 -6 b 92 4 78 -6 85 -3 l 425 319 b 449 392 440 333 449 356 z m 756 392 b 732 464 756 428 747 449 l 403 781 b 383 790 396 788 390 790 b 350 713 364 790 350 756 b 371 647 350 689 354 663 l 640 390 l 365 129 b 346 68 350 117 346 90 b 378 -6 346 29 360 -6 b 399 4 385 -6 392 -3 l 732 319 b 756 392 747 333 756 356 z "},"¼":{"ha":1482,"x_min":0,"x_max":0,"o":"m 279 963 b 217 1010 279 1000 257 1010 b 156 963 176 1010 156 1000 l 156 475 b 217 428 156 438 176 428 b 279 475 257 428 279 438 z m 865 929 b 885 969 881 949 885 961 b 824 1013 885 1000 865 1013 b 760 988 794 1013 775 1007 l 72 79 b 53 38 56 56 53 43 b 114 -6 53 8 72 -6 b 178 21 143 -6 163 1 z m 776 532 b 715 579 776 569 756 579 b 653 532 675 579 653 569 l 653 189 b 701 147 653 158 675 147 l 1306 147 l 1306 44 b 1368 -3 1306 7 1328 -3 b 1429 44 1408 -3 1429 7 l 1429 532 b 1368 579 1429 569 1408 579 b 1306 532 1328 579 1306 569 l 1306 251 l 776 251 z "},"½":{"ha":1260,"x_min":0,"x_max":0,"o":"m 279 963 b 217 1010 279 1000 257 1010 b 156 963 176 1010 156 1000 l 156 475 b 217 428 156 438 176 428 b 279 475 257 428 279 438 z m 865 929 b 885 969 881 949 885 961 b 824 1013 885 1000 865 1013 b 760 988 794 1013 775 1007 l 72 79 b 53 38 56 56 53 43 b 114 -6 53 8 72 -6 b 178 21 143 -6 163 1 z m 969 232 b 1207 385 1128 232 1207 283 l 1207 422 b 969 576 1207 525 1128 576 l 854 576 b 813 524 819 576 813 558 b 854 471 813 489 819 471 l 972 471 b 1085 422 1053 471 1085 450 l 1085 385 b 972 338 1085 358 1053 338 l 710 338 b 472 183 553 338 472 286 l 472 49 b 519 0 472 17 486 0 l 1167 0 b 1207 53 1199 0 1207 18 b 1167 104 1207 89 1199 104 l 596 104 l 596 183 b 707 232 596 211 626 232 z "},"¾":{"ha":1946,"x_min":0,"x_max":0,"o":"m 663 597 b 558 535 663 554 650 535 l 93 535 b 53 483 61 535 53 519 b 93 431 53 449 61 431 l 553 431 b 789 600 671 431 789 460 b 726 717 789 664 765 696 b 782 836 769 744 782 786 b 547 1007 782 972 686 1007 l 442 1007 b 401 954 410 1007 401 989 b 442 901 401 919 410 901 l 557 901 b 663 838 644 901 663 882 b 554 772 663 783 638 772 l 94 772 b 54 719 60 772 54 754 b 94 667 54 685 60 667 l 549 667 b 663 597 646 667 663 647 z m 1329 929 b 1349 969 1344 949 1349 961 b 1288 1013 1349 1000 1329 1013 b 1224 988 1258 1013 1239 1007 l 536 79 b 517 38 519 56 517 43 b 578 -6 517 8 536 -6 b 642 21 607 -6 626 1 z m 1240 532 b 1179 579 1240 569 1219 579 b 1117 532 1139 579 1117 569 l 1117 189 b 1165 147 1117 158 1139 147 l 1769 147 l 1769 44 b 1832 -3 1769 7 1792 -3 b 1893 44 1872 -3 1893 7 l 1893 532 b 1832 579 1893 569 1872 579 b 1769 532 1792 579 1769 569 l 1769 251 l 1240 251 z "},"¿":{"ha":932,"x_min":0,"x_max":0,"o":"m 451 413 b 40 158 178 413 40 331 l 40 64 b 451 -194 40 -110 178 -194 l 506 -194 b 560 -119 550 -194 560 -169 b 506 -44 560 -69 550 -44 l 447 -44 b 218 64 285 -44 218 3 l 218 158 b 447 267 218 218 285 267 l 640 267 b 872 450 756 267 872 313 l 872 528 b 782 592 872 579 842 592 b 692 528 722 592 692 579 l 692 468 b 642 413 692 428 688 413 z m 892 732 b 782 818 892 792 860 818 b 672 732 704 818 672 792 b 782 646 672 672 704 646 b 892 732 860 646 892 672 z "},"À":{"ha":1446,"x_min":0,"x_max":0,"o":"m 706 1011 b 596 963 650 1011 617 993 l 26 99 b 17 68 21 89 17 79 b 117 -7 17 25 71 -7 b 176 21 140 -7 164 1 l 331 260 l 1103 260 l 1267 21 b 1328 -7 1281 1 1303 -7 b 1429 67 1375 -7 1429 25 b 1419 99 1429 76 1426 88 l 814 963 b 706 1011 792 993 760 1011 z m 706 842 l 1000 410 l 426 410 z m 728 1104 b 832 1086 753 1092 774 1086 b 901 1144 869 1086 901 1106 b 860 1204 901 1169 889 1189 l 578 1357 b 474 1375 553 1369 532 1375 b 404 1315 436 1375 404 1356 b 446 1257 404 1292 417 1272 z "},"Á":{"ha":1446,"x_min":0,"x_max":0,"o":"m 706 1011 b 596 963 650 1011 617 993 l 26 99 b 17 68 21 89 17 79 b 117 -7 17 25 71 -7 b 176 21 140 -7 164 1 l 331 260 l 1103 260 l 1267 21 b 1328 -7 1281 1 1303 -7 b 1429 67 1375 -7 1429 25 b 1419 99 1429 76 1426 88 l 814 963 b 706 1011 792 993 760 1011 z m 706 842 l 1000 410 l 426 410 z m 999 1257 b 1040 1315 1028 1272 1040 1292 b 971 1375 1040 1356 1008 1375 b 867 1357 913 1375 892 1369 l 585 1204 b 543 1144 556 1189 543 1169 b 613 1086 543 1106 575 1086 b 717 1104 671 1086 692 1092 z "},"Â":{"ha":1446,"x_min":0,"x_max":0,"o":"m 706 1011 b 596 963 650 1011 617 993 l 26 99 b 17 68 21 89 17 79 b 117 -7 17 25 71 -7 b 176 21 140 -7 164 1 l 331 260 l 1103 260 l 1267 21 b 1328 -7 1281 1 1303 -7 b 1429 67 1375 -7 1429 25 b 1419 99 1429 76 1426 88 l 814 963 b 706 1011 792 993 760 1011 z m 706 842 l 1000 410 l 426 410 z m 722 1221 l 810 1114 b 886 1086 826 1093 858 1086 b 975 1135 933 1086 975 1106 b 964 1161 975 1142 972 1151 l 811 1342 b 722 1375 793 1364 767 1375 b 633 1342 678 1375 651 1364 l 481 1161 b 469 1135 472 1151 469 1142 b 558 1086 469 1106 511 1086 b 635 1114 586 1086 618 1093 z "},"Ã":{"ha":1446,"x_min":0,"x_max":0,"o":"m 706 1011 b 596 963 650 1011 617 993 l 26 99 b 17 68 21 89 17 79 b 117 -7 17 25 71 -7 b 176 21 140 -7 164 1 l 331 260 l 1103 260 l 1267 21 b 1328 -7 1281 1 1303 -7 b 1429 67 1375 -7 1429 25 b 1419 99 1429 76 1426 88 l 814 963 b 706 1011 792 993 760 1011 z m 706 842 l 1000 410 l 426 410 z m 460 1261 b 414 1197 421 1261 414 1239 b 460 1133 414 1154 421 1133 l 986 1133 b 1032 1197 1024 1133 1032 1154 b 986 1261 1032 1239 1024 1261 z "},"Ä":{"ha":1446,"x_min":0,"x_max":0,"o":"m 706 1011 b 596 963 650 1011 617 993 l 26 99 b 17 68 21 89 17 79 b 117 -7 17 25 71 -7 b 176 21 140 -7 164 1 l 331 260 l 1103 260 l 1267 21 b 1328 -7 1281 1 1303 -7 b 1429 67 1375 -7 1429 25 b 1419 99 1429 76 1426 88 l 814 963 b 706 1011 792 993 760 1011 z m 706 842 l 1000 410 l 426 410 z m 772 1190 b 882 1104 772 1131 804 1104 b 992 1190 960 1104 992 1131 b 882 1276 992 1250 960 1276 b 772 1190 804 1276 772 1250 z m 453 1190 b 563 1104 453 1131 485 1104 b 672 1190 640 1104 672 1131 b 563 1276 672 1250 640 1276 b 453 1190 485 1276 453 1250 z "},"Å":{"ha":1446,"x_min":0,"x_max":0,"o":"m 706 1011 b 596 963 650 1011 617 993 l 26 99 b 17 68 21 89 17 79 b 117 -7 17 25 71 -7 b 176 21 140 -7 164 1 l 331 260 l 1103 260 l 1267 21 b 1328 -7 1281 1 1303 -7 b 1429 67 1375 -7 1429 25 b 1419 99 1429 76 1426 88 l 814 963 b 706 1011 792 993 760 1011 z m 706 842 l 1000 410 l 426 410 z m 908 1233 b 744 1375 908 1350 863 1375 l 700 1375 b 536 1233 582 1375 536 1350 l 536 1183 b 700 1042 536 1067 582 1042 l 744 1042 b 908 1183 863 1042 908 1067 z m 708 1121 b 628 1183 638 1121 628 1129 l 628 1233 b 708 1296 628 1288 638 1296 l 736 1296 b 817 1233 807 1296 817 1288 l 817 1183 b 736 1121 817 1129 807 1121 z "},"Æ":{"ha":2007,"x_min":0,"x_max":0,"o":"m 1901 0 b 1956 75 1946 0 1956 26 b 1901 150 1956 125 1946 150 l 1321 150 b 1088 258 1158 150 1088 199 l 1088 421 l 1906 421 b 1960 496 1950 421 1960 446 b 1906 571 1960 546 1950 571 l 1088 571 l 1088 857 l 1467 857 b 1519 932 1510 857 1519 882 b 1467 1007 1519 982 1510 1007 l 703 1007 b 593 958 647 1007 614 989 l 26 99 b 17 68 21 89 17 79 b 117 -7 17 25 71 -7 b 176 21 140 -7 164 1 l 331 260 l 904 260 l 904 258 b 1315 0 904 86 1042 0 z m 715 857 l 904 857 l 904 410 l 426 410 z "},"Ç":{"ha":1244,"x_min":0,"x_max":0,"o":"m 1146 0 b 1199 75 1190 0 1199 26 b 1146 150 1199 125 1190 150 l 469 150 b 236 258 307 150 236 199 l 236 749 b 469 857 236 810 307 857 l 1144 857 b 1199 932 1189 857 1199 882 b 1144 1007 1199 982 1189 1007 l 464 1007 b 53 749 190 1007 53 922 l 53 258 b 464 0 53 86 190 0 z m 725 -106 b 728 -74 726 -96 728 -83 b 639 -19 728 -32 703 -19 b 543 -75 575 -19 550 -32 l 522 -197 b 517 -242 519 -214 517 -231 b 608 -292 517 -279 544 -292 b 703 -236 671 -292 696 -279 z "},"È":{"ha":1239,"x_min":0,"x_max":0,"o":"m 1138 421 b 1192 496 1182 421 1192 446 b 1138 571 1192 546 1182 571 l 236 571 l 236 749 b 469 857 236 810 307 857 l 671 857 b 724 932 714 857 724 882 b 671 1007 724 982 714 1007 l 464 1007 b 53 749 190 1007 53 922 l 53 258 b 464 0 53 86 190 0 l 1133 0 b 1188 75 1178 0 1188 26 b 1133 150 1188 125 1178 150 l 469 150 b 236 258 307 150 236 199 l 236 421 z m 583 1104 b 688 1086 608 1092 629 1086 b 757 1144 725 1086 757 1106 b 715 1204 757 1169 744 1189 l 433 1357 b 329 1375 408 1369 388 1375 b 260 1315 292 1375 260 1356 b 301 1257 260 1292 272 1272 z "},"É":{"ha":1239,"x_min":0,"x_max":0,"o":"m 1138 421 b 1192 496 1182 421 1192 446 b 1138 571 1192 546 1182 571 l 236 571 l 236 749 b 469 857 236 810 307 857 l 671 857 b 724 932 714 857 724 882 b 671 1007 724 982 714 1007 l 464 1007 b 53 749 190 1007 53 922 l 53 258 b 464 0 53 86 190 0 l 1133 0 b 1188 75 1178 0 1188 26 b 1133 150 1188 125 1178 150 l 469 150 b 236 258 307 150 236 199 l 236 421 z m 854 1257 b 896 1315 883 1272 896 1292 b 826 1375 896 1356 864 1375 b 722 1357 768 1375 747 1369 l 440 1204 b 399 1144 411 1189 399 1169 b 468 1086 399 1106 431 1086 b 572 1104 526 1086 547 1092 z "},"Ê":{"ha":1239,"x_min":0,"x_max":0,"o":"m 1138 421 b 1192 496 1182 421 1192 446 b 1138 571 1192 546 1182 571 l 236 571 l 236 749 b 469 857 236 810 307 857 l 671 857 b 724 932 714 857 724 882 b 671 1007 724 982 714 1007 l 464 1007 b 53 749 190 1007 53 922 l 53 258 b 464 0 53 86 190 0 l 1133 0 b 1188 75 1178 0 1188 26 b 1133 150 1188 125 1178 150 l 469 150 b 236 258 307 150 236 199 l 236 421 z m 578 1221 l 665 1114 b 742 1086 682 1093 714 1086 b 831 1135 789 1086 831 1106 b 819 1161 831 1142 828 1151 l 667 1342 b 578 1375 649 1364 622 1375 b 489 1342 533 1375 507 1364 l 336 1161 b 325 1135 328 1151 325 1142 b 414 1086 325 1106 367 1086 b 490 1114 442 1086 474 1093 z "},"Ë":{"ha":1239,"x_min":0,"x_max":0,"o":"m 1138 421 b 1192 496 1182 421 1192 446 b 1138 571 1192 546 1182 571 l 236 571 l 236 749 b 469 857 236 810 307 857 l 671 857 b 724 932 714 857 724 882 b 671 1007 724 982 714 1007 l 464 1007 b 53 749 190 1007 53 922 l 53 258 b 464 0 53 86 190 0 l 1133 0 b 1188 75 1178 0 1188 26 b 1133 150 1188 125 1178 150 l 469 150 b 236 258 307 150 236 199 l 236 421 z m 628 1190 b 738 1104 628 1131 660 1104 b 847 1190 815 1104 847 1131 b 738 1276 847 1250 815 1276 b 628 1190 660 1276 628 1250 z m 308 1190 b 418 1104 308 1131 340 1104 b 528 1190 496 1104 528 1131 b 418 1276 528 1250 496 1276 b 308 1190 340 1276 308 1250 z "},"Ì":{"ha":393,"x_min":0,"x_max":0,"o":"m 328 947 b 235 1013 328 1000 296 1013 b 143 947 175 1013 143 1000 l 143 60 b 235 -6 143 7 175 -6 b 328 60 296 -6 328 7 z m 242 1104 b 346 1086 267 1092 288 1086 b 415 1144 383 1086 415 1106 b 374 1204 415 1169 403 1189 l 92 1357 b -12 1375 67 1369 46 1375 b -82 1315 -50 1375 -82 1356 b -40 1257 -82 1292 -69 1272 z "},"Í":{"ha":396,"x_min":0,"x_max":0,"o":"m 250 947 b 157 1013 250 1000 218 1013 b 65 947 97 1013 65 1000 l 65 60 b 157 -6 65 7 97 -6 b 250 60 218 -6 250 7 z m 435 1257 b 476 1315 464 1272 476 1292 b 407 1375 476 1356 444 1375 b 303 1357 349 1375 328 1369 l 21 1204 b -21 1144 -8 1189 -21 1169 b 49 1086 -21 1106 11 1086 b 153 1104 107 1086 128 1092 z "},"Î":{"ha":389,"x_min":0,"x_max":0,"o":"m 286 947 b 193 1013 286 1000 254 1013 b 101 947 133 1013 101 1000 l 101 60 b 193 -6 101 7 133 -6 b 286 60 254 -6 286 7 z m 194 1221 l 282 1114 b 358 1086 299 1093 331 1086 b 447 1135 406 1086 447 1106 b 436 1161 447 1142 444 1151 l 283 1342 b 194 1375 265 1364 239 1375 b 106 1342 150 1375 124 1364 l -47 1161 b -58 1135 -56 1151 -58 1142 b 31 1086 -58 1106 -17 1086 b 107 1114 58 1086 90 1093 z "},"Ï":{"ha":385,"x_min":0,"x_max":0,"o":"m 285 947 b 192 1013 285 1000 253 1013 b 100 947 132 1013 100 1000 l 100 60 b 192 -6 100 7 132 -6 b 285 60 253 -6 285 7 z m 243 1190 b 353 1104 243 1131 275 1104 b 463 1190 431 1104 463 1131 b 353 1276 463 1250 431 1276 b 243 1190 275 1276 243 1250 z m -76 1190 b 33 1104 -76 1131 -44 1104 b 143 1190 111 1104 143 1131 b 33 1276 143 1250 111 1276 b -76 1190 -44 1276 -76 1250 z "},"Ð":{"ha":1438,"x_min":0,"x_max":0,"o":"m 1385 749 b 974 1007 1385 922 1249 1007 l 186 1007 b 122 943 143 1007 122 986 l 122 571 l 68 571 b 14 496 24 571 14 546 b 68 421 14 446 24 421 l 122 421 l 122 65 b 186 0 122 22 143 0 l 974 0 b 1385 258 1249 0 1385 86 z m 875 421 b 929 496 919 421 929 446 b 875 571 929 546 919 571 l 307 571 l 307 857 l 968 857 b 1203 749 1131 857 1203 810 l 1203 258 b 968 150 1203 199 1131 150 l 307 150 l 307 421 z "},"Ñ":{"ha":1385,"x_min":0,"x_max":0,"o":"m 1224 -6 b 1319 60 1288 -6 1319 6 l 1319 947 b 1226 1013 1319 1000 1288 1013 b 1135 947 1167 1013 1135 1000 l 1135 236 l 283 961 b 153 1013 240 997 214 1013 b 65 947 96 1013 65 999 l 65 60 b 157 -6 65 7 97 -6 b 250 60 218 -6 250 7 l 250 769 l 1114 42 b 1224 -6 1163 1 1174 -6 z m 429 1261 b 383 1197 390 1261 383 1239 b 429 1133 383 1154 390 1133 l 956 1133 b 1001 1197 993 1133 1001 1154 b 956 1261 1001 1239 993 1261 z "},"Ò":{"ha":1332,"x_min":0,"x_max":0,"o":"m 868 0 b 1279 258 1142 0 1279 86 l 1279 749 b 868 1007 1279 922 1142 1007 l 464 1007 b 53 749 190 1007 53 922 l 53 258 b 464 0 53 86 190 0 z m 863 150 l 469 150 b 236 258 307 150 236 199 l 236 749 b 469 857 236 810 307 857 l 863 857 b 1096 749 1025 857 1096 810 l 1096 258 b 863 150 1096 199 1025 150 z m 671 1104 b 775 1086 696 1092 717 1086 b 844 1144 813 1086 844 1106 b 803 1204 844 1169 832 1189 l 521 1357 b 417 1375 496 1369 475 1375 b 347 1315 379 1375 347 1356 b 389 1257 347 1292 360 1272 z "},"Ó":{"ha":1332,"x_min":0,"x_max":0,"o":"m 868 0 b 1279 258 1142 0 1279 86 l 1279 749 b 868 1007 1279 922 1142 1007 l 464 1007 b 53 749 190 1007 53 922 l 53 258 b 464 0 53 86 190 0 z m 863 150 l 469 150 b 236 258 307 150 236 199 l 236 749 b 469 857 236 810 307 857 l 863 857 b 1096 749 1025 857 1096 810 l 1096 258 b 863 150 1096 199 1025 150 z m 942 1257 b 983 1315 971 1272 983 1292 b 914 1375 983 1356 951 1375 b 810 1357 856 1375 835 1369 l 528 1204 b 486 1144 499 1189 486 1169 b 556 1086 486 1106 518 1086 b 660 1104 614 1086 635 1092 z "},"Ô":{"ha":1332,"x_min":0,"x_max":0,"o":"m 868 0 b 1279 258 1142 0 1279 86 l 1279 749 b 868 1007 1279 922 1142 1007 l 464 1007 b 53 749 190 1007 53 922 l 53 258 b 464 0 53 86 190 0 z m 863 150 l 469 150 b 236 258 307 150 236 199 l 236 749 b 469 857 236 810 307 857 l 863 857 b 1096 749 1025 857 1096 810 l 1096 258 b 863 150 1096 199 1025 150 z m 665 1221 l 753 1114 b 829 1086 769 1093 801 1086 b 918 1135 876 1086 918 1106 b 907 1161 918 1142 915 1151 l 754 1342 b 665 1375 736 1364 710 1375 b 576 1342 621 1375 594 1364 l 424 1161 b 413 1135 415 1151 413 1142 b 501 1086 413 1106 454 1086 b 578 1114 529 1086 561 1093 z "},"Õ":{"ha":1332,"x_min":0,"x_max":0,"o":"m 868 0 b 1279 258 1142 0 1279 86 l 1279 749 b 868 1007 1279 922 1142 1007 l 464 1007 b 53 749 190 1007 53 922 l 53 258 b 464 0 53 86 190 0 z m 863 150 l 469 150 b 236 258 307 150 236 199 l 236 749 b 469 857 236 810 307 857 l 863 857 b 1096 749 1025 857 1096 810 l 1096 258 b 863 150 1096 199 1025 150 z m 403 1261 b 357 1197 364 1261 357 1239 b 403 1133 357 1154 364 1133 l 929 1133 b 975 1197 967 1133 975 1154 b 929 1261 975 1239 967 1261 z "},"Ö":{"ha":1332,"x_min":0,"x_max":0,"o":"m 868 0 b 1279 258 1142 0 1279 86 l 1279 749 b 868 1007 1279 922 1142 1007 l 464 1007 b 53 749 190 1007 53 922 l 53 258 b 464 0 53 86 190 0 z m 863 150 l 469 150 b 236 258 307 150 236 199 l 236 749 b 469 857 236 810 307 857 l 863 857 b 1096 749 1025 857 1096 810 l 1096 258 b 863 150 1096 199 1025 150 z m 715 1190 b 825 1104 715 1131 747 1104 b 935 1190 903 1104 935 1131 b 825 1276 935 1250 903 1276 b 715 1190 747 1276 715 1250 z m 396 1190 b 506 1104 396 1131 428 1104 b 615 1190 583 1104 615 1131 b 506 1276 615 1250 583 1276 b 396 1190 428 1276 396 1250 z "},"×":{"ha":846,"x_min":0,"x_max":0,"o":"m 586 225 b 624 206 600 211 614 206 b 719 299 656 206 719 264 b 699 338 719 313 710 326 l 535 501 l 700 667 b 719 704 714 681 719 694 b 625 800 719 738 660 800 b 588 779 614 800 601 793 l 422 615 l 258 779 b 221 799 244 793 231 799 b 125 703 186 799 125 736 b 146 665 125 692 132 679 l 310 501 l 146 339 b 126 303 132 325 126 313 b 221 206 126 268 186 206 b 260 226 235 206 249 215 l 422 389 z "},"Ø":{"ha":1332,"x_min":0,"x_max":0,"o":"m 1149 1019 b 1172 1069 1164 1040 1172 1057 b 1099 1121 1172 1104 1147 1121 b 1024 1090 1064 1121 1040 1113 l 958 1003 b 868 1007 929 1006 900 1007 l 464 1007 b 53 749 190 1007 53 922 l 53 258 b 226 32 53 146 111 71 l 190 -17 b 168 -68 172 -42 168 -54 b 244 -117 168 -101 193 -117 b 317 -87 275 -117 299 -111 l 385 3 b 464 0 410 0 436 0 l 868 0 b 1279 258 1142 0 1279 86 l 1279 749 b 1113 972 1279 858 1224 933 z m 236 258 l 236 749 b 469 857 236 810 307 857 l 847 857 l 328 167 b 236 258 265 186 236 219 z m 863 150 l 494 150 l 1011 838 b 1096 749 1069 818 1096 786 l 1096 258 b 863 150 1096 199 1025 150 z "},"Ù":{"ha":1369,"x_min":0,"x_max":0,"o":"m 899 0 b 1310 258 1172 0 1310 86 l 1310 947 b 1218 1013 1310 1000 1278 1013 b 1125 947 1157 1013 1125 1000 l 1125 258 b 893 150 1125 199 1056 150 l 476 150 b 244 258 314 150 244 199 l 244 947 b 151 1013 244 1000 213 1013 b 60 947 92 1013 60 1000 l 60 258 b 471 0 60 86 197 0 z m 690 1104 b 794 1086 715 1092 736 1086 b 864 1144 832 1086 864 1106 b 822 1204 864 1169 851 1189 l 540 1357 b 436 1375 515 1369 494 1375 b 367 1315 399 1375 367 1356 b 408 1257 367 1292 379 1272 z "},"Ú":{"ha":1369,"x_min":0,"x_max":0,"o":"m 899 0 b 1310 258 1172 0 1310 86 l 1310 947 b 1218 1013 1310 1000 1278 1013 b 1125 947 1157 1013 1125 1000 l 1125 258 b 893 150 1125 199 1056 150 l 476 150 b 244 258 314 150 244 199 l 244 947 b 151 1013 244 1000 213 1013 b 60 947 92 1013 60 1000 l 60 258 b 471 0 60 86 197 0 z m 961 1257 b 1003 1315 990 1272 1003 1292 b 933 1375 1003 1356 971 1375 b 829 1357 875 1375 854 1369 l 547 1204 b 506 1144 518 1189 506 1169 b 575 1086 506 1106 538 1086 b 679 1104 633 1086 654 1092 z "},"Û":{"ha":1369,"x_min":0,"x_max":0,"o":"m 899 0 b 1310 258 1172 0 1310 86 l 1310 947 b 1218 1013 1310 1000 1278 1013 b 1125 947 1157 1013 1125 1000 l 1125 258 b 893 150 1125 199 1056 150 l 476 150 b 244 258 314 150 244 199 l 244 947 b 151 1013 244 1000 213 1013 b 60 947 92 1013 60 1000 l 60 258 b 471 0 60 86 197 0 z m 685 1221 l 772 1114 b 849 1086 789 1093 821 1086 b 938 1135 896 1086 938 1106 b 926 1161 938 1142 935 1151 l 774 1342 b 685 1375 756 1364 729 1375 b 596 1342 640 1375 614 1364 l 443 1161 b 432 1135 435 1151 432 1142 b 521 1086 432 1106 474 1086 b 597 1114 549 1086 581 1093 z "},"Ü":{"ha":1369,"x_min":0,"x_max":0,"o":"m 899 0 b 1310 258 1172 0 1310 86 l 1310 947 b 1218 1013 1310 1000 1278 1013 b 1125 947 1157 1013 1125 1000 l 1125 258 b 893 150 1125 199 1056 150 l 476 150 b 244 258 314 150 244 199 l 244 947 b 151 1013 244 1000 213 1013 b 60 947 92 1013 60 1000 l 60 258 b 471 0 60 86 197 0 z m 735 1190 b 844 1104 735 1131 767 1104 b 954 1190 922 1104 954 1131 b 844 1276 954 1250 922 1276 b 735 1190 767 1276 735 1250 z m 415 1190 b 525 1104 415 1131 447 1104 b 635 1190 603 1104 635 1131 b 525 1276 635 1250 603 1276 b 415 1190 447 1276 415 1250 z "},"Ý":{"ha":1276,"x_min":0,"x_max":0,"o":"m 546 417 l 546 60 b 638 -6 546 7 578 -6 b 731 60 699 -6 731 7 l 731 417 l 1232 901 b 1261 957 1250 918 1261 939 b 1161 1013 1261 988 1231 1013 b 1083 986 1121 1013 1101 1004 l 639 553 l 193 986 b 115 1013 174 1004 156 1013 b 15 957 44 1013 15 986 b 44 901 15 939 26 918 z m 914 1257 b 956 1315 943 1272 956 1292 b 886 1375 956 1356 924 1375 b 782 1357 828 1375 807 1369 l 500 1204 b 458 1144 471 1189 458 1169 b 528 1086 458 1106 490 1086 b 632 1104 586 1086 607 1092 z "},"Þ":{"ha":1367,"x_min":0,"x_max":0,"o":"m 157 1013 b 65 947 97 1013 65 1000 l 65 60 b 157 -6 65 7 97 -6 b 250 60 218 -6 250 7 l 250 203 l 918 203 b 1326 428 1169 203 1326 292 l 1326 579 b 918 804 1326 715 1169 804 l 250 804 l 250 947 b 157 1013 250 1000 218 1013 z m 1143 442 b 901 353 1143 392 1090 353 l 250 353 l 250 654 l 901 654 b 1143 565 1090 654 1143 615 z "},"ß":{"ha":1282,"x_min":0,"x_max":0,"o":"m 458 635 b 826 424 458 501 572 424 l 871 424 b 1054 353 1007 424 1054 396 l 1054 210 b 865 140 1054 167 1007 140 l 485 140 b 433 71 443 140 433 117 b 485 0 433 24 443 0 l 839 0 b 1232 213 1118 0 1232 79 l 1232 350 b 865 561 1232 483 1118 561 l 821 561 b 633 632 683 561 633 589 l 633 772 b 349 1013 633 932 507 1013 b 60 772 189 1013 60 932 l 60 60 b 147 -6 60 7 89 -6 b 236 60 207 -6 236 7 l 236 772 b 349 872 236 835 264 872 b 458 772 431 872 458 838 z "},"à":{"ha":1261,"x_min":0,"x_max":0,"o":"m 815 0 b 1208 242 1076 0 1208 81 l 1208 543 b 815 785 1208 706 1076 785 l 679 785 b 628 714 638 785 628 761 b 679 644 628 668 638 644 l 810 644 b 1032 558 965 644 1032 611 l 1032 557 l 438 557 b 44 315 176 557 44 478 l 44 242 b 438 0 44 81 176 0 z m 810 140 l 443 140 b 221 242 288 140 221 186 l 221 321 b 443 422 221 378 288 422 l 1032 422 l 1032 242 b 810 140 1032 186 965 140 z m 761 882 b 865 864 786 869 807 864 b 935 922 903 864 935 883 b 893 982 935 947 922 967 l 611 1135 b 507 1153 586 1147 565 1153 b 438 1093 469 1153 438 1133 b 479 1035 438 1069 450 1050 z "},"á":{"ha":1261,"x_min":0,"x_max":0,"o":"m 815 0 b 1208 242 1076 0 1208 81 l 1208 543 b 815 785 1208 706 1076 785 l 679 785 b 628 714 638 785 628 761 b 679 644 628 668 638 644 l 810 644 b 1032 558 965 644 1032 611 l 1032 557 l 438 557 b 44 315 176 557 44 478 l 44 242 b 438 0 44 81 176 0 z m 810 140 l 443 140 b 221 242 288 140 221 186 l 221 321 b 443 422 221 378 288 422 l 1032 422 l 1032 242 b 810 140 1032 186 965 140 z m 1032 1035 b 1074 1093 1061 1050 1074 1069 b 1004 1153 1074 1133 1042 1153 b 900 1135 946 1153 925 1147 l 618 982 b 576 922 589 967 576 947 b 646 864 576 883 608 864 b 750 882 704 864 725 869 z "},"â":{"ha":1261,"x_min":0,"x_max":0,"o":"m 815 0 b 1208 242 1076 0 1208 81 l 1208 543 b 815 785 1208 706 1076 785 l 679 785 b 628 714 638 785 628 761 b 679 644 628 668 638 644 l 810 644 b 1032 558 965 644 1032 611 l 1032 557 l 438 557 b 44 315 176 557 44 478 l 44 242 b 438 0 44 81 176 0 z m 810 140 l 443 140 b 221 242 288 140 221 186 l 221 321 b 443 422 221 378 288 422 l 1032 422 l 1032 242 b 810 140 1032 186 965 140 z m 756 999 l 843 892 b 919 864 860 871 892 864 b 1008 913 967 864 1008 883 b 997 939 1008 919 1006 929 l 844 1119 b 756 1153 826 1142 800 1153 b 667 1119 711 1153 685 1142 l 514 939 b 503 913 506 929 503 919 b 592 864 503 883 544 864 b 668 892 619 864 651 871 z "},"ã":{"ha":1261,"x_min":0,"x_max":0,"o":"m 815 0 b 1208 242 1076 0 1208 81 l 1208 543 b 815 785 1208 706 1076 785 l 679 785 b 628 714 638 785 628 761 b 679 644 628 668 638 644 l 810 644 b 1032 558 965 644 1032 611 l 1032 557 l 438 557 b 44 315 176 557 44 478 l 44 242 b 438 0 44 81 176 0 z m 810 140 l 443 140 b 221 242 288 140 221 186 l 221 321 b 443 422 221 378 288 422 l 1032 422 l 1032 242 b 810 140 1032 186 965 140 z m 492 1039 b 446 975 453 1039 446 1017 b 492 911 446 932 453 911 l 1018 911 b 1064 975 1056 911 1064 932 b 1018 1039 1064 1017 1056 1039 z "},"ä":{"ha":1261,"x_min":0,"x_max":0,"o":"m 815 0 b 1208 242 1076 0 1208 81 l 1208 543 b 815 785 1208 706 1076 785 l 679 785 b 628 714 638 785 628 761 b 679 644 628 668 638 644 l 810 644 b 1032 558 965 644 1032 611 l 1032 557 l 438 557 b 44 315 176 557 44 478 l 44 242 b 438 0 44 81 176 0 z m 810 140 l 443 140 b 221 242 288 140 221 186 l 221 321 b 443 422 221 378 288 422 l 1032 422 l 1032 242 b 810 140 1032 186 965 140 z m 806 968 b 915 882 806 908 838 882 b 1025 968 993 882 1025 908 b 915 1054 1025 1028 993 1054 b 806 968 838 1054 806 1028 z m 486 968 b 596 882 486 908 518 882 b 706 968 674 882 706 908 b 596 1054 706 1028 674 1054 b 486 968 518 1054 486 1028 z "},"å":{"ha":1261,"x_min":0,"x_max":0,"o":"m 815 0 b 1208 242 1076 0 1208 81 l 1208 543 b 815 785 1208 706 1076 785 l 679 785 b 628 714 638 785 628 761 b 679 644 628 668 638 644 l 810 644 b 1032 558 965 644 1032 611 l 1032 557 l 438 557 b 44 315 176 557 44 478 l 44 242 b 438 0 44 81 176 0 z m 810 140 l 443 140 b 221 242 288 140 221 186 l 221 321 b 443 422 221 378 288 422 l 1032 422 l 1032 242 b 810 140 1032 186 965 140 z m 942 1011 b 778 1153 942 1128 896 1153 l 733 1153 b 569 1011 615 1153 569 1128 l 569 961 b 733 819 569 844 615 819 l 778 819 b 942 961 896 819 942 844 z m 742 899 b 661 961 671 899 661 907 l 661 1011 b 742 1074 661 1065 671 1074 l 769 1074 b 850 1011 840 1074 850 1065 l 850 961 b 769 899 850 907 840 899 z "},"æ":{"ha":2181,"x_min":0,"x_max":0,"o":"m 2056 313 b 2139 383 2126 313 2139 329 l 2139 543 b 1746 785 2139 706 2024 785 l 1425 785 b 1119 718 1288 785 1185 763 b 815 785 1054 763 953 785 l 679 785 b 628 714 638 785 628 761 b 679 644 628 668 638 644 l 810 644 b 1032 558 965 644 1032 611 l 1032 557 l 438 557 b 44 315 176 557 44 478 l 44 242 b 438 0 44 81 176 0 l 815 0 b 1119 67 953 0 1054 22 b 1425 0 1185 22 1288 0 l 1590 0 b 1640 71 1632 0 1640 25 b 1590 140 1640 117 1632 140 l 1431 140 b 1208 242 1275 140 1208 186 l 1208 313 z m 810 140 l 443 140 b 221 242 288 140 221 186 l 221 321 b 443 422 221 378 288 422 l 1032 422 l 1032 242 b 810 140 1032 186 965 140 z m 1208 543 b 1431 644 1208 600 1275 644 l 1740 644 b 1963 543 1896 644 1963 607 l 1963 450 l 1208 450 z "},"ç":{"ha":1240,"x_min":0,"x_max":0,"o":"m 1144 0 b 1194 71 1186 0 1194 25 b 1144 140 1194 117 1186 140 l 451 140 b 229 242 296 140 229 186 l 229 543 b 451 644 229 600 296 644 l 1140 644 b 1192 714 1182 644 1192 668 b 1140 785 1192 761 1182 785 l 446 785 b 53 543 185 785 53 706 l 53 242 b 446 0 53 81 185 0 z m 722 -106 b 725 -74 724 -96 725 -83 b 636 -19 725 -32 700 -19 b 540 -75 572 -19 547 -32 l 519 -197 b 514 -242 517 -214 514 -231 b 606 -292 514 -279 542 -292 b 700 -236 668 -292 693 -279 z "},"è":{"ha":1201,"x_min":0,"x_max":0,"o":"m 1076 313 b 1160 383 1147 313 1160 329 l 1160 543 b 767 785 1160 706 1044 785 l 446 785 b 53 543 185 785 53 706 l 53 242 b 446 0 53 81 185 0 l 611 0 b 661 71 653 0 661 25 b 611 140 661 117 653 140 l 451 140 b 229 242 296 140 229 186 l 229 313 z m 229 543 b 451 644 229 600 296 644 l 761 644 b 983 543 917 644 983 607 l 983 450 l 229 450 z m 606 882 b 710 864 631 869 651 864 b 779 922 747 864 779 883 b 738 982 779 947 767 967 l 456 1135 b 351 1153 431 1147 410 1153 b 282 1093 314 1153 282 1133 b 324 1035 282 1069 294 1050 z "},"é":{"ha":1201,"x_min":0,"x_max":0,"o":"m 1076 313 b 1160 383 1147 313 1160 329 l 1160 543 b 767 785 1160 706 1044 785 l 446 785 b 53 543 185 785 53 706 l 53 242 b 446 0 53 81 185 0 l 611 0 b 661 71 653 0 661 25 b 611 140 661 117 653 140 l 451 140 b 229 242 296 140 229 186 l 229 313 z m 229 543 b 451 644 229 600 296 644 l 761 644 b 983 543 917 644 983 607 l 983 450 l 229 450 z m 876 1035 b 918 1093 906 1050 918 1069 b 849 1153 918 1133 886 1153 b 744 1135 790 1153 769 1147 l 463 982 b 421 922 433 967 421 947 b 490 864 421 883 453 864 b 594 882 549 864 569 869 z "},"ê":{"ha":1201,"x_min":0,"x_max":0,"o":"m 1076 313 b 1160 383 1147 313 1160 329 l 1160 543 b 767 785 1160 706 1044 785 l 446 785 b 53 543 185 785 53 706 l 53 242 b 446 0 53 81 185 0 l 611 0 b 661 71 653 0 661 25 b 611 140 661 117 653 140 l 451 140 b 229 242 296 140 229 186 l 229 313 z m 229 543 b 451 644 229 600 296 644 l 761 644 b 983 543 917 644 983 607 l 983 450 l 229 450 z m 600 999 l 688 892 b 764 864 704 871 736 864 b 853 913 811 864 853 883 b 842 939 853 919 850 929 l 689 1119 b 600 1153 671 1142 644 1153 b 511 1119 556 1153 529 1142 l 358 939 b 347 913 350 929 347 919 b 436 864 347 883 389 864 b 513 892 464 864 496 871 z "},"ë":{"ha":1201,"x_min":0,"x_max":0,"o":"m 1076 313 b 1160 383 1147 313 1160 329 l 1160 543 b 767 785 1160 706 1044 785 l 446 785 b 53 543 185 785 53 706 l 53 242 b 446 0 53 81 185 0 l 611 0 b 661 71 653 0 661 25 b 611 140 661 117 653 140 l 451 140 b 229 242 296 140 229 186 l 229 313 z m 229 543 b 451 644 229 600 296 644 l 761 644 b 983 543 917 644 983 607 l 983 450 l 229 450 z m 650 968 b 760 882 650 908 682 882 b 869 968 838 882 869 908 b 760 1054 869 1028 838 1054 b 650 968 682 1054 650 1028 z m 331 968 b 440 882 331 908 363 882 b 550 968 518 882 550 908 b 440 1054 550 1028 518 1054 b 331 968 363 1054 331 1028 z "},"ì":{"ha":471,"x_min":0,"x_max":0,"o":"m 406 725 b 317 790 406 778 376 790 b 229 725 258 790 229 778 l 229 60 b 317 -6 229 7 258 -6 b 406 60 376 -6 406 7 z m 324 882 b 428 864 349 869 369 864 b 497 922 465 864 497 883 b 456 982 497 947 485 967 l 174 1135 b 69 1153 149 1147 128 1153 b 0 1093 32 1153 0 1133 b 42 1035 0 1069 13 1050 z "},"í":{"ha":472,"x_min":0,"x_max":0,"o":"m 242 725 b 153 790 242 778 213 790 b 65 725 94 790 65 778 l 65 60 b 153 -6 65 7 94 -6 b 242 60 213 -6 242 7 z m 431 1035 b 472 1093 460 1050 472 1069 b 403 1153 472 1133 440 1153 b 299 1135 344 1153 324 1147 l 17 982 b -25 922 -12 967 -25 947 b 44 864 -25 883 7 864 b 149 882 103 864 124 869 z "},"î":{"ha":506,"x_min":0,"x_max":0,"o":"m 340 725 b 251 790 340 778 311 790 b 164 725 193 790 164 778 l 164 60 b 251 -6 164 7 193 -6 b 340 60 311 -6 340 7 z m 253 999 l 340 892 b 417 864 357 871 389 864 b 506 913 464 864 506 883 b 494 939 506 919 503 929 l 342 1119 b 253 1153 324 1142 297 1153 b 164 1119 208 1153 182 1142 l 11 939 b 0 913 3 929 0 919 b 89 864 0 883 42 864 b 165 892 117 864 149 871 z "},"ï":{"ha":539,"x_min":0,"x_max":0,"o":"m 357 725 b 268 790 357 778 328 790 b 181 725 210 790 181 778 l 181 60 b 268 -6 181 7 210 -6 b 357 60 328 -6 357 7 z m 319 968 b 429 882 319 908 351 882 b 539 968 507 882 539 908 b 429 1054 539 1028 507 1054 b 319 968 351 1054 319 1028 z m 0 968 b 110 882 0 908 32 882 b 219 968 188 882 219 908 b 110 1054 219 1028 188 1054 b 0 968 32 1054 0 1028 z "},"ð":{"ha":1232,"x_min":0,"x_max":0,"o":"m 704 1007 b 654 936 663 1007 654 982 b 704 867 654 890 663 867 l 958 867 b 996 822 983 867 996 851 l 996 660 l 446 660 b 53 418 185 660 53 581 l 53 242 b 446 0 53 81 185 0 l 779 0 b 1172 242 1040 0 1172 81 l 1172 822 b 958 1007 1172 938 1106 1007 z m 996 519 l 996 242 b 774 140 996 186 929 140 l 451 140 b 229 242 296 140 229 186 l 229 418 b 451 519 229 475 296 519 z "},"ñ":{"ha":1208,"x_min":0,"x_max":0,"o":"m 147 -6 b 236 60 207 -6 236 7 l 236 543 b 458 644 236 600 303 644 l 750 644 b 972 543 906 644 972 600 l 972 60 b 1060 -6 972 7 1001 -6 b 1149 60 1119 -6 1149 7 l 1149 543 b 756 785 1149 706 1017 785 l 453 785 b 60 543 192 785 60 706 l 60 60 b 147 -6 60 7 89 -6 z m 340 1039 b 294 975 301 1039 294 1017 b 340 911 294 932 301 911 l 867 911 b 913 975 904 911 913 932 b 867 1039 913 1017 904 1039 z "},"ò":{"ha":1194,"x_min":0,"x_max":0,"o":"m 53 543 l 53 242 b 446 0 53 81 185 0 l 749 0 b 1142 242 1010 0 1142 81 l 1142 543 b 749 785 1142 706 1010 785 l 446 785 b 53 543 185 785 53 706 z m 965 242 b 743 140 965 186 899 140 l 451 140 b 229 242 296 140 229 186 l 229 543 b 451 644 229 600 296 644 l 743 644 b 965 543 899 644 965 600 z m 603 882 b 707 864 628 869 649 864 b 776 922 744 864 776 883 b 735 982 776 947 764 967 l 453 1135 b 349 1153 428 1147 407 1153 b 279 1093 311 1153 279 1133 b 321 1035 279 1069 292 1050 z "},"ó":{"ha":1194,"x_min":0,"x_max":0,"o":"m 53 543 l 53 242 b 446 0 53 81 185 0 l 749 0 b 1142 242 1010 0 1142 81 l 1142 543 b 749 785 1142 706 1010 785 l 446 785 b 53 543 185 785 53 706 z m 965 242 b 743 140 965 186 899 140 l 451 140 b 229 242 296 140 229 186 l 229 543 b 451 644 229 600 296 644 l 743 644 b 965 543 899 644 965 600 z m 874 1035 b 915 1093 903 1050 915 1069 b 846 1153 915 1133 883 1153 b 742 1135 788 1153 767 1147 l 460 982 b 418 922 431 967 418 947 b 488 864 418 883 450 864 b 592 882 546 864 567 869 z "},"ô":{"ha":1194,"x_min":0,"x_max":0,"o":"m 53 543 l 53 242 b 446 0 53 81 185 0 l 749 0 b 1142 242 1010 0 1142 81 l 1142 543 b 749 785 1142 706 1010 785 l 446 785 b 53 543 185 785 53 706 z m 965 242 b 743 140 965 186 899 140 l 451 140 b 229 242 296 140 229 186 l 229 543 b 451 644 229 600 296 644 l 743 644 b 965 543 899 644 965 600 z m 597 999 l 685 892 b 761 864 701 871 733 864 b 850 913 808 864 850 883 b 839 939 850 919 847 929 l 686 1119 b 597 1153 668 1142 642 1153 b 508 1119 553 1153 526 1142 l 356 939 b 344 913 347 929 344 919 b 433 864 344 883 386 864 b 510 892 461 864 493 871 z "},"õ":{"ha":1194,"x_min":0,"x_max":0,"o":"m 53 543 l 53 242 b 446 0 53 81 185 0 l 749 0 b 1142 242 1010 0 1142 81 l 1142 543 b 749 785 1142 706 1010 785 l 446 785 b 53 543 185 785 53 706 z m 965 242 b 743 140 965 186 899 140 l 451 140 b 229 242 296 140 229 186 l 229 543 b 451 644 229 600 296 644 l 743 644 b 965 543 899 644 965 600 z m 333 1039 b 288 975 294 1039 288 1017 b 333 911 288 932 294 911 l 860 911 b 906 975 897 911 906 932 b 860 1039 906 1017 897 1039 z "},"ö":{"ha":1194,"x_min":0,"x_max":0,"o":"m 53 543 l 53 242 b 446 0 53 81 185 0 l 749 0 b 1142 242 1010 0 1142 81 l 1142 543 b 749 785 1142 706 1010 785 l 446 785 b 53 543 185 785 53 706 z m 965 242 b 743 140 965 186 899 140 l 451 140 b 229 242 296 140 229 186 l 229 543 b 451 644 229 600 296 644 l 743 644 b 965 543 899 644 965 600 z m 647 968 b 757 882 647 908 679 882 b 867 968 835 882 867 908 b 757 1054 867 1028 835 1054 b 647 968 679 1054 647 1028 z m 328 968 b 438 882 328 908 360 882 b 547 968 515 882 547 908 b 438 1054 547 1028 515 1054 b 328 968 360 1054 328 1028 z "},"÷":{"ha":846,"x_min":0,"x_max":0,"o":"m 735 422 b 793 503 782 422 793 449 b 735 582 793 556 782 582 l 111 582 b 53 503 64 582 53 556 b 111 422 53 449 64 422 z m 313 779 b 422 693 313 719 344 693 b 532 779 500 693 532 719 b 422 865 532 839 500 865 b 313 779 344 865 313 839 z m 313 225 b 422 139 313 165 344 139 b 532 225 500 139 532 165 b 422 311 532 285 500 311 b 313 225 344 311 313 285 z "},"ø":{"ha":1194,"x_min":0,"x_max":0,"o":"m 1053 815 b 1075 857 1069 835 1075 844 b 1006 896 1075 882 1051 896 b 935 871 972 896 951 889 l 853 779 b 749 785 821 783 786 785 l 446 785 b 53 543 185 785 53 706 l 53 242 b 190 40 53 146 99 79 l 144 -11 b 124 -51 128 -31 124 -40 b 196 -90 124 -78 146 -90 b 264 -67 224 -90 247 -86 l 329 6 b 446 0 364 1 403 0 l 749 0 b 1142 242 1010 0 1142 81 l 1142 543 b 993 749 1142 642 1092 711 z m 965 242 b 743 140 965 186 899 140 l 449 140 l 883 626 b 965 543 940 608 965 578 z m 229 242 l 229 543 b 451 644 229 600 296 644 l 732 644 l 300 161 b 229 242 251 181 229 210 z "},"ù":{"ha":1238,"x_min":0,"x_max":0,"o":"m 1090 790 b 1001 725 1031 790 1001 778 l 1001 242 b 779 140 1001 185 935 140 l 458 140 b 236 242 303 140 236 185 l 236 725 b 149 790 236 778 207 790 b 60 725 89 790 60 778 l 60 242 b 453 0 60 79 192 0 l 785 0 b 1178 242 1046 0 1178 79 l 1178 725 b 1090 790 1178 778 1149 790 z m 624 882 b 728 864 649 869 669 864 b 797 922 765 864 797 883 b 756 982 797 947 785 967 l 474 1135 b 369 1153 449 1147 428 1153 b 300 1093 332 1153 300 1133 b 342 1035 300 1069 313 1050 z "},"ú":{"ha":1238,"x_min":0,"x_max":0,"o":"m 1090 790 b 1001 725 1031 790 1001 778 l 1001 242 b 779 140 1001 185 935 140 l 458 140 b 236 242 303 140 236 185 l 236 725 b 149 790 236 778 207 790 b 60 725 89 790 60 778 l 60 242 b 453 0 60 79 192 0 l 785 0 b 1178 242 1046 0 1178 79 l 1178 725 b 1090 790 1178 778 1149 790 z m 894 1035 b 936 1093 924 1050 936 1069 b 867 1153 936 1133 904 1153 b 763 1135 808 1153 788 1147 l 481 982 b 439 922 451 967 439 947 b 508 864 439 883 471 864 b 613 882 567 864 588 869 z "},"û":{"ha":1238,"x_min":0,"x_max":0,"o":"m 1090 790 b 1001 725 1031 790 1001 778 l 1001 242 b 779 140 1001 185 935 140 l 458 140 b 236 242 303 140 236 185 l 236 725 b 149 790 236 778 207 790 b 60 725 89 790 60 778 l 60 242 b 453 0 60 79 192 0 l 785 0 b 1178 242 1046 0 1178 79 l 1178 725 b 1090 790 1178 778 1149 790 z m 618 999 l 706 892 b 782 864 722 871 754 864 b 871 913 829 864 871 883 b 860 939 871 919 868 929 l 707 1119 b 618 1153 689 1142 663 1153 b 529 1119 574 1153 547 1142 l 376 939 b 365 913 368 929 365 919 b 454 864 365 883 407 864 b 531 892 482 864 514 871 z "},"ü":{"ha":1238,"x_min":0,"x_max":0,"o":"m 1090 790 b 1001 725 1031 790 1001 778 l 1001 242 b 779 140 1001 185 935 140 l 458 140 b 236 242 303 140 236 185 l 236 725 b 149 790 236 778 207 790 b 60 725 89 790 60 778 l 60 242 b 453 0 60 79 192 0 l 785 0 b 1178 242 1046 0 1178 79 l 1178 725 b 1090 790 1178 778 1149 790 z m 668 968 b 778 882 668 908 700 882 b 888 968 856 882 888 908 b 778 1054 888 1028 856 1054 b 668 968 700 1054 668 1028 z m 349 968 b 458 882 349 908 381 882 b 568 968 536 882 568 908 b 458 1054 568 1028 536 1054 b 349 968 381 1054 349 1028 z "},"ý":{"ha":1222,"x_min":0,"x_max":0,"o":"m 458 160 b 236 260 303 160 236 203 l 236 725 b 147 790 236 778 207 790 b 60 725 89 790 60 778 l 60 261 b 453 19 60 99 192 19 l 981 19 l 981 13 b 797 -87 981 -51 935 -87 l 606 -87 b 556 -157 564 -87 556 -111 b 606 -228 556 -203 564 -228 l 797 -228 b 1157 13 1029 -228 1157 -147 l 1157 725 b 1068 790 1157 778 1128 790 b 981 725 1010 790 981 778 l 981 160 z m 888 1035 b 929 1093 917 1050 929 1069 b 860 1153 929 1133 897 1153 b 756 1135 801 1153 781 1147 l 474 982 b 432 922 444 967 432 947 b 501 864 432 883 464 864 b 606 882 560 864 581 869 z "},"þ":{"ha":1225,"x_min":0,"x_max":0,"o":"m 779 0 b 1172 242 1040 0 1172 81 l 1172 543 b 779 785 1172 706 1040 785 l 242 785 l 242 947 b 153 1013 242 1000 213 1013 b 65 947 94 1013 65 1000 l 65 -174 b 153 -239 65 -226 94 -239 b 242 -174 213 -239 242 -226 l 242 0 z m 774 644 b 996 543 929 644 996 600 l 996 242 b 774 140 996 186 929 140 l 242 140 l 242 644 z "},"ÿ":{"ha":1222,"x_min":0,"x_max":0,"o":"m 458 160 b 236 260 303 160 236 203 l 236 725 b 147 790 236 778 207 790 b 60 725 89 790 60 778 l 60 261 b 453 19 60 99 192 19 l 981 19 l 981 13 b 797 -87 981 -51 935 -87 l 606 -87 b 556 -157 564 -87 556 -111 b 606 -228 556 -203 564 -228 l 797 -228 b 1157 13 1029 -228 1157 -147 l 1157 725 b 1068 790 1157 778 1128 790 b 981 725 1010 790 981 778 l 981 160 z m 661 968 b 771 882 661 908 693 882 b 881 968 849 882 881 908 b 771 1054 881 1028 849 1054 b 661 968 693 1054 661 1028 z m 342 968 b 451 882 342 908 374 882 b 561 968 529 882 561 908 b 451 1054 561 1028 529 1054 b 342 968 374 1054 342 1028 z "},"Ā":{"ha":1446,"x_min":0,"x_max":0,"o":"m 706 1011 b 596 963 650 1011 617 993 l 26 99 b 17 68 21 89 17 79 b 117 -7 17 25 71 -7 b 176 21 140 -7 164 1 l 331 260 l 1103 260 l 1267 21 b 1328 -7 1281 1 1303 -7 b 1429 67 1375 -7 1429 25 b 1419 99 1429 76 1426 88 l 814 963 b 706 1011 792 993 760 1011 z m 706 842 l 1000 410 l 426 410 z m 460 1261 b 414 1197 421 1261 414 1239 b 460 1133 414 1154 421 1133 l 986 1133 b 1032 1197 1024 1133 1032 1154 b 986 1261 1032 1239 1024 1261 z "},"ā":{"ha":1261,"x_min":0,"x_max":0,"o":"m 815 0 b 1208 242 1076 0 1208 81 l 1208 543 b 815 785 1208 706 1076 785 l 679 785 b 628 714 638 785 628 761 b 679 644 628 668 638 644 l 810 644 b 1032 558 965 644 1032 611 l 1032 557 l 438 557 b 44 315 176 557 44 478 l 44 242 b 438 0 44 81 176 0 z m 810 140 l 443 140 b 221 242 288 140 221 186 l 221 321 b 443 422 221 378 288 422 l 1032 422 l 1032 242 b 810 140 1032 186 965 140 z m 478 1039 b 432 975 439 1039 432 1017 b 478 911 432 932 439 911 l 1004 911 b 1050 975 1042 911 1050 932 b 1004 1039 1050 1017 1042 1039 z "},"Ă":{"ha":1446,"x_min":0,"x_max":0,"o":"m 706 1011 b 596 963 650 1011 617 993 l 26 99 b 17 68 21 89 17 79 b 117 -7 17 25 71 -7 b 176 21 140 -7 164 1 l 331 260 l 1103 260 l 1267 21 b 1328 -7 1281 1 1303 -7 b 1429 67 1375 -7 1429 25 b 1419 99 1429 76 1426 88 l 814 963 b 706 1011 792 993 760 1011 z m 706 842 l 1000 410 l 426 410 z m 722 1086 b 1040 1311 881 1086 1040 1172 b 953 1375 1040 1360 1021 1375 b 868 1338 913 1375 883 1369 b 722 1215 842 1282 810 1215 b 576 1338 635 1215 603 1282 b 492 1375 561 1369 532 1375 b 404 1311 424 1375 404 1360 b 722 1086 404 1172 564 1086 z "},"ă":{"ha":1261,"x_min":0,"x_max":0,"o":"m 815 0 b 1208 242 1076 0 1208 81 l 1208 543 b 815 785 1208 706 1076 785 l 679 785 b 628 714 638 785 628 761 b 679 644 628 668 638 644 l 810 644 b 1032 558 965 644 1032 611 l 1032 557 l 438 557 b 44 315 176 557 44 478 l 44 242 b 438 0 44 81 176 0 z m 810 140 l 443 140 b 221 242 288 140 221 186 l 221 321 b 443 422 221 378 288 422 l 1032 422 l 1032 242 b 810 140 1032 186 965 140 z m 742 864 b 1060 1089 900 864 1060 950 b 972 1153 1060 1138 1040 1153 b 888 1115 932 1153 903 1147 b 742 993 861 1060 829 993 b 596 1115 654 993 622 1060 b 511 1153 581 1147 551 1153 b 424 1089 443 1153 424 1138 b 742 864 424 950 583 864 z "},"Ą":{"ha":1446,"x_min":0,"x_max":0,"o":"m 1363 -161 l 1199 -161 b 1161 -129 1169 -161 1161 -154 l 1161 -108 b 1325 -21 1161 -72 1211 -56 b 1429 67 1365 -8 1429 18 b 1419 99 1429 76 1426 88 l 814 963 b 706 1011 792 993 760 1011 b 596 963 650 1011 617 993 l 26 99 b 17 68 21 89 17 79 b 117 -7 17 25 72 -7 b 176 21 140 -7 164 1 l 331 260 l 1103 260 l 1274 11 b 997 -153 1049 -36 997 -76 l 997 -186 b 1154 -292 997 -228 1028 -292 l 1363 -292 b 1410 -225 1401 -292 1410 -268 b 1363 -161 1410 -183 1401 -161 z m 706 842 l 1000 410 l 426 410 z "},"ą":{"ha":1261,"x_min":0,"x_max":0,"o":"m 925 -161 l 761 -161 b 724 -129 732 -161 724 -154 l 724 -108 b 888 -21 724 -74 772 -57 b 1208 242 1099 47 1208 99 l 1208 543 b 815 785 1208 706 1076 785 l 679 785 b 628 714 638 785 628 761 b 679 644 628 668 638 644 l 810 644 b 1032 558 965 644 1032 611 l 1032 557 l 438 557 b 44 315 176 557 44 478 l 44 242 b 438 0 44 81 176 0 l 796 0 b 560 -153 611 -36 560 -76 l 560 -186 b 717 -292 560 -228 590 -292 l 925 -292 b 972 -225 964 -292 972 -268 b 925 -161 972 -183 964 -161 z m 810 140 l 443 140 b 221 242 288 140 221 186 l 221 321 b 443 422 221 378 288 422 l 1032 422 l 1032 242 b 810 140 1032 186 965 140 z "},"Ć":{"ha":1244,"x_min":0,"x_max":0,"o":"m 1146 0 b 1199 75 1190 0 1199 26 b 1146 150 1199 125 1190 150 l 469 150 b 236 258 307 150 236 199 l 236 749 b 469 857 236 810 307 857 l 1144 857 b 1199 932 1189 857 1199 882 b 1144 1007 1199 982 1189 1007 l 464 1007 b 53 749 190 1007 53 922 l 53 258 b 464 0 53 86 190 0 z m 899 1257 b 940 1315 928 1272 940 1292 b 871 1375 940 1356 908 1375 b 767 1357 813 1375 792 1369 l 485 1204 b 443 1144 456 1189 443 1169 b 513 1086 443 1106 475 1086 b 617 1104 571 1086 592 1092 z "},"ć":{"ha":1240,"x_min":0,"x_max":0,"o":"m 1144 0 b 1194 71 1186 0 1194 25 b 1144 140 1194 117 1186 140 l 451 140 b 229 242 296 140 229 186 l 229 543 b 451 644 229 600 296 644 l 1140 644 b 1192 714 1182 644 1192 668 b 1140 785 1192 761 1182 785 l 446 785 b 53 543 185 785 53 706 l 53 242 b 446 0 53 81 185 0 z m 896 1035 b 938 1093 925 1050 938 1069 b 868 1153 938 1133 906 1153 b 764 1135 810 1153 789 1147 l 482 982 b 440 922 453 967 440 947 b 510 864 440 883 472 864 b 614 882 568 864 589 869 z "},"Ċ":{"ha":1244,"x_min":0,"x_max":0,"o":"m 1146 0 b 1199 75 1190 0 1199 26 b 1146 150 1199 125 1190 150 l 469 150 b 236 258 307 150 236 199 l 236 749 b 469 857 236 810 307 857 l 1144 857 b 1199 932 1189 857 1199 882 b 1144 1007 1199 982 1189 1007 l 464 1007 b 53 749 190 1007 53 922 l 53 258 b 464 0 53 86 190 0 z m 513 1190 b 622 1104 513 1131 544 1104 b 732 1190 700 1104 732 1131 b 622 1276 732 1250 700 1276 b 513 1190 544 1276 513 1250 z "},"ċ":{"ha":1240,"x_min":0,"x_max":0,"o":"m 1144 0 b 1194 71 1186 0 1194 25 b 1144 140 1194 117 1186 140 l 451 140 b 229 242 296 140 229 186 l 229 543 b 451 644 229 600 296 644 l 1140 644 b 1192 714 1182 644 1192 668 b 1140 785 1192 761 1182 785 l 446 785 b 53 543 185 785 53 706 l 53 242 b 446 0 53 81 185 0 z m 510 968 b 619 882 510 908 542 882 b 729 968 697 882 729 908 b 619 1054 729 1028 697 1054 b 510 968 542 1054 510 1028 z "},"Č":{"ha":1244,"x_min":0,"x_max":0,"o":"m 1146 0 b 1199 75 1190 0 1199 26 b 1146 150 1199 125 1190 150 l 469 150 b 236 258 307 150 236 199 l 236 749 b 469 857 236 810 307 857 l 1144 857 b 1199 932 1189 857 1199 882 b 1144 1007 1199 982 1189 1007 l 464 1007 b 53 749 190 1007 53 922 l 53 258 b 464 0 53 86 190 0 z m 622 1240 l 535 1347 b 458 1375 518 1368 486 1375 b 369 1326 411 1375 369 1356 b 381 1300 369 1319 372 1310 l 533 1119 b 622 1086 551 1097 578 1086 b 711 1119 667 1086 693 1097 l 864 1300 b 875 1326 872 1310 875 1319 b 786 1375 875 1356 833 1375 b 710 1347 758 1375 726 1368 z "},"č":{"ha":1240,"x_min":0,"x_max":0,"o":"m 1144 0 b 1194 71 1186 0 1194 25 b 1144 140 1194 117 1186 140 l 451 140 b 229 242 296 140 229 186 l 229 543 b 451 644 229 600 296 644 l 1140 644 b 1192 714 1182 644 1192 668 b 1140 785 1192 761 1182 785 l 446 785 b 53 543 185 785 53 706 l 53 242 b 446 0 53 81 185 0 z m 619 1018 l 532 1125 b 456 1153 515 1146 483 1153 b 367 1104 408 1153 367 1133 b 378 1078 367 1097 369 1088 l 531 897 b 619 864 549 875 575 864 b 708 897 664 864 690 875 l 861 1078 b 872 1104 869 1088 872 1097 b 783 1153 872 1133 831 1153 b 707 1125 756 1153 724 1146 z "},"Ď":{"ha":1381,"x_min":0,"x_max":0,"o":"m 1328 749 b 917 1007 1328 922 1192 1007 l 129 1007 b 65 943 86 1007 65 986 l 65 65 b 129 0 65 22 86 0 l 917 0 b 1328 258 1192 0 1328 86 z m 250 857 l 911 857 b 1146 749 1074 857 1146 810 l 1146 258 b 911 150 1146 199 1074 150 l 250 150 z m 690 1240 l 603 1347 b 526 1375 586 1368 554 1375 b 438 1326 479 1375 438 1356 b 449 1300 438 1319 440 1310 l 601 1119 b 690 1086 619 1097 646 1086 b 779 1119 735 1086 761 1097 l 932 1300 b 943 1326 940 1310 943 1319 b 854 1375 943 1356 901 1375 b 778 1347 826 1375 794 1368 z "},"ď":{"ha":1443,"x_min":0,"x_max":0,"o":"m 996 785 l 446 785 b 53 543 185 785 53 706 l 53 242 b 446 0 53 81 185 0 l 779 0 b 1172 242 1040 0 1172 81 l 1172 947 b 1085 1013 1172 1000 1143 1013 b 996 947 1025 1013 996 1000 z m 996 644 l 996 242 b 774 140 996 186 929 140 l 451 140 b 229 242 296 140 229 186 l 229 543 b 451 644 229 600 296 644 z m 1440 1010 b 1443 1042 1442 1019 1443 1032 b 1354 1096 1443 1083 1418 1096 b 1258 1040 1290 1096 1265 1083 l 1238 918 b 1232 874 1235 901 1232 885 b 1324 824 1232 836 1260 824 b 1418 879 1386 824 1411 836 z "},"Đ":{"ha":1438,"x_min":0,"x_max":0,"o":"m 1385 749 b 974 1007 1385 922 1249 1007 l 186 1007 b 122 943 143 1007 122 986 l 122 571 l 68 571 b 14 496 24 571 14 546 b 68 421 14 446 24 421 l 122 421 l 122 65 b 186 0 122 22 143 0 l 974 0 b 1385 258 1249 0 1385 86 z m 875 421 b 929 496 919 421 929 446 b 875 571 929 546 919 571 l 307 571 l 307 857 l 968 857 b 1203 749 1131 857 1203 810 l 1203 258 b 968 150 1203 199 1131 150 l 307 150 l 307 421 z "},"đ":{"ha":1232,"x_min":0,"x_max":0,"o":"m 600 1039 b 554 975 561 1039 554 1017 b 600 911 554 932 561 911 l 996 911 l 996 785 l 446 785 b 53 543 185 785 53 706 l 53 242 b 446 0 53 81 185 0 l 779 0 b 1172 242 1040 0 1172 81 l 1172 975 b 1126 1039 1172 1017 1164 1039 z m 996 644 l 996 242 b 774 140 996 186 929 140 l 451 140 b 229 242 296 140 229 186 l 229 543 b 451 644 229 600 296 644 z "},"Ē":{"ha":1239,"x_min":0,"x_max":0,"o":"m 1138 421 b 1192 496 1182 421 1192 446 b 1138 571 1192 546 1182 571 l 236 571 l 236 749 b 469 857 236 810 307 857 l 671 857 b 724 932 714 857 724 882 b 671 1007 724 982 714 1007 l 464 1007 b 53 749 190 1007 53 922 l 53 258 b 464 0 53 86 190 0 l 1133 0 b 1188 75 1178 0 1188 26 b 1133 150 1188 125 1178 150 l 469 150 b 236 258 307 150 236 199 l 236 421 z m 314 1261 b 268 1197 275 1261 268 1239 b 314 1133 268 1154 275 1133 l 840 1133 b 886 1197 878 1133 886 1154 b 840 1261 886 1239 878 1261 z "},"ē":{"ha":1201,"x_min":0,"x_max":0,"o":"m 1076 313 b 1160 383 1147 313 1160 329 l 1160 543 b 767 785 1160 706 1044 785 l 446 785 b 53 543 185 785 53 706 l 53 242 b 446 0 53 81 185 0 l 611 0 b 661 71 653 0 661 25 b 611 140 661 117 653 140 l 451 140 b 229 242 296 140 229 186 l 229 313 z m 229 543 b 451 644 229 600 296 644 l 761 644 b 983 543 917 644 983 607 l 983 450 l 229 450 z m 338 1039 b 292 975 299 1039 292 1017 b 338 911 292 932 299 911 l 864 911 b 910 975 901 911 910 932 b 864 1039 910 1017 901 1039 z "},"Ĕ":{"ha":1239,"x_min":0,"x_max":0,"o":"m 1138 421 b 1192 496 1182 421 1192 446 b 1138 571 1192 546 1182 571 l 236 571 l 236 749 b 469 857 236 810 307 857 l 671 857 b 724 932 714 857 724 882 b 671 1007 724 982 714 1007 l 464 1007 b 53 749 190 1007 53 922 l 53 258 b 464 0 53 86 190 0 l 1133 0 b 1188 75 1178 0 1188 26 b 1133 150 1188 125 1178 150 l 469 150 b 236 258 307 150 236 199 l 236 421 z m 578 1086 b 896 1311 736 1086 896 1172 b 808 1375 896 1360 876 1375 b 724 1338 768 1375 739 1369 b 578 1215 697 1282 665 1215 b 432 1338 490 1215 458 1282 b 347 1375 417 1369 388 1375 b 260 1311 279 1375 260 1360 b 578 1086 260 1172 419 1086 z "},"ĕ":{"ha":1201,"x_min":0,"x_max":0,"o":"m 1076 313 b 1160 383 1147 313 1160 329 l 1160 543 b 767 785 1160 706 1044 785 l 446 785 b 53 543 185 785 53 706 l 53 242 b 446 0 53 81 185 0 l 611 0 b 661 71 653 0 661 25 b 611 140 661 117 653 140 l 451 140 b 229 242 296 140 229 186 l 229 313 z m 229 543 b 451 644 229 600 296 644 l 761 644 b 983 543 917 644 983 607 l 983 450 l 229 450 z m 600 864 b 918 1089 758 864 918 950 b 831 1153 918 1138 899 1153 b 746 1115 790 1153 761 1147 b 600 993 719 1060 688 993 b 454 1115 513 993 481 1060 b 369 1153 439 1147 410 1153 b 282 1089 301 1153 282 1138 b 600 864 282 950 442 864 z "},"Ė":{"ha":1239,"x_min":0,"x_max":0,"o":"m 1138 421 b 1192 496 1182 421 1192 446 b 1138 571 1192 546 1182 571 l 236 571 l 236 749 b 469 857 236 810 307 857 l 671 857 b 724 932 714 857 724 882 b 671 1007 724 982 714 1007 l 464 1007 b 53 749 190 1007 53 922 l 53 258 b 464 0 53 86 190 0 l 1133 0 b 1188 75 1178 0 1188 26 b 1133 150 1188 125 1178 150 l 469 150 b 236 258 307 150 236 199 l 236 421 z m 468 1190 b 578 1104 468 1131 500 1104 b 688 1190 656 1104 688 1131 b 578 1276 688 1250 656 1276 b 468 1190 500 1276 468 1250 z "},"ė":{"ha":1201,"x_min":0,"x_max":0,"o":"m 1076 313 b 1160 383 1147 313 1160 329 l 1160 543 b 767 785 1160 706 1044 785 l 446 785 b 53 543 185 785 53 706 l 53 242 b 446 0 53 81 185 0 l 611 0 b 661 71 653 0 661 25 b 611 140 661 117 653 140 l 451 140 b 229 242 296 140 229 186 l 229 313 z m 229 543 b 451 644 229 600 296 644 l 761 644 b 983 543 917 644 983 607 l 983 450 l 229 450 z m 490 968 b 600 882 490 908 522 882 b 710 968 678 882 710 908 b 600 1054 710 1028 678 1054 b 490 968 522 1054 490 1028 z "},"Ę":{"ha":1239,"x_min":0,"x_max":0,"o":"m 1147 -161 l 983 -161 b 946 -129 954 -161 946 -154 l 946 -108 b 1110 -21 946 -74 990 -58 b 1188 81 1167 -3 1188 21 b 1133 150 1188 125 1176 150 l 469 150 b 236 258 307 150 236 199 l 236 421 l 1138 421 b 1192 496 1182 421 1192 446 b 1138 571 1192 546 1182 571 l 236 571 l 236 749 b 469 857 236 810 307 857 l 671 857 b 724 932 714 857 724 882 b 671 1007 724 982 714 1007 l 464 1007 b 53 749 190 1007 53 922 l 53 258 b 464 0 53 86 190 0 l 1018 0 b 782 -153 833 -36 782 -76 l 782 -186 b 939 -292 782 -228 813 -292 l 1147 -292 b 1194 -225 1186 -292 1194 -268 b 1147 -161 1194 -183 1186 -161 z "},"ę":{"ha":1201,"x_min":0,"x_max":0,"o":"m 614 -161 l 450 -161 b 413 -129 421 -161 413 -154 l 413 -108 b 576 -21 413 -75 456 -60 b 661 75 639 -1 661 13 b 611 140 661 117 651 140 l 451 140 b 229 242 296 140 229 186 l 229 313 l 1076 313 b 1160 383 1147 313 1160 329 l 1160 543 b 767 785 1160 706 1044 785 l 446 785 b 53 543 185 785 53 706 l 53 242 b 446 0 53 81 185 0 l 485 0 b 249 -153 300 -36 249 -76 l 249 -186 b 406 -292 249 -228 279 -292 l 614 -292 b 661 -225 653 -292 661 -268 b 614 -161 661 -183 653 -161 z m 229 543 b 451 644 229 600 296 644 l 761 644 b 983 543 917 644 983 607 l 983 450 l 229 450 z "},"Ě":{"ha":1239,"x_min":0,"x_max":0,"o":"m 1138 421 b 1192 496 1182 421 1192 446 b 1138 571 1192 546 1182 571 l 236 571 l 236 749 b 469 857 236 810 307 857 l 671 857 b 724 932 714 857 724 882 b 671 1007 724 982 714 1007 l 464 1007 b 53 749 190 1007 53 922 l 53 258 b 464 0 53 86 190 0 l 1133 0 b 1188 75 1178 0 1188 26 b 1133 150 1188 125 1178 150 l 469 150 b 236 258 307 150 236 199 l 236 421 z m 578 1240 l 490 1347 b 414 1375 474 1368 442 1375 b 325 1326 367 1375 325 1356 b 336 1300 325 1319 328 1310 l 489 1119 b 578 1086 507 1097 533 1086 b 667 1119 622 1086 649 1097 l 819 1300 b 831 1326 828 1310 831 1319 b 742 1375 831 1356 789 1375 b 665 1347 714 1375 682 1368 z "},"ě":{"ha":1201,"x_min":0,"x_max":0,"o":"m 1076 313 b 1160 383 1147 313 1160 329 l 1160 543 b 767 785 1160 706 1044 785 l 446 785 b 53 543 185 785 53 706 l 53 242 b 446 0 53 81 185 0 l 611 0 b 661 71 653 0 661 25 b 611 140 661 117 653 140 l 451 140 b 229 242 296 140 229 186 l 229 313 z m 229 543 b 451 644 229 600 296 644 l 761 644 b 983 543 917 644 983 607 l 983 450 l 229 450 z m 600 1018 l 513 1125 b 436 1153 496 1146 464 1153 b 347 1104 389 1153 347 1133 b 358 1078 347 1097 350 1088 l 511 897 b 600 864 529 875 556 864 b 689 897 644 864 671 875 l 842 1078 b 853 1104 850 1088 853 1097 b 764 1153 853 1133 811 1153 b 688 1125 736 1153 704 1146 z "},"Ğ":{"ha":1347,"x_min":0,"x_max":0,"o":"m 1297 506 b 1203 571 1297 560 1264 571 b 1111 506 1142 571 1111 560 l 1111 258 b 879 150 1111 199 1042 150 l 469 150 b 236 258 307 150 236 199 l 236 749 b 469 857 236 810 307 857 l 660 857 b 714 932 704 857 714 882 b 660 1007 714 982 704 1007 l 464 1007 b 53 749 190 1007 53 922 l 53 258 b 464 0 53 86 190 0 l 885 0 b 1297 258 1153 0 1297 82 z m 632 1086 b 950 1311 790 1086 950 1172 b 863 1375 950 1360 931 1375 b 778 1338 822 1375 793 1369 b 632 1215 751 1282 719 1215 b 486 1338 544 1215 513 1282 b 401 1375 471 1369 442 1375 b 314 1311 333 1375 314 1360 b 632 1086 314 1172 474 1086 z "},"ğ":{"ha":1217,"x_min":0,"x_max":0,"o":"m 797 -228 b 1157 13 1029 -228 1157 -147 l 1157 543 b 764 785 1157 704 1025 785 l 446 785 b 53 543 185 785 53 704 l 53 261 b 446 19 53 99 185 19 l 981 19 l 981 13 b 797 -87 981 -51 935 -87 l 606 -87 b 556 -157 564 -87 556 -111 b 606 -228 556 -203 564 -228 z m 451 157 b 229 258 296 157 229 201 l 229 543 b 451 644 229 599 296 644 l 758 644 b 981 543 914 644 981 599 l 981 157 z m 608 864 b 926 1089 767 864 926 950 b 839 1153 926 1138 907 1153 b 754 1115 799 1153 769 1147 b 608 993 728 1060 696 993 b 463 1115 521 993 489 1060 b 378 1153 447 1147 418 1153 b 290 1089 310 1153 290 1138 b 608 864 290 950 450 864 z "},"Ġ":{"ha":1347,"x_min":0,"x_max":0,"o":"m 1297 506 b 1203 571 1297 560 1264 571 b 1111 506 1142 571 1111 560 l 1111 258 b 879 150 1111 199 1042 150 l 469 150 b 236 258 307 150 236 199 l 236 749 b 469 857 236 810 307 857 l 660 857 b 714 932 704 857 714 882 b 660 1007 714 982 704 1007 l 464 1007 b 53 749 190 1007 53 922 l 53 258 b 464 0 53 86 190 0 l 885 0 b 1297 258 1153 0 1297 82 z m 522 1190 b 632 1104 522 1131 554 1104 b 742 1190 710 1104 742 1131 b 632 1276 742 1250 710 1276 b 522 1190 554 1276 522 1250 z "},"ġ":{"ha":1217,"x_min":0,"x_max":0,"o":"m 797 -228 b 1157 13 1029 -228 1157 -147 l 1157 543 b 764 785 1157 704 1025 785 l 446 785 b 53 543 185 785 53 704 l 53 261 b 446 19 53 99 185 19 l 981 19 l 981 13 b 797 -87 981 -51 935 -87 l 606 -87 b 556 -157 564 -87 556 -111 b 606 -228 556 -203 564 -228 z m 451 157 b 229 258 296 157 229 201 l 229 543 b 451 644 229 599 296 644 l 758 644 b 981 543 914 644 981 599 l 981 157 z m 499 968 b 608 882 499 908 531 882 b 718 968 686 882 718 908 b 608 1054 718 1028 686 1054 b 499 968 531 1054 499 1028 z "},"Ģ":{"ha":1347,"x_min":0,"x_max":0,"o":"m 1297 506 b 1203 571 1297 560 1264 571 b 1111 506 1142 571 1111 560 l 1111 258 b 879 150 1111 199 1042 150 l 469 150 b 236 258 307 150 236 199 l 236 749 b 469 857 236 810 307 857 l 660 857 b 714 932 704 857 714 882 b 660 1007 714 982 704 1007 l 464 1007 b 53 749 190 1007 53 922 l 53 258 b 464 0 53 86 190 0 l 885 0 b 1297 258 1153 0 1297 82 z m 776 -106 b 779 -74 778 -96 779 -83 b 690 -19 779 -32 754 -19 b 594 -75 626 -19 601 -32 l 574 -197 b 568 -242 571 -214 568 -231 b 660 -292 568 -279 596 -292 b 754 -236 722 -292 747 -279 z "},"ģ":{"ha":1217,"x_min":0,"x_max":0,"o":"m 797 -228 b 1157 13 1029 -228 1157 -147 l 1157 543 b 764 785 1157 704 1025 785 l 446 785 b 53 543 185 785 53 704 l 53 261 b 446 19 53 99 185 19 l 981 19 l 981 13 b 797 -87 981 -51 935 -87 l 606 -87 b 556 -157 564 -87 556 -111 b 606 -228 556 -203 564 -228 z m 451 157 b 229 258 296 157 229 201 l 229 543 b 451 644 229 599 296 644 l 758 644 b 981 543 914 644 981 599 l 981 157 z m 760 1010 b 763 1042 761 1019 763 1032 b 674 1096 763 1083 738 1096 b 578 1040 610 1096 585 1083 l 557 918 b 551 874 554 901 551 885 b 643 824 551 836 579 824 b 738 879 706 824 731 836 z "},"Ħ":{"ha":1394,"x_min":0,"x_max":0,"o":"m 250 947 b 157 1013 250 1000 218 1013 b 65 947 97 1013 65 1000 l 65 60 b 157 -6 65 7 97 -6 b 250 60 218 -6 250 7 l 250 421 l 1144 421 l 1144 60 b 1238 -6 1144 7 1176 -6 b 1329 60 1297 -6 1329 7 l 1329 947 b 1238 1013 1329 1000 1297 1013 b 1144 947 1176 1013 1144 1000 l 1144 857 l 250 857 z m 250 571 l 250 729 l 1144 729 l 1144 571 z "},"ħ":{"ha":1228,"x_min":0,"x_max":0,"o":"m 111 1039 b 65 975 72 1039 65 1017 l 65 60 b 153 -6 65 7 94 -6 b 242 60 213 -6 242 7 l 242 644 l 769 644 b 992 543 925 644 992 600 l 992 60 b 1079 -6 992 7 1021 -6 b 1168 60 1139 -6 1168 7 l 1168 543 b 775 785 1168 706 1036 785 l 242 785 l 242 911 l 638 911 b 683 975 675 911 683 932 b 638 1039 683 1017 675 1039 z "},"Ī":{"ha":463,"x_min":0,"x_max":0,"o":"m 324 947 b 231 1013 324 1000 292 1013 b 139 947 171 1013 139 1000 l 139 60 b 231 -6 139 7 171 -6 b 324 60 292 -6 324 7 z m -32 1261 b -78 1197 -71 1261 -78 1239 b -32 1133 -78 1154 -71 1133 l 494 1133 b 540 1197 532 1133 540 1154 b 494 1261 540 1239 532 1261 z "},"ī":{"ha":604,"x_min":0,"x_max":0,"o":"m 390 725 b 301 790 390 778 361 790 b 214 725 243 790 214 778 l 214 60 b 301 -6 214 7 243 -6 b 390 60 361 -6 390 7 z m 39 1039 b -7 975 0 1039 -7 1017 b 39 911 -7 932 0 911 l 565 911 b 611 975 603 911 611 932 b 565 1039 611 1017 603 1039 z "},"Ĭ":{"ha":485,"x_min":0,"x_max":0,"o":"m 335 947 b 242 1013 335 1000 303 1013 b 150 947 182 1013 150 1000 l 150 60 b 242 -6 150 7 182 -6 b 335 60 303 -6 335 7 z m 243 1086 b 561 1311 401 1086 561 1172 b 474 1375 561 1360 542 1375 b 389 1338 433 1375 404 1369 b 243 1215 363 1282 331 1215 b 97 1338 156 1215 124 1282 b 13 1375 82 1369 53 1375 b -75 1311 -56 1375 -75 1360 b 243 1086 -75 1172 85 1086 z "},"ĭ":{"ha":618,"x_min":0,"x_max":0,"o":"m 397 725 b 308 790 397 778 368 790 b 221 725 250 790 221 778 l 221 60 b 308 -6 221 7 250 -6 b 397 60 368 -6 397 7 z m 310 864 b 628 1089 468 864 628 950 b 540 1153 628 1138 608 1153 b 456 1115 500 1153 471 1147 b 310 993 429 1060 397 993 b 164 1115 222 993 190 1060 b 79 1153 149 1147 119 1153 b -8 1089 11 1153 -8 1138 b 310 864 -8 950 151 864 z "},"Į":{"ha":400,"x_min":0,"x_max":0,"o":"m 293 -161 l 129 -161 b 92 -129 100 -161 92 -154 l 92 -108 b 256 -21 92 -74 136 -58 b 335 60 294 -8 335 11 l 335 947 b 242 1013 335 1000 303 1013 b 150 947 182 1013 150 1000 l 150 60 b 178 4 150 33 161 14 b -72 -153 -21 -36 -72 -76 l -72 -186 b 85 -292 -72 -228 -42 -292 l 293 -292 b 340 -225 332 -292 340 -268 b 293 -161 340 -183 332 -161 z "},"į":{"ha":400,"x_min":0,"x_max":0,"o":"m 294 -161 l 131 -161 b 93 -129 101 -161 93 -154 l 93 -108 b 257 -21 93 -74 138 -58 b 335 60 296 -8 335 11 l 335 715 b 246 781 335 768 306 781 b 158 715 188 781 158 768 l 158 60 b 182 4 158 31 165 14 b -71 -153 -19 -36 -71 -76 l -71 -186 b 86 -292 -71 -228 -40 -292 l 294 -292 b 342 -225 333 -292 342 -268 b 294 -161 342 -183 333 -161 z m 136 926 b 246 840 136 867 168 840 b 356 926 324 840 356 867 b 246 1013 356 986 324 1013 b 136 926 168 1013 136 986 z "},"İ":{"ha":315,"x_min":0,"x_max":0,"o":"m 250 947 b 157 1013 250 1000 218 1013 b 65 947 97 1013 65 1000 l 65 60 b 157 -6 65 7 97 -6 b 250 60 218 -6 250 7 z m 49 1190 b 158 1104 49 1131 81 1104 b 268 1190 236 1104 268 1131 b 158 1276 268 1250 236 1276 b 49 1190 81 1276 49 1250 z "},"ı":{"ha":307,"x_min":0,"x_max":0,"o":"m 242 725 b 153 790 242 778 213 790 b 65 725 94 790 65 778 l 65 60 b 153 -6 65 7 94 -6 b 242 60 213 -6 242 7 z "},"Ĳ":{"ha":625,"x_min":0,"x_max":0,"o":"m 250 947 b 157 1013 250 1000 218 1013 b 65 947 97 1013 65 1000 l 65 99 b 157 33 65 46 97 33 b 250 99 218 33 250 46 z m 153 -228 b 565 31 428 -228 565 -142 l 565 947 b 474 1013 565 1000 533 1013 b 381 947 413 1013 381 1000 l 381 31 b 149 -78 381 -29 311 -78 l 118 -78 b 65 -151 74 -78 65 -103 b 118 -228 65 -201 74 -228 z "},"ĳ":{"ha":638,"x_min":0,"x_max":0,"o":"m 242 715 b 153 781 242 768 213 781 b 65 715 94 781 65 768 l 65 60 b 153 -6 65 7 94 -6 b 242 60 213 -6 242 7 z m 43 926 b 153 840 43 867 75 840 b 263 926 231 840 263 867 b 153 1013 263 986 231 1013 b 43 926 75 1013 43 986 z m 374 926 b 483 840 374 867 406 840 b 593 926 561 840 593 867 b 483 1013 593 986 561 1013 b 374 926 406 1013 374 986 z m 213 -228 b 572 13 444 -228 572 -147 l 572 715 b 485 781 572 768 543 781 b 396 715 425 781 396 768 l 396 13 b 213 -87 396 -51 350 -87 l 99 -87 b 49 -157 57 -87 49 -111 b 99 -228 49 -203 57 -228 z "},"Ķ":{"ha":1221,"x_min":0,"x_max":0,"o":"m 250 947 b 157 1013 250 1000 218 1013 b 65 947 97 1013 65 1000 l 65 60 b 157 -6 65 7 97 -6 b 250 60 218 -6 250 7 l 250 415 l 1007 14 b 1119 -6 1033 0 1057 -6 b 1194 58 1160 -6 1194 15 b 1150 122 1194 85 1181 107 l 383 511 l 1125 885 b 1169 949 1156 900 1169 922 b 1094 1013 1169 992 1135 1013 b 982 993 1032 1013 1008 1007 l 250 599 z m 671 -106 b 674 -74 672 -96 674 -83 b 585 -19 674 -32 649 -19 b 489 -75 521 -19 496 -32 l 468 -197 b 463 -242 465 -214 463 -231 b 554 -292 463 -279 490 -292 b 649 -236 617 -292 642 -279 z "},"ķ":{"ha":1024,"x_min":0,"x_max":0,"o":"m 242 947 b 153 1013 242 1000 213 1013 b 65 947 94 1013 65 1000 l 65 60 b 153 -6 65 7 94 -6 b 242 60 213 -6 242 7 l 242 307 l 793 15 b 900 -6 808 7 840 -6 b 997 50 965 -6 997 10 b 957 108 997 76 983 94 l 389 396 l 947 689 b 986 739 969 700 986 714 b 918 790 986 774 956 790 b 811 775 861 790 835 788 l 242 475 z m 572 -106 b 575 -74 574 -96 575 -83 b 486 -19 575 -32 550 -19 b 390 -75 422 -19 397 -32 l 369 -197 b 364 -242 367 -214 364 -231 b 456 -292 364 -279 392 -292 b 550 -236 518 -292 543 -279 z "},"Ĺ":{"ha":1226,"x_min":0,"x_max":0,"o":"m 1157 0 b 1210 76 1201 0 1210 26 b 1157 150 1210 125 1201 150 l 476 150 b 244 258 314 150 244 199 l 244 947 b 151 1013 244 1000 213 1013 b 60 947 92 1013 60 1000 l 60 258 b 471 0 60 86 197 0 z m 611 1257 b 653 1315 640 1272 653 1292 b 583 1375 653 1356 621 1375 b 479 1357 525 1375 504 1369 l 197 1204 b 156 1144 168 1189 156 1169 b 225 1086 156 1106 188 1086 b 329 1104 283 1086 304 1092 z "},"ĺ":{"ha":307,"x_min":0,"x_max":0,"o":"m 242 947 b 153 1013 242 1000 213 1013 b 65 947 94 1013 65 1000 l 65 60 b 153 -6 65 7 94 -6 b 242 60 213 -6 242 7 z m 431 1257 b 472 1315 460 1272 472 1292 b 403 1375 472 1356 440 1375 b 299 1357 344 1375 324 1369 l 17 1204 b -25 1144 -12 1189 -25 1169 b 44 1086 -25 1106 7 1086 b 149 1104 103 1086 124 1092 z "},"Ļ":{"ha":1226,"x_min":0,"x_max":0,"o":"m 1157 0 b 1210 76 1201 0 1210 26 b 1157 150 1210 125 1201 150 l 476 150 b 244 258 314 150 244 199 l 244 947 b 151 1013 244 1000 213 1013 b 60 947 92 1013 60 1000 l 60 258 b 471 0 60 86 197 0 z m 715 -106 b 718 -74 717 -96 718 -83 b 629 -19 718 -32 693 -19 b 533 -75 565 -19 540 -32 l 513 -197 b 507 -242 510 -214 507 -231 b 599 -292 507 -279 535 -292 b 693 -236 661 -292 686 -279 z "},"ļ":{"ha":307,"x_min":0,"x_max":0,"o":"m 242 947 b 153 1013 242 1000 213 1013 b 65 947 94 1013 65 1000 l 65 60 b 153 -6 65 7 94 -6 b 242 60 213 -6 242 7 z m 257 -106 b 260 -74 258 -96 260 -83 b 171 -19 260 -32 235 -19 b 75 -75 107 -19 82 -32 l 54 -197 b 49 -242 51 -214 49 -231 b 140 -292 49 -279 76 -292 b 235 -236 203 -292 228 -279 z "},"Ľ":{"ha":1226,"x_min":0,"x_max":0,"o":"m 1157 0 b 1210 76 1201 0 1210 26 b 1157 150 1210 125 1201 150 l 476 150 b 244 258 314 150 244 199 l 244 947 b 151 1013 244 1000 213 1013 b 60 947 92 1013 60 1000 l 60 258 b 471 0 60 86 197 0 z m 704 1010 b 707 1042 706 1019 707 1032 b 618 1096 707 1083 682 1096 b 522 1040 554 1096 529 1083 l 501 918 b 496 874 499 901 496 885 b 588 824 496 836 524 824 b 682 879 650 824 675 836 z "},"ľ":{"ha":518,"x_min":0,"x_max":0,"o":"m 242 947 b 153 1013 242 1000 213 1013 b 65 947 94 1013 65 1000 l 65 60 b 153 -6 65 7 94 -6 b 242 60 213 -6 242 7 z m 515 1010 b 518 1042 517 1019 518 1032 b 429 1096 518 1083 493 1096 b 333 1040 365 1096 340 1083 l 313 918 b 307 874 310 901 307 885 b 399 824 307 836 335 824 b 493 879 461 824 486 836 z "},"Ŀ":{"ha":1226,"x_min":0,"x_max":0,"o":"m 1157 0 b 1210 76 1201 0 1210 26 b 1157 150 1210 125 1201 150 l 476 150 b 244 258 314 150 244 199 l 244 947 b 151 1013 244 1000 213 1013 b 60 947 92 1013 60 1000 l 60 258 b 471 0 60 86 197 0 z m 399 531 b 508 444 399 471 431 444 b 618 531 586 444 618 471 b 508 617 618 590 586 617 b 399 531 431 617 399 590 z "},"ŀ":{"ha":500,"x_min":0,"x_max":0,"o":"m 242 947 b 153 1013 242 1000 213 1013 b 65 947 94 1013 65 1000 l 65 60 b 153 -6 65 7 94 -6 b 242 60 213 -6 242 7 z m 288 531 b 397 444 288 471 319 444 b 507 531 475 444 507 471 b 397 617 507 590 475 617 b 288 531 319 617 288 590 z "},"Ł":{"ha":1281,"x_min":0,"x_max":0,"o":"m 39 624 b 4 574 14 614 4 599 b 67 525 4 542 29 525 b 114 528 86 525 100 525 l 114 258 b 525 0 114 86 251 0 l 1211 0 b 1264 76 1256 0 1264 26 b 1211 150 1264 125 1256 150 l 531 150 b 299 258 368 150 299 199 l 299 597 l 740 782 b 775 832 765 792 775 807 b 711 881 775 864 750 881 b 618 865 664 881 639 874 l 299 732 l 299 947 b 206 1013 299 1000 267 1013 b 114 947 146 1013 114 1000 l 114 654 z "},"ł":{"ha":614,"x_min":0,"x_max":0,"o":"m 44 618 b 10 568 19 608 10 593 b 72 519 10 536 35 519 b 167 535 121 519 146 526 l 218 556 l 218 60 b 306 -6 218 7 247 -6 b 394 60 365 -6 394 7 l 394 629 l 569 703 b 604 753 594 713 604 728 b 540 801 604 785 579 801 b 447 786 493 801 468 794 l 394 764 l 394 947 b 306 1013 394 1000 365 1013 b 218 947 247 1013 218 1000 l 218 690 z "},"Ń":{"ha":1385,"x_min":0,"x_max":0,"o":"m 1224 -6 b 1319 60 1288 -6 1319 6 l 1319 947 b 1226 1013 1319 1000 1288 1013 b 1135 947 1167 1013 1135 1000 l 1135 236 l 283 961 b 153 1013 240 997 214 1013 b 65 947 96 1013 65 999 l 65 60 b 157 -6 65 7 97 -6 b 250 60 218 -6 250 7 l 250 769 l 1114 42 b 1224 -6 1163 1 1174 -6 z m 968 1257 b 1010 1315 997 1272 1010 1292 b 940 1375 1010 1356 978 1375 b 836 1357 882 1375 861 1369 l 554 1204 b 513 1144 525 1189 513 1169 b 582 1086 513 1106 544 1086 b 686 1104 640 1086 661 1092 z "},"ń":{"ha":1208,"x_min":0,"x_max":0,"o":"m 147 -6 b 236 60 207 -6 236 7 l 236 543 b 458 644 236 600 303 644 l 750 644 b 972 543 906 644 972 600 l 972 60 b 1060 -6 972 7 1001 -6 b 1149 60 1119 -6 1149 7 l 1149 543 b 756 785 1149 706 1017 785 l 453 785 b 60 543 192 785 60 706 l 60 60 b 147 -6 60 7 89 -6 z m 881 1035 b 922 1093 910 1050 922 1069 b 853 1153 922 1133 890 1153 b 749 1135 794 1153 774 1147 l 467 982 b 425 922 438 967 425 947 b 494 864 425 883 457 864 b 599 882 553 864 574 869 z "},"Ņ":{"ha":1385,"x_min":0,"x_max":0,"o":"m 1224 -6 b 1319 60 1288 -6 1319 6 l 1319 947 b 1226 1013 1319 1000 1288 1013 b 1135 947 1167 1013 1135 1000 l 1135 236 l 283 961 b 153 1013 240 997 214 1013 b 65 947 96 1013 65 999 l 65 60 b 157 -6 65 7 97 -6 b 250 60 218 -6 250 7 l 250 769 l 1114 42 b 1224 -6 1163 1 1174 -6 z m 794 -106 b 797 -74 796 -96 797 -83 b 708 -19 797 -32 772 -19 b 613 -75 644 -19 619 -32 l 592 -197 b 586 -242 589 -214 586 -231 b 678 -292 586 -279 614 -292 b 772 -236 740 -292 765 -279 z "},"ņ":{"ha":1208,"x_min":0,"x_max":0,"o":"m 147 -6 b 236 60 207 -6 236 7 l 236 543 b 458 644 236 600 303 644 l 750 644 b 972 543 906 644 972 600 l 972 60 b 1060 -6 972 7 1001 -6 b 1149 60 1119 -6 1149 7 l 1149 543 b 756 785 1149 706 1017 785 l 453 785 b 60 543 192 785 60 706 l 60 60 b 147 -6 60 7 89 -6 z m 707 -106 b 710 -74 708 -96 710 -83 b 621 -19 710 -32 685 -19 b 525 -75 557 -19 532 -32 l 504 -197 b 499 -242 501 -214 499 -231 b 590 -292 499 -279 526 -292 b 685 -236 653 -292 678 -279 z "},"Ň":{"ha":1385,"x_min":0,"x_max":0,"o":"m 1224 -6 b 1319 60 1288 -6 1319 6 l 1319 947 b 1226 1013 1319 1000 1288 1013 b 1135 947 1167 1013 1135 1000 l 1135 236 l 283 961 b 153 1013 240 997 214 1013 b 65 947 96 1013 65 999 l 65 60 b 157 -6 65 7 97 -6 b 250 60 218 -6 250 7 l 250 769 l 1114 42 b 1224 -6 1163 1 1174 -6 z m 692 1240 l 604 1347 b 528 1375 588 1368 556 1375 b 439 1326 481 1375 439 1356 b 450 1300 439 1319 442 1310 l 603 1119 b 692 1086 621 1097 647 1086 b 781 1119 736 1086 763 1097 l 933 1300 b 944 1326 942 1310 944 1319 b 856 1375 944 1356 903 1375 b 779 1347 828 1375 796 1368 z "},"ň":{"ha":1208,"x_min":0,"x_max":0,"o":"m 147 -6 b 236 60 207 -6 236 7 l 236 543 b 458 644 236 600 303 644 l 750 644 b 972 543 906 644 972 600 l 972 60 b 1060 -6 972 7 1001 -6 b 1149 60 1119 -6 1149 7 l 1149 543 b 756 785 1149 706 1017 785 l 453 785 b 60 543 192 785 60 706 l 60 60 b 147 -6 60 7 89 -6 z m 604 1018 l 517 1125 b 440 1153 500 1146 468 1153 b 351 1104 393 1153 351 1133 b 363 1078 351 1097 354 1088 l 515 897 b 604 864 533 875 560 864 b 693 897 649 864 675 875 l 846 1078 b 857 1104 854 1088 857 1097 b 768 1153 857 1133 815 1153 b 692 1125 740 1153 708 1146 z "},"Ŋ":{"ha":1385,"x_min":0,"x_max":0,"o":"m 951 -228 b 1319 13 1183 -228 1319 -147 l 1319 947 b 1226 1013 1319 1000 1288 1013 b 1135 947 1167 1013 1135 1000 l 1135 236 l 283 961 b 153 1013 240 997 214 1013 b 65 947 96 1013 65 999 l 65 60 b 157 -6 65 7 97 -6 b 250 60 218 -6 250 7 l 250 769 l 1135 25 l 1135 13 b 951 -87 1135 -51 1089 -87 l 838 -87 b 788 -157 796 -87 788 -111 b 838 -228 788 -203 796 -228 z "},"ŋ":{"ha":1208,"x_min":0,"x_max":0,"o":"m 789 -228 b 1149 13 1021 -228 1149 -147 l 1149 543 b 756 785 1149 706 1017 785 l 453 785 b 60 543 192 785 60 706 l 60 60 b 147 -6 60 7 89 -6 b 236 60 207 -6 236 7 l 236 543 b 458 644 236 600 303 644 l 750 644 b 972 543 906 644 972 600 l 972 13 b 789 -87 972 -51 926 -87 l 675 -87 b 625 -157 633 -87 625 -111 b 675 -228 625 -203 633 -228 z "},"Ō":{"ha":1332,"x_min":0,"x_max":0,"o":"m 868 0 b 1279 258 1142 0 1279 86 l 1279 749 b 868 1007 1279 922 1142 1007 l 464 1007 b 53 749 190 1007 53 922 l 53 258 b 464 0 53 86 190 0 z m 863 150 l 469 150 b 236 258 307 150 236 199 l 236 749 b 469 857 236 810 307 857 l 863 857 b 1096 749 1025 857 1096 810 l 1096 258 b 863 150 1096 199 1025 150 z m 403 1261 b 357 1197 364 1261 357 1239 b 403 1133 357 1154 364 1133 l 929 1133 b 975 1197 967 1133 975 1154 b 929 1261 975 1239 967 1261 z "},"ō":{"ha":1194,"x_min":0,"x_max":0,"o":"m 53 543 l 53 242 b 446 0 53 81 185 0 l 749 0 b 1142 242 1010 0 1142 81 l 1142 543 b 749 785 1142 706 1010 785 l 446 785 b 53 543 185 785 53 706 z m 965 242 b 743 140 965 186 899 140 l 451 140 b 229 242 296 140 229 186 l 229 543 b 451 644 229 600 296 644 l 743 644 b 965 543 899 644 965 600 z m 333 1039 b 288 975 294 1039 288 1017 b 333 911 288 932 294 911 l 860 911 b 906 975 897 911 906 932 b 860 1039 906 1017 897 1039 z "},"Ŏ":{"ha":1332,"x_min":0,"x_max":0,"o":"m 868 0 b 1279 258 1142 0 1279 86 l 1279 749 b 868 1007 1279 922 1142 1007 l 464 1007 b 53 749 190 1007 53 922 l 53 258 b 464 0 53 86 190 0 z m 863 150 l 469 150 b 236 258 307 150 236 199 l 236 749 b 469 857 236 810 307 857 l 863 857 b 1096 749 1025 857 1096 810 l 1096 258 b 863 150 1096 199 1025 150 z m 665 1086 b 983 1311 824 1086 983 1172 b 896 1375 983 1360 964 1375 b 811 1338 856 1375 826 1369 b 665 1215 785 1282 753 1215 b 519 1338 578 1215 546 1282 b 435 1375 504 1369 475 1375 b 347 1311 367 1375 347 1360 b 665 1086 347 1172 507 1086 z "},"ŏ":{"ha":1194,"x_min":0,"x_max":0,"o":"m 53 543 l 53 242 b 446 0 53 81 185 0 l 749 0 b 1142 242 1010 0 1142 81 l 1142 543 b 749 785 1142 706 1010 785 l 446 785 b 53 543 185 785 53 706 z m 965 242 b 743 140 965 186 899 140 l 451 140 b 229 242 296 140 229 186 l 229 543 b 451 644 229 600 296 644 l 743 644 b 965 543 899 644 965 600 z m 597 864 b 915 1089 756 864 915 950 b 828 1153 915 1138 896 1153 b 743 1115 788 1153 758 1147 b 597 993 717 1060 685 993 b 451 1115 510 993 478 1060 b 367 1153 436 1147 407 1153 b 279 1089 299 1153 279 1138 b 597 864 279 950 439 864 z "},"Ő":{"ha":1332,"x_min":0,"x_max":0,"o":"m 868 0 b 1279 258 1142 0 1279 86 l 1279 749 b 868 1007 1279 922 1142 1007 l 464 1007 b 53 749 190 1007 53 922 l 53 258 b 464 0 53 86 190 0 z m 863 150 l 469 150 b 236 258 307 150 236 199 l 236 749 b 469 857 236 810 307 857 l 863 857 b 1096 749 1025 857 1096 810 l 1096 258 b 863 150 1096 199 1025 150 z m 1065 1257 b 1097 1317 1088 1272 1097 1290 b 1033 1375 1097 1356 1076 1375 b 961 1357 1011 1375 981 1369 l 742 1204 b 708 1143 718 1188 708 1169 b 775 1086 708 1106 728 1086 b 844 1104 804 1086 828 1093 z m 728 1257 b 761 1315 753 1274 761 1290 b 694 1375 761 1361 735 1375 b 625 1357 665 1375 642 1368 l 404 1204 b 372 1144 382 1189 372 1169 b 426 1086 372 1106 397 1086 b 508 1104 472 1086 489 1090 z "},"ő":{"ha":1194,"x_min":0,"x_max":0,"o":"m 53 543 l 53 242 b 446 0 53 81 185 0 l 749 0 b 1142 242 1010 0 1142 81 l 1142 543 b 749 785 1142 706 1010 785 l 446 785 b 53 543 185 785 53 706 z m 965 242 b 743 140 965 186 899 140 l 451 140 b 229 242 296 140 229 186 l 229 543 b 451 644 229 600 296 644 l 743 644 b 965 543 899 644 965 600 z m 997 1035 b 1029 1094 1019 1050 1029 1068 b 965 1153 1029 1133 1008 1153 b 893 1135 943 1153 913 1147 l 674 982 b 640 921 650 965 640 947 b 707 864 640 883 660 864 b 776 882 736 864 760 871 z m 660 1035 b 693 1093 685 1051 693 1068 b 626 1153 693 1139 667 1153 b 557 1135 597 1153 574 1146 l 336 982 b 304 922 314 967 304 947 b 358 864 304 883 329 864 b 440 882 404 864 421 868 z "},"Œ":{"ha":2207,"x_min":0,"x_max":0,"o":"m 2101 0 b 2156 75 2146 0 2156 26 b 2101 150 2156 125 2146 150 l 1465 150 b 1232 258 1303 150 1232 199 l 1232 421 l 2106 421 b 2160 496 2150 421 2160 446 b 2106 571 2160 546 2150 571 l 1232 571 l 1232 753 b 1465 857 1232 813 1307 857 l 1653 857 b 1706 932 1696 857 1706 882 b 1653 1007 1706 982 1696 1007 l 1460 1007 b 1140 935 1315 1007 1208 983 b 821 1007 1072 983 965 1007 l 464 1007 b 53 749 190 1007 53 922 l 53 258 b 464 0 53 86 190 0 l 821 0 b 1140 72 965 0 1072 24 b 1460 0 1208 24 1315 0 z m 815 150 l 469 150 b 236 258 307 150 236 199 l 236 749 b 469 857 236 810 307 857 l 815 857 b 1049 749 978 857 1049 810 l 1049 258 b 815 150 1049 199 978 150 z "},"œ":{"ha":2114,"x_min":0,"x_max":0,"o":"m 1989 313 b 2072 383 2060 313 2072 329 l 2072 543 b 1679 785 2072 706 1957 785 l 1358 785 b 1053 718 1221 785 1118 763 b 749 785 988 763 886 785 l 446 785 b 53 543 185 785 53 706 l 53 242 b 446 0 53 81 185 0 l 749 0 b 1053 67 886 0 988 22 b 1358 0 1118 22 1221 0 l 1524 0 b 1574 71 1565 0 1574 25 b 1524 140 1574 117 1565 140 l 1364 140 b 1142 242 1208 140 1142 186 l 1142 313 z m 965 242 b 743 140 965 186 899 140 l 451 140 b 229 242 296 140 229 186 l 229 543 b 451 644 229 600 296 644 l 743 644 b 965 543 899 644 965 600 z m 1142 543 b 1364 644 1142 600 1208 644 l 1674 644 b 1896 543 1829 644 1896 607 l 1896 450 l 1142 450 z "},"Ŕ":{"ha":1368,"x_min":0,"x_max":0,"o":"m 65 943 l 65 60 b 157 -6 65 7 97 -6 b 250 60 218 -6 250 7 l 250 365 l 1063 14 b 1172 -6 1092 -3 1146 -6 b 1267 60 1233 -6 1267 10 b 1222 122 1267 90 1254 110 l 888 257 b 553 385 676 342 613 363 l 553 388 b 856 382 625 383 692 382 l 911 382 b 1319 607 1163 382 1319 471 l 1319 782 b 911 1007 1319 918 1163 1007 l 131 1007 b 65 943 86 1007 65 986 z m 894 857 b 1136 768 1083 857 1136 818 l 1136 618 b 894 529 1136 568 1083 529 l 250 529 l 250 857 z m 960 1257 b 1001 1315 989 1272 1001 1292 b 932 1375 1001 1356 969 1375 b 828 1357 874 1375 853 1369 l 546 1204 b 504 1144 517 1189 504 1169 b 574 1086 504 1106 536 1086 b 678 1104 632 1086 653 1092 z "},"ŕ":{"ha":608,"x_min":0,"x_max":0,"o":"m 419 785 b 60 544 188 785 60 704 l 60 60 b 147 -6 60 7 89 -6 b 236 60 207 -6 236 7 l 236 544 b 419 644 236 608 282 644 l 528 644 b 578 714 569 644 578 668 b 528 785 578 760 569 785 z m 636 1035 b 678 1093 665 1050 678 1069 b 608 1153 678 1133 646 1153 b 504 1135 550 1153 529 1147 l 222 982 b 181 922 193 967 181 947 b 250 864 181 883 213 864 b 354 882 308 864 329 869 z "},"Ŗ":{"ha":1368,"x_min":0,"x_max":0,"o":"m 65 943 l 65 60 b 157 -6 65 7 97 -6 b 250 60 218 -6 250 7 l 250 365 l 1063 14 b 1172 -6 1092 -3 1146 -6 b 1267 60 1233 -6 1267 10 b 1222 122 1267 90 1254 110 l 888 257 b 553 385 676 342 613 363 l 553 388 b 856 382 625 383 692 382 l 911 382 b 1319 607 1163 382 1319 471 l 1319 782 b 911 1007 1319 918 1163 1007 l 131 1007 b 65 943 86 1007 65 986 z m 894 857 b 1136 768 1083 857 1136 818 l 1136 618 b 894 529 1136 568 1083 529 l 250 529 l 250 857 z m 717 -106 b 719 -74 718 -96 719 -83 b 631 -19 719 -32 694 -19 b 535 -75 567 -19 542 -32 l 514 -197 b 508 -242 511 -214 508 -231 b 600 -292 508 -279 536 -292 b 694 -236 663 -292 688 -279 z "},"ŗ":{"ha":608,"x_min":0,"x_max":0,"o":"m 419 785 b 60 544 188 785 60 704 l 60 60 b 147 -6 60 7 89 -6 b 236 60 207 -6 236 7 l 236 544 b 419 644 236 608 282 644 l 528 644 b 578 714 569 644 578 668 b 528 785 578 760 569 785 z m 224 -106 b 226 -74 225 -96 226 -83 b 138 -19 226 -32 201 -19 b 42 -75 74 -19 49 -32 l 21 -197 b 15 -242 18 -214 15 -231 b 107 -292 15 -279 43 -292 b 201 -236 169 -292 194 -279 z "},"Ř":{"ha":1368,"x_min":0,"x_max":0,"o":"m 65 943 l 65 60 b 157 -6 65 7 97 -6 b 250 60 218 -6 250 7 l 250 365 l 1063 14 b 1172 -6 1092 -3 1146 -6 b 1267 60 1233 -6 1267 10 b 1222 122 1267 90 1254 110 l 888 257 b 553 385 676 342 613 363 l 553 388 b 856 382 625 383 692 382 l 911 382 b 1319 607 1163 382 1319 471 l 1319 782 b 911 1007 1319 918 1163 1007 l 131 1007 b 65 943 86 1007 65 986 z m 894 857 b 1136 768 1083 857 1136 818 l 1136 618 b 894 529 1136 568 1083 529 l 250 529 l 250 857 z m 683 1240 l 596 1347 b 519 1375 579 1368 547 1375 b 431 1326 472 1375 431 1356 b 442 1300 431 1319 433 1310 l 594 1119 b 683 1086 613 1097 639 1086 b 772 1119 728 1086 754 1097 l 925 1300 b 936 1326 933 1310 936 1319 b 847 1375 936 1356 894 1375 b 771 1347 819 1375 788 1368 z "},"ř":{"ha":608,"x_min":0,"x_max":0,"o":"m 419 785 b 60 544 188 785 60 704 l 60 60 b 147 -6 60 7 89 -6 b 236 60 207 -6 236 7 l 236 544 b 419 644 236 608 282 644 l 528 644 b 578 714 569 644 578 668 b 528 785 578 760 569 785 z m 360 1018 l 272 1125 b 196 1153 256 1146 224 1153 b 107 1104 149 1153 107 1133 b 118 1078 107 1097 110 1088 l 271 897 b 360 864 289 875 315 864 b 449 897 404 864 431 875 l 601 1078 b 613 1104 610 1088 613 1097 b 524 1153 613 1133 571 1153 b 447 1125 496 1153 464 1146 z "},"Ś":{"ha":1232,"x_min":0,"x_max":0,"o":"m 786 436 b 1010 328 949 436 1010 388 l 1010 258 b 786 150 1010 197 949 150 l 101 150 b 47 75 57 150 47 125 b 101 0 47 25 57 0 l 782 0 b 1193 258 1056 0 1193 85 l 1193 328 b 782 586 1193 500 1056 586 l 454 586 b 231 694 292 586 231 635 l 231 749 b 454 857 231 810 292 857 l 597 857 b 651 932 642 857 651 882 b 597 1007 651 982 642 1007 l 458 1007 b 47 749 185 1007 47 922 l 47 694 b 458 436 47 522 185 436 z m 822 1257 b 864 1315 851 1272 864 1292 b 794 1375 864 1356 832 1375 b 690 1357 736 1375 715 1369 l 408 1204 b 367 1144 379 1189 367 1169 b 436 1086 367 1106 399 1086 b 540 1104 494 1086 515 1092 z "},"ś":{"ha":1096,"x_min":0,"x_max":0,"o":"m 47 536 b 385 331 47 408 161 331 l 696 331 b 879 260 839 331 879 303 l 879 210 b 690 140 879 167 839 140 l 101 140 b 50 71 60 140 50 117 b 101 0 50 24 60 0 l 664 0 b 1057 213 943 0 1057 79 l 1057 257 b 690 468 1057 390 950 468 l 383 468 b 222 539 272 468 222 496 l 222 575 b 376 644 222 618 272 644 l 568 644 b 619 714 610 644 619 668 b 568 785 619 761 610 785 l 378 785 b 47 576 161 785 47 706 z m 754 1035 b 796 1093 783 1050 796 1069 b 726 1153 796 1133 764 1153 b 622 1135 668 1153 647 1147 l 340 982 b 299 922 311 967 299 947 b 368 864 299 883 331 864 b 472 882 426 864 447 869 z "},"Ş":{"ha":1232,"x_min":0,"x_max":0,"o":"m 786 436 b 1010 328 949 436 1010 388 l 1010 258 b 786 150 1010 197 949 150 l 101 150 b 47 75 57 150 47 125 b 101 0 47 25 57 0 l 782 0 b 1193 258 1056 0 1193 85 l 1193 328 b 782 586 1193 500 1056 586 l 454 586 b 231 694 292 586 231 635 l 231 749 b 454 857 231 810 292 857 l 597 857 b 651 932 642 857 651 882 b 597 1007 651 982 642 1007 l 458 1007 b 47 749 185 1007 47 922 l 47 694 b 458 436 47 522 185 436 z m 718 -106 b 721 -74 719 -96 721 -83 b 632 -19 721 -32 696 -19 b 536 -75 568 -19 543 -32 l 515 -197 b 510 -242 513 -214 510 -231 b 601 -292 510 -279 538 -292 b 696 -236 664 -292 689 -279 z "},"ş":{"ha":1096,"x_min":0,"x_max":0,"o":"m 47 536 b 385 331 47 408 161 331 l 696 331 b 879 260 839 331 879 303 l 879 210 b 690 140 879 167 839 140 l 101 140 b 50 71 60 140 50 117 b 101 0 50 24 60 0 l 664 0 b 1057 213 943 0 1057 79 l 1057 257 b 690 468 1057 390 950 468 l 383 468 b 222 539 272 468 222 496 l 222 575 b 376 644 222 618 272 644 l 568 644 b 619 714 610 644 619 668 b 568 785 619 761 610 785 l 378 785 b 47 576 161 785 47 706 z m 650 -106 b 653 -74 651 -96 653 -83 b 564 -19 653 -32 628 -19 b 468 -75 500 -19 475 -32 l 447 -197 b 442 -242 444 -214 442 -231 b 533 -292 442 -279 469 -292 b 628 -236 596 -292 621 -279 z "},"Š":{"ha":1232,"x_min":0,"x_max":0,"o":"m 786 436 b 1010 328 949 436 1010 388 l 1010 258 b 786 150 1010 197 949 150 l 101 150 b 47 75 57 150 47 125 b 101 0 47 25 57 0 l 782 0 b 1193 258 1056 0 1193 85 l 1193 328 b 782 586 1193 500 1056 586 l 454 586 b 231 694 292 586 231 635 l 231 749 b 454 857 231 810 292 857 l 597 857 b 651 932 642 857 651 882 b 597 1007 651 982 642 1007 l 458 1007 b 47 749 185 1007 47 922 l 47 694 b 458 436 47 522 185 436 z m 546 1240 l 458 1347 b 382 1375 442 1368 410 1375 b 293 1326 335 1375 293 1356 b 304 1300 293 1319 296 1310 l 457 1119 b 546 1086 475 1097 501 1086 b 635 1119 590 1086 617 1097 l 788 1300 b 799 1326 796 1310 799 1319 b 710 1375 799 1356 757 1375 b 633 1347 682 1375 650 1368 z "},"š":{"ha":1096,"x_min":0,"x_max":0,"o":"m 47 536 b 385 331 47 408 161 331 l 696 331 b 879 260 839 331 879 303 l 879 210 b 690 140 879 167 839 140 l 101 140 b 50 71 60 140 50 117 b 101 0 50 24 60 0 l 664 0 b 1057 213 943 0 1057 79 l 1057 257 b 690 468 1057 390 950 468 l 383 468 b 222 539 272 468 222 496 l 222 575 b 376 644 222 618 272 644 l 568 644 b 619 714 610 644 619 668 b 568 785 619 761 610 785 l 378 785 b 47 576 161 785 47 706 z m 478 1018 l 390 1125 b 314 1153 374 1146 342 1153 b 225 1104 267 1153 225 1133 b 236 1078 225 1097 228 1088 l 389 897 b 478 864 407 875 433 864 b 567 897 522 864 549 875 l 719 1078 b 731 1104 728 1088 731 1097 b 642 1153 731 1133 689 1153 b 565 1125 614 1153 582 1146 z "},"Ţ":{"ha":1164,"x_min":0,"x_max":0,"o":"m 1093 857 b 1147 932 1138 857 1147 882 b 1093 1007 1147 982 1138 1007 l 71 1007 b 17 932 26 1007 17 982 b 71 857 17 882 26 857 l 489 857 l 489 60 b 581 -6 489 7 521 -6 b 674 60 642 -6 674 7 l 674 857 z m 657 -106 b 660 -74 658 -96 660 -83 b 571 -19 660 -32 635 -19 b 475 -75 507 -19 482 -32 l 454 -197 b 449 -242 451 -214 449 -231 b 540 -292 449 -279 476 -292 b 635 -236 603 -292 628 -279 z "},"ţ":{"ha":682,"x_min":0,"x_max":0,"o":"m 67 785 b 17 714 25 785 17 760 b 67 644 17 668 25 644 l 146 644 l 146 60 b 233 -6 146 7 175 -6 b 322 60 293 -6 322 7 l 322 644 l 615 644 b 665 714 657 644 665 668 b 615 785 665 760 657 785 l 322 785 l 322 947 b 233 1013 322 1000 293 1013 b 146 947 175 1013 146 1000 l 146 785 z m 311 -106 b 314 -74 313 -96 314 -83 b 225 -19 314 -32 289 -19 b 129 -75 161 -19 136 -32 l 108 -197 b 103 -242 106 -214 103 -231 b 194 -292 103 -279 131 -292 b 289 -236 257 -292 282 -279 z "},"Ť":{"ha":1164,"x_min":0,"x_max":0,"o":"m 1093 857 b 1147 932 1138 857 1147 882 b 1093 1007 1147 982 1138 1007 l 71 1007 b 17 932 26 1007 17 982 b 71 857 17 882 26 857 l 489 857 l 489 60 b 581 -6 489 7 521 -6 b 674 60 642 -6 674 7 l 674 857 z m 582 1240 l 494 1347 b 418 1375 478 1368 446 1375 b 329 1326 371 1375 329 1356 b 340 1300 329 1319 332 1310 l 493 1119 b 582 1086 511 1097 538 1086 b 671 1119 626 1086 653 1097 l 824 1300 b 835 1326 832 1310 835 1319 b 746 1375 835 1356 793 1375 b 669 1347 718 1375 686 1368 z "},"ť":{"ha":763,"x_min":0,"x_max":0,"o":"m 67 785 b 17 714 25 785 17 760 b 67 644 17 668 25 644 l 146 644 l 146 60 b 233 -6 146 7 175 -6 b 322 60 293 -6 322 7 l 322 644 l 615 644 b 665 714 657 644 665 668 b 615 785 665 760 657 785 l 322 785 l 322 947 b 233 1013 322 1000 293 1013 b 146 947 175 1013 146 1000 l 146 785 z m 760 1010 b 763 1042 761 1019 763 1032 b 674 1096 763 1083 738 1096 b 578 1040 610 1096 585 1083 l 557 918 b 551 874 554 901 551 885 b 643 824 551 836 579 824 b 738 879 706 824 731 836 z "},"Ŧ":{"ha":1164,"x_min":0,"x_max":0,"o":"m 321 704 b 271 633 279 704 271 679 b 321 564 271 588 279 564 l 489 564 l 489 60 b 581 -6 489 7 521 -6 b 674 60 642 -6 674 7 l 674 564 l 843 564 b 893 633 885 564 893 588 b 843 704 893 679 885 704 l 674 704 l 674 857 l 1093 857 b 1147 932 1138 857 1147 882 b 1093 1007 1147 982 1138 1007 l 71 1007 b 17 932 26 1007 17 982 b 71 857 17 882 26 857 l 489 857 l 489 704 z "},"ŧ":{"ha":682,"x_min":0,"x_max":0,"o":"m 67 544 b 17 474 25 544 17 519 b 67 404 17 428 25 404 l 146 404 l 146 60 b 233 -6 146 7 175 -6 b 322 60 293 -6 322 7 l 322 404 l 615 404 b 665 474 657 404 665 428 b 615 544 665 519 657 544 l 322 544 l 322 644 l 615 644 b 665 714 657 644 665 668 b 615 785 665 760 657 785 l 322 785 l 322 947 b 233 1013 322 1000 293 1013 b 146 947 175 1013 146 1000 l 146 785 l 67 785 b 17 714 25 785 17 760 b 67 644 17 668 25 644 l 146 644 l 146 544 z "},"Ũ":{"ha":1369,"x_min":0,"x_max":0,"o":"m 899 0 b 1310 258 1172 0 1310 86 l 1310 947 b 1218 1013 1310 1000 1278 1013 b 1125 947 1157 1013 1125 1000 l 1125 258 b 893 150 1125 199 1056 150 l 476 150 b 244 258 314 150 244 199 l 244 947 b 151 1013 244 1000 213 1013 b 60 947 92 1013 60 1000 l 60 258 b 471 0 60 86 197 0 z m 421 1261 b 375 1197 382 1261 375 1239 b 421 1133 375 1154 382 1133 l 947 1133 b 993 1197 985 1133 993 1154 b 947 1261 993 1239 985 1261 z "},"ũ":{"ha":1238,"x_min":0,"x_max":0,"o":"m 1090 790 b 1001 725 1031 790 1001 778 l 1001 242 b 779 140 1001 185 935 140 l 458 140 b 236 242 303 140 236 185 l 236 725 b 149 790 236 778 207 790 b 60 725 89 790 60 778 l 60 242 b 453 0 60 79 192 0 l 785 0 b 1178 242 1046 0 1178 79 l 1178 725 b 1090 790 1178 778 1149 790 z m 356 1039 b 310 975 317 1039 310 1017 b 356 911 310 932 317 911 l 882 911 b 928 975 919 911 928 932 b 882 1039 928 1017 919 1039 z "},"Ū":{"ha":1369,"x_min":0,"x_max":0,"o":"m 899 0 b 1310 258 1172 0 1310 86 l 1310 947 b 1218 1013 1310 1000 1278 1013 b 1125 947 1157 1013 1125 1000 l 1125 258 b 893 150 1125 199 1056 150 l 476 150 b 244 258 314 150 244 199 l 244 947 b 151 1013 244 1000 213 1013 b 60 947 92 1013 60 1000 l 60 258 b 471 0 60 86 197 0 z m 421 1261 b 375 1197 382 1261 375 1239 b 421 1133 375 1154 382 1133 l 947 1133 b 993 1197 985 1133 993 1154 b 947 1261 993 1239 985 1261 z "},"ū":{"ha":1238,"x_min":0,"x_max":0,"o":"m 1090 790 b 1001 725 1031 790 1001 778 l 1001 242 b 779 140 1001 185 935 140 l 458 140 b 236 242 303 140 236 185 l 236 725 b 149 790 236 778 207 790 b 60 725 89 790 60 778 l 60 242 b 453 0 60 79 192 0 l 785 0 b 1178 242 1046 0 1178 79 l 1178 725 b 1090 790 1178 778 1149 790 z m 356 1039 b 310 975 317 1039 310 1017 b 356 911 310 932 317 911 l 882 911 b 928 975 919 911 928 932 b 882 1039 928 1017 919 1039 z "},"Ŭ":{"ha":1369,"x_min":0,"x_max":0,"o":"m 899 0 b 1310 258 1172 0 1310 86 l 1310 947 b 1218 1013 1310 1000 1278 1013 b 1125 947 1157 1013 1125 1000 l 1125 258 b 893 150 1125 199 1056 150 l 476 150 b 244 258 314 150 244 199 l 244 947 b 151 1013 244 1000 213 1013 b 60 947 92 1013 60 1000 l 60 258 b 471 0 60 86 197 0 z m 685 1086 b 1003 1311 843 1086 1003 1172 b 915 1375 1003 1360 983 1375 b 831 1338 875 1375 846 1369 b 685 1215 804 1282 772 1215 b 539 1338 597 1215 565 1282 b 454 1375 524 1369 494 1375 b 367 1311 386 1375 367 1360 b 685 1086 367 1172 526 1086 z "},"ŭ":{"ha":1238,"x_min":0,"x_max":0,"o":"m 1090 790 b 1001 725 1031 790 1001 778 l 1001 242 b 779 140 1001 185 935 140 l 458 140 b 236 242 303 140 236 185 l 236 725 b 149 790 236 778 207 790 b 60 725 89 790 60 778 l 60 242 b 453 0 60 79 192 0 l 785 0 b 1178 242 1046 0 1178 79 l 1178 725 b 1090 790 1178 778 1149 790 z m 618 864 b 936 1089 776 864 936 950 b 849 1153 936 1138 917 1153 b 764 1115 808 1153 779 1147 b 618 993 738 1060 706 993 b 472 1115 531 993 499 1060 b 388 1153 457 1147 428 1153 b 300 1089 319 1153 300 1138 b 618 864 300 950 460 864 z "},"Ů":{"ha":1369,"x_min":0,"x_max":0,"o":"m 899 0 b 1310 258 1172 0 1310 86 l 1310 947 b 1218 1013 1310 1000 1278 1013 b 1125 947 1157 1013 1125 1000 l 1125 258 b 893 150 1125 199 1056 150 l 476 150 b 244 258 314 150 244 199 l 244 947 b 151 1013 244 1000 213 1013 b 60 947 92 1013 60 1000 l 60 258 b 471 0 60 86 197 0 z m 871 1233 b 707 1375 871 1350 825 1375 l 663 1375 b 499 1233 544 1375 499 1350 l 499 1183 b 663 1042 499 1067 544 1042 l 707 1042 b 871 1183 825 1042 871 1067 z m 671 1121 b 590 1183 600 1121 590 1129 l 590 1233 b 671 1296 590 1288 600 1296 l 699 1296 b 779 1233 769 1296 779 1288 l 779 1183 b 699 1121 779 1129 769 1121 z "},"ů":{"ha":1238,"x_min":0,"x_max":0,"o":"m 1090 790 b 1001 725 1031 790 1001 778 l 1001 242 b 779 140 1001 185 935 140 l 458 140 b 236 242 303 140 236 185 l 236 725 b 149 790 236 778 207 790 b 60 725 89 790 60 778 l 60 242 b 453 0 60 79 192 0 l 785 0 b 1178 242 1046 0 1178 79 l 1178 725 b 1090 790 1178 778 1149 790 z m 804 1011 b 640 1153 804 1128 758 1153 l 596 1153 b 432 1011 478 1153 432 1128 l 432 961 b 596 819 432 844 478 819 l 640 819 b 804 961 758 819 804 844 z m 604 899 b 524 961 533 899 524 907 l 524 1011 b 604 1074 524 1065 533 1074 l 632 1074 b 713 1011 703 1074 713 1065 l 713 961 b 632 899 713 907 703 899 z "},"Ű":{"ha":1369,"x_min":0,"x_max":0,"o":"m 899 0 b 1310 258 1172 0 1310 86 l 1310 947 b 1218 1013 1310 1000 1278 1013 b 1125 947 1157 1013 1125 1000 l 1125 258 b 893 150 1125 199 1056 150 l 476 150 b 244 258 314 150 244 199 l 244 947 b 151 1013 244 1000 213 1013 b 60 947 92 1013 60 1000 l 60 258 b 471 0 60 86 197 0 z m 1085 1257 b 1117 1317 1107 1272 1117 1290 b 1053 1375 1117 1356 1096 1375 b 981 1357 1031 1375 1000 1369 l 761 1204 b 728 1143 738 1188 728 1169 b 794 1086 728 1106 747 1086 b 864 1104 824 1086 847 1093 z m 747 1257 b 781 1315 772 1274 781 1290 b 714 1375 781 1361 754 1375 b 644 1357 685 1375 661 1368 l 424 1204 b 392 1144 401 1189 392 1169 b 446 1086 392 1106 417 1086 b 528 1104 492 1086 508 1090 z "},"ű":{"ha":1238,"x_min":0,"x_max":0,"o":"m 1090 790 b 1001 725 1031 790 1001 778 l 1001 242 b 779 140 1001 185 935 140 l 458 140 b 236 242 303 140 236 185 l 236 725 b 149 790 236 778 207 790 b 60 725 89 790 60 778 l 60 242 b 453 0 60 79 192 0 l 785 0 b 1178 242 1046 0 1178 79 l 1178 725 b 1090 790 1178 778 1149 790 z m 1018 1035 b 1050 1094 1040 1050 1050 1068 b 986 1153 1050 1133 1029 1153 b 914 1135 964 1153 933 1147 l 694 982 b 661 921 671 965 661 947 b 728 864 661 883 681 864 b 797 882 757 864 781 871 z m 681 1035 b 714 1093 706 1051 714 1068 b 647 1153 714 1139 688 1153 b 578 1135 618 1153 594 1146 l 357 982 b 325 922 335 967 325 947 b 379 864 325 883 350 864 b 461 882 425 864 442 868 z "},"Ų":{"ha":1369,"x_min":0,"x_max":0,"o":"m 843 -161 l 679 -161 b 642 -129 650 -161 642 -154 l 642 -108 b 863 0 642 -75 688 -57 l 899 0 b 1310 258 1172 0 1310 86 l 1310 947 b 1218 1013 1310 1000 1278 1013 b 1125 947 1157 1013 1125 1000 l 1125 258 b 893 150 1125 199 1056 150 l 476 150 b 244 258 314 150 244 199 l 244 947 b 151 1013 244 1000 213 1013 b 60 947 92 1013 60 1000 l 60 258 b 471 0 60 86 197 0 l 714 0 b 478 -153 529 -36 478 -76 l 478 -186 b 635 -292 478 -228 508 -292 l 843 -292 b 890 -225 882 -292 890 -268 b 843 -161 890 -183 882 -161 z "},"ų":{"ha":1238,"x_min":0,"x_max":0,"o":"m 729 -161 l 565 -161 b 528 -129 536 -161 528 -154 l 528 -108 b 750 0 528 -75 574 -57 l 785 0 b 1178 242 1046 0 1178 79 l 1178 725 b 1090 790 1178 778 1149 790 b 1001 725 1031 790 1001 778 l 1001 242 b 779 140 1001 185 935 140 l 458 140 b 236 242 303 140 236 185 l 236 725 b 149 790 236 778 207 790 b 60 725 89 790 60 778 l 60 242 b 453 0 60 79 192 0 l 600 0 b 364 -153 415 -36 364 -76 l 364 -186 b 521 -292 364 -228 394 -292 l 729 -292 b 776 -225 768 -292 776 -268 b 729 -161 776 -183 768 -161 z "},"Ŵ":{"ha":1932,"x_min":0,"x_max":0,"o":"m 961 768 l 1289 54 b 1399 -6 1308 13 1349 -6 b 1513 58 1453 -6 1493 15 l 1907 915 b 1915 947 1913 926 1915 938 b 1814 1013 1915 988 1872 1013 b 1735 971 1771 1013 1747 999 l 1401 208 l 1065 943 b 965 1013 1042 996 1024 1013 b 860 943 910 1013 885 997 l 522 208 l 197 971 b 118 1013 185 999 161 1013 b 17 947 60 1013 17 988 b 25 915 17 938 19 926 l 411 58 b 525 -6 431 14 471 -6 b 632 54 578 -6 614 14 z m 965 1221 l 1053 1114 b 1129 1086 1069 1093 1101 1086 b 1218 1135 1176 1086 1218 1106 b 1207 1161 1218 1142 1215 1151 l 1054 1342 b 965 1375 1036 1364 1010 1375 b 876 1342 921 1375 894 1364 l 724 1161 b 713 1135 715 1151 713 1142 b 801 1086 713 1106 754 1086 b 878 1114 829 1086 861 1093 z "},"ŵ":{"ha":1644,"x_min":0,"x_max":0,"o":"m 824 583 l 1090 42 b 1192 -6 1107 8 1146 -6 b 1294 44 1240 -6 1278 10 l 1622 714 b 1631 740 1628 724 1631 732 b 1535 790 1631 771 1592 790 b 1458 758 1494 790 1468 781 l 1193 175 l 913 736 b 826 790 893 774 882 790 b 736 736 779 790 758 778 l 444 175 l 185 758 b 110 790 175 781 150 790 b 14 740 53 790 14 771 b 22 714 14 732 17 724 l 342 44 b 446 -6 358 10 396 -6 b 546 42 496 -6 529 10 z m 822 999 l 910 892 b 986 864 926 871 958 864 b 1075 913 1033 864 1075 883 b 1064 939 1075 919 1072 929 l 911 1119 b 822 1153 893 1142 867 1153 b 733 1119 778 1153 751 1142 l 581 939 b 569 913 572 929 569 919 b 658 864 569 883 611 864 b 735 892 686 864 718 871 z "},"Ŷ":{"ha":1276,"x_min":0,"x_max":0,"o":"m 546 417 l 546 60 b 638 -6 546 7 578 -6 b 731 60 699 -6 731 7 l 731 417 l 1232 901 b 1261 957 1250 918 1261 939 b 1161 1013 1261 988 1231 1013 b 1083 986 1121 1013 1101 1004 l 639 553 l 193 986 b 115 1013 174 1004 156 1013 b 15 957 44 1013 15 986 b 44 901 15 939 26 918 z m 638 1221 l 725 1114 b 801 1086 742 1093 774 1086 b 890 1135 849 1086 890 1106 b 879 1161 890 1142 888 1151 l 726 1342 b 638 1375 708 1364 682 1375 b 549 1342 593 1375 567 1364 l 396 1161 b 385 1135 388 1151 385 1142 b 474 1086 385 1106 426 1086 b 550 1114 501 1086 533 1093 z "},"ŷ":{"ha":1222,"x_min":0,"x_max":0,"o":"m 458 160 b 236 260 303 160 236 203 l 236 725 b 147 790 236 778 207 790 b 60 725 89 790 60 778 l 60 261 b 453 19 60 99 192 19 l 981 19 l 981 13 b 797 -87 981 -51 935 -87 l 606 -87 b 556 -157 564 -87 556 -111 b 606 -228 556 -203 564 -228 l 797 -228 b 1157 13 1029 -228 1157 -147 l 1157 725 b 1068 790 1157 778 1128 790 b 981 725 1010 790 981 778 l 981 160 z m 611 999 l 699 892 b 775 864 715 871 747 864 b 864 913 822 864 864 883 b 853 939 864 919 861 929 l 700 1119 b 611 1153 682 1142 656 1153 b 522 1119 567 1153 540 1142 l 369 939 b 358 913 361 929 358 919 b 447 864 358 883 400 864 b 524 892 475 864 507 871 z "},"Ÿ":{"ha":1276,"x_min":0,"x_max":0,"o":"m 546 417 l 546 60 b 638 -6 546 7 578 -6 b 731 60 699 -6 731 7 l 731 417 l 1232 901 b 1261 957 1250 918 1261 939 b 1161 1013 1261 988 1231 1013 b 1083 986 1121 1013 1101 1004 l 639 553 l 193 986 b 115 1013 174 1004 156 1013 b 15 957 44 1013 15 986 b 44 901 15 939 26 918 z m 688 1190 b 797 1104 688 1131 719 1104 b 907 1190 875 1104 907 1131 b 797 1276 907 1250 875 1276 b 688 1190 719 1276 688 1250 z m 368 1190 b 478 1104 368 1131 400 1104 b 588 1190 556 1104 588 1131 b 478 1276 588 1250 556 1276 b 368 1190 400 1276 368 1250 z "},"Ź":{"ha":1233,"x_min":0,"x_max":0,"o":"m 1115 0 b 1169 75 1160 0 1169 25 b 1115 150 1169 125 1160 150 l 278 150 l 1128 882 b 1172 950 1160 910 1172 922 b 1086 1007 1172 1001 1126 1007 b 990 982 1044 1007 1013 1001 l 54 161 b 25 96 35 144 25 128 b 178 0 25 21 79 0 z m 963 1257 b 1004 1315 992 1272 1004 1292 b 935 1375 1004 1356 972 1375 b 831 1357 876 1375 856 1369 l 549 1204 b 507 1144 519 1189 507 1169 b 576 1086 507 1106 539 1086 b 681 1104 635 1086 656 1092 z "},"ź":{"ha":1201,"x_min":0,"x_max":0,"o":"m 1081 693 b 1122 746 1110 714 1122 724 b 1028 790 1122 786 1079 790 b 926 771 976 790 947 786 l 71 136 b 36 72 44 117 36 97 b 171 0 36 22 71 0 l 1092 0 b 1142 69 1133 0 1142 24 b 1092 140 1142 115 1133 140 l 322 140 z m 946 1035 b 988 1093 975 1050 988 1069 b 918 1153 988 1133 956 1153 b 814 1135 860 1153 839 1147 l 532 982 b 490 922 503 967 490 947 b 560 864 490 883 522 864 b 664 882 618 864 639 869 z "},"Ż":{"ha":1233,"x_min":0,"x_max":0,"o":"m 1115 0 b 1169 75 1160 0 1169 25 b 1115 150 1169 125 1160 150 l 278 150 l 1128 882 b 1172 950 1160 910 1172 922 b 1086 1007 1172 1001 1126 1007 b 990 982 1044 1007 1013 1001 l 54 161 b 25 96 35 144 25 128 b 178 0 25 21 79 0 z m 576 1190 b 686 1104 576 1131 608 1104 b 796 1190 764 1104 796 1131 b 686 1276 796 1250 764 1276 b 576 1190 608 1276 576 1250 z "},"ż":{"ha":1201,"x_min":0,"x_max":0,"o":"m 1081 693 b 1122 746 1110 714 1122 724 b 1028 790 1122 786 1079 790 b 926 771 976 790 947 786 l 71 136 b 36 72 44 117 36 97 b 171 0 36 22 71 0 l 1092 0 b 1142 69 1133 0 1142 24 b 1092 140 1142 115 1133 140 l 322 140 z m 560 968 b 669 882 560 908 592 882 b 779 968 747 882 779 908 b 669 1054 779 1028 747 1054 b 560 968 592 1054 560 1028 z "},"Ž":{"ha":1233,"x_min":0,"x_max":0,"o":"m 1115 0 b 1169 75 1160 0 1169 25 b 1115 150 1169 125 1160 150 l 278 150 l 1128 882 b 1172 950 1160 910 1172 922 b 1086 1007 1172 1001 1126 1007 b 990 982 1044 1007 1013 1001 l 54 161 b 25 96 35 144 25 128 b 178 0 25 21 79 0 z m 686 1240 l 599 1347 b 522 1375 582 1368 550 1375 b 433 1326 475 1375 433 1356 b 444 1300 433 1319 436 1310 l 597 1119 b 686 1086 615 1097 642 1086 b 775 1119 731 1086 757 1097 l 928 1300 b 939 1326 936 1310 939 1319 b 850 1375 939 1356 897 1375 b 774 1347 822 1375 790 1368 z "},"ž":{"ha":1201,"x_min":0,"x_max":0,"o":"m 1081 693 b 1122 746 1110 714 1122 724 b 1028 790 1122 786 1079 790 b 926 771 976 790 947 786 l 71 136 b 36 72 44 117 36 97 b 171 0 36 22 71 0 l 1092 0 b 1142 69 1133 0 1142 24 b 1092 140 1142 115 1133 140 l 322 140 z m 669 1018 l 582 1125 b 506 1153 565 1146 533 1153 b 417 1104 458 1153 417 1133 b 428 1078 417 1097 419 1088 l 581 897 b 669 864 599 875 625 864 b 758 897 714 864 740 875 l 911 1078 b 922 1104 919 1088 922 1097 b 833 1153 922 1133 881 1153 b 757 1125 806 1153 774 1146 z "},"ƒ":{"ha":658,"x_min":0,"x_max":0,"o":"m 532 1007 b 240 767 368 1007 240 926 l 240 632 l 93 632 b 43 561 51 632 43 607 b 93 492 43 515 51 492 l 240 492 l 240 13 b 125 -87 240 -51 194 -87 l 68 -87 b 18 -157 26 -87 18 -111 b 68 -228 18 -203 26 -228 l 125 -228 b 417 13 289 -228 417 -147 l 417 492 l 575 492 b 625 561 617 492 625 515 b 575 632 625 607 617 632 l 417 632 l 417 767 b 532 867 417 831 463 867 l 589 867 b 639 936 631 867 639 890 b 589 1007 639 982 631 1007 z "},"Ș":{"ha":1232,"x_min":0,"x_max":0,"o":"m 786 436 b 1010 328 949 436 1010 388 l 1010 258 b 786 150 1010 197 949 150 l 101 150 b 47 75 57 150 47 125 b 101 0 47 25 57 0 l 782 0 b 1193 258 1056 0 1193 85 l 1193 328 b 782 586 1193 500 1056 586 l 454 586 b 231 694 292 586 231 635 l 231 749 b 454 857 231 810 292 857 l 597 857 b 651 932 642 857 651 882 b 597 1007 651 982 642 1007 l 458 1007 b 47 749 185 1007 47 922 l 47 694 b 458 436 47 522 185 436 z m 718 -106 b 721 -74 719 -96 721 -83 b 632 -19 721 -32 696 -19 b 536 -75 568 -19 543 -32 l 515 -197 b 510 -242 513 -214 510 -231 b 601 -292 510 -279 538 -292 b 696 -236 664 -292 689 -279 z "},"ș":{"ha":1096,"x_min":0,"x_max":0,"o":"m 47 536 b 385 331 47 408 161 331 l 696 331 b 879 260 839 331 879 303 l 879 210 b 690 140 879 167 839 140 l 101 140 b 50 71 60 140 50 117 b 101 0 50 24 60 0 l 664 0 b 1057 213 943 0 1057 79 l 1057 257 b 690 468 1057 390 950 468 l 383 468 b 222 539 272 468 222 496 l 222 575 b 376 644 222 618 272 644 l 568 644 b 619 714 610 644 619 668 b 568 785 619 761 610 785 l 378 785 b 47 576 161 785 47 706 z m 650 -106 b 653 -74 651 -96 653 -83 b 564 -19 653 -32 628 -19 b 468 -75 500 -19 475 -32 l 447 -197 b 442 -242 444 -214 442 -231 b 533 -292 442 -279 469 -292 b 628 -236 596 -292 621 -279 z "},"Ț":{"ha":1164,"x_min":0,"x_max":0,"o":"m 1093 857 b 1147 932 1138 857 1147 882 b 1093 1007 1147 982 1138 1007 l 71 1007 b 17 932 26 1007 17 982 b 71 857 17 882 26 857 l 489 857 l 489 60 b 581 -6 489 7 521 -6 b 674 60 642 -6 674 7 l 674 857 z m 657 -106 b 660 -74 658 -96 660 -83 b 571 -19 660 -32 635 -19 b 475 -75 507 -19 482 -32 l 454 -197 b 449 -242 451 -214 449 -231 b 540 -292 449 -279 476 -292 b 635 -236 603 -292 628 -279 z "},"ț":{"ha":682,"x_min":0,"x_max":0,"o":"m 67 785 b 17 714 25 785 17 760 b 67 644 17 668 25 644 l 146 644 l 146 60 b 233 -6 146 7 175 -6 b 322 60 293 -6 322 7 l 322 644 l 615 644 b 665 714 657 644 665 668 b 615 785 665 760 657 785 l 322 785 l 322 947 b 233 1013 322 1000 293 1013 b 146 947 175 1013 146 1000 l 146 785 z m 311 -106 b 314 -74 313 -96 314 -83 b 225 -19 314 -32 289 -19 b 129 -75 161 -19 136 -32 l 108 -197 b 103 -242 106 -214 103 -231 b 194 -292 103 -279 131 -292 b 289 -236 257 -292 282 -279 z "},"ˆ":{"ha":611,"x_min":0,"x_max":0,"o":"m 306 999 l 393 892 b 469 864 410 871 442 864 b 558 913 517 864 558 883 b 547 939 558 919 556 929 l 394 1119 b 306 1153 376 1142 350 1153 b 217 1119 261 1153 235 1142 l 64 939 b 53 913 56 929 53 919 b 142 864 53 883 94 864 b 218 892 169 864 201 871 z "},"ˇ":{"ha":611,"x_min":0,"x_max":0,"o":"m 306 1018 l 218 1125 b 142 1153 201 1146 169 1153 b 53 1104 94 1153 53 1133 b 64 1078 53 1097 56 1088 l 217 897 b 306 864 235 875 261 864 b 394 897 350 864 376 875 l 547 1078 b 558 1104 556 1088 558 1097 b 469 1153 558 1133 517 1153 b 393 1125 442 1153 410 1146 z "},"˘":{"ha":742,"x_min":0,"x_max":0,"o":"m 371 864 b 689 1089 529 864 689 950 b 601 1153 689 1138 669 1153 b 517 1115 561 1153 532 1147 b 371 993 490 1060 458 993 b 225 1115 283 993 251 1060 b 140 1153 210 1147 181 1153 b 53 1089 72 1153 53 1138 b 371 864 53 950 213 864 z "},"˙":{"ha":325,"x_min":0,"x_max":0,"o":"m 53 968 b 163 882 53 908 85 882 b 272 968 240 882 272 908 b 163 1054 272 1028 240 1054 b 53 968 85 1054 53 1028 z "},"˚":{"ha":478,"x_min":0,"x_max":0,"o":"m 425 1011 b 261 1153 425 1128 379 1153 l 217 1153 b 53 1011 99 1153 53 1128 l 53 961 b 217 819 53 844 99 819 l 261 819 b 425 961 379 819 425 844 z m 225 899 b 144 961 154 899 144 907 l 144 1011 b 225 1074 144 1065 154 1074 l 253 1074 b 333 1011 324 1074 333 1065 l 333 961 b 253 899 333 907 324 899 z "},"˛":{"ha":518,"x_min":0,"x_max":0,"o":"m 418 -161 l 254 -161 b 217 -129 225 -161 217 -154 l 217 -108 b 381 -21 217 -75 263 -57 b 429 0 414 -11 418 -8 l 289 0 b 53 -153 104 -36 53 -76 l 53 -186 b 210 -292 53 -228 83 -292 l 418 -292 b 465 -225 457 -292 465 -268 b 418 -161 465 -183 457 -161 z "},"˜":{"ha":724,"x_min":0,"x_max":0,"o":"m 99 1039 b 53 975 60 1039 53 1017 b 99 911 53 932 60 911 l 625 911 b 671 975 663 911 671 932 b 625 1039 671 1017 663 1039 z "},"˝":{"ha":831,"x_min":0,"x_max":0,"o":"m 746 1035 b 778 1094 768 1050 778 1068 b 714 1153 778 1133 757 1153 b 642 1135 692 1153 661 1147 l 422 982 b 389 921 399 965 389 947 b 456 864 389 883 408 864 b 525 882 485 864 508 871 z m 408 1035 b 442 1093 433 1051 442 1068 b 375 1153 442 1139 415 1153 b 306 1135 346 1153 322 1146 l 85 982 b 53 922 63 967 53 947 b 107 864 53 883 78 864 b 189 882 153 864 169 868 z "},"Δ":{"ha":1489,"x_min":0,"x_max":0,"o":"m 121 0 l 1365 0 b 1472 74 1414 0 1472 33 b 1461 106 1472 85 1468 94 l 850 964 b 742 1013 828 996 796 1013 b 632 964 688 1013 654 996 l 28 106 b 17 75 21 97 17 86 b 121 0 17 32 75 0 z m 738 835 l 1217 150 l 263 150 z "},"Ω":{"ha":1229,"x_min":0,"x_max":0,"o":"m 750 875 b 1011 617 946 874 1011 813 b 808 125 1011 351 890 256 b 792 76 796 104 792 94 b 849 0 792 25 811 0 l 1118 0 b 1183 72 1161 0 1183 13 b 1118 150 1183 131 1161 150 l 975 150 b 1182 618 1099 285 1182 381 b 751 1013 1182 911 1054 1011 l 482 1013 b 46 618 175 1013 46 913 b 253 150 46 381 129 285 l 110 150 b 44 72 67 150 44 131 b 110 0 44 13 67 0 l 379 0 b 436 76 417 0 436 25 b 419 125 436 94 432 104 b 217 617 335 258 217 354 b 482 875 217 814 283 875 z "},"μ":{"ha":1228,"x_min":0,"x_max":0,"o":"m 153 790 b 65 725 94 790 65 778 l 65 -174 b 153 -239 65 -226 94 -239 b 242 -174 213 -239 242 -226 l 242 0 l 775 0 b 1168 242 1036 0 1168 79 l 1168 725 b 1079 790 1168 778 1139 790 b 992 725 1021 790 992 778 l 992 242 b 769 140 992 185 925 140 l 242 140 l 242 725 b 153 790 242 778 213 790 z "},"π":{"ha":1115,"x_min":0,"x_max":0,"o":"m 981 785 l 133 785 b 75 724 90 785 75 765 l 75 60 b 163 -6 75 7 104 -6 b 251 60 222 -6 251 7 l 251 644 l 863 644 l 863 60 b 951 -6 863 7 892 -6 b 1039 60 1010 -6 1039 7 l 1039 724 b 981 785 1039 765 1024 785 z "},"Ẁ":{"ha":1932,"x_min":0,"x_max":0,"o":"m 961 768 l 1289 54 b 1399 -6 1308 13 1349 -6 b 1513 58 1453 -6 1493 15 l 1907 915 b 1915 947 1913 926 1915 938 b 1814 1013 1915 988 1872 1013 b 1735 971 1771 1013 1747 999 l 1401 208 l 1065 943 b 965 1013 1042 996 1024 1013 b 860 943 910 1013 885 997 l 522 208 l 197 971 b 118 1013 185 999 161 1013 b 17 947 60 1013 17 988 b 25 915 17 938 19 926 l 411 58 b 525 -6 431 14 471 -6 b 632 54 578 -6 614 14 z m 971 1104 b 1075 1086 996 1092 1017 1086 b 1144 1144 1113 1086 1144 1106 b 1103 1204 1144 1169 1132 1189 l 821 1357 b 717 1375 796 1369 775 1375 b 647 1315 679 1375 647 1356 b 689 1257 647 1292 660 1272 z "},"ẁ":{"ha":1644,"x_min":0,"x_max":0,"o":"m 824 583 l 1090 42 b 1192 -6 1107 8 1146 -6 b 1294 44 1240 -6 1278 10 l 1622 714 b 1631 740 1628 724 1631 732 b 1535 790 1631 771 1592 790 b 1458 758 1494 790 1468 781 l 1193 175 l 913 736 b 826 790 893 774 882 790 b 736 736 779 790 758 778 l 444 175 l 185 758 b 110 790 175 781 150 790 b 14 740 53 790 14 771 b 22 714 14 732 17 724 l 342 44 b 446 -6 358 10 396 -6 b 546 42 496 -6 529 10 z m 828 882 b 932 864 853 869 874 864 b 1001 922 969 864 1001 883 b 960 982 1001 947 989 967 l 678 1135 b 574 1153 653 1147 632 1153 b 504 1093 536 1153 504 1133 b 546 1035 504 1069 517 1050 z "},"Ẃ":{"ha":1932,"x_min":0,"x_max":0,"o":"m 961 768 l 1289 54 b 1399 -6 1308 13 1349 -6 b 1513 58 1453 -6 1493 15 l 1907 915 b 1915 947 1913 926 1915 938 b 1814 1013 1915 988 1872 1013 b 1735 971 1771 1013 1747 999 l 1401 208 l 1065 943 b 965 1013 1042 996 1024 1013 b 860 943 910 1013 885 997 l 522 208 l 197 971 b 118 1013 185 999 161 1013 b 17 947 60 1013 17 988 b 25 915 17 938 19 926 l 411 58 b 525 -6 431 14 471 -6 b 632 54 578 -6 614 14 z m 1242 1257 b 1283 1315 1271 1272 1283 1292 b 1214 1375 1283 1356 1251 1375 b 1110 1357 1156 1375 1135 1369 l 828 1204 b 786 1144 799 1189 786 1169 b 856 1086 786 1106 818 1086 b 960 1104 914 1086 935 1092 z "},"ẃ":{"ha":1644,"x_min":0,"x_max":0,"o":"m 824 583 l 1090 42 b 1192 -6 1107 8 1146 -6 b 1294 44 1240 -6 1278 10 l 1622 714 b 1631 740 1628 724 1631 732 b 1535 790 1631 771 1592 790 b 1458 758 1494 790 1468 781 l 1193 175 l 913 736 b 826 790 893 774 882 790 b 736 736 779 790 758 778 l 444 175 l 185 758 b 110 790 175 781 150 790 b 14 740 53 790 14 771 b 22 714 14 732 17 724 l 342 44 b 446 -6 358 10 396 -6 b 546 42 496 -6 529 10 z m 1099 1035 b 1140 1093 1128 1050 1140 1069 b 1071 1153 1140 1133 1108 1153 b 967 1135 1013 1153 992 1147 l 685 982 b 643 922 656 967 643 947 b 713 864 643 883 675 864 b 817 882 771 864 792 869 z "},"Ẅ":{"ha":1932,"x_min":0,"x_max":0,"o":"m 961 768 l 1289 54 b 1399 -6 1308 13 1349 -6 b 1513 58 1453 -6 1493 15 l 1907 915 b 1915 947 1913 926 1915 938 b 1814 1013 1915 988 1872 1013 b 1735 971 1771 1013 1747 999 l 1401 208 l 1065 943 b 965 1013 1042 996 1024 1013 b 860 943 910 1013 885 997 l 522 208 l 197 971 b 118 1013 185 999 161 1013 b 17 947 60 1013 17 988 b 25 915 17 938 19 926 l 411 58 b 525 -6 431 14 471 -6 b 632 54 578 -6 614 14 z m 1015 1190 b 1125 1104 1015 1131 1047 1104 b 1235 1190 1203 1104 1235 1131 b 1125 1276 1235 1250 1203 1276 b 1015 1190 1047 1276 1015 1250 z m 696 1190 b 806 1104 696 1131 728 1104 b 915 1190 883 1104 915 1131 b 806 1276 915 1250 883 1276 b 696 1190 728 1276 696 1250 z "},"ẅ":{"ha":1644,"x_min":0,"x_max":0,"o":"m 824 583 l 1090 42 b 1192 -6 1107 8 1146 -6 b 1294 44 1240 -6 1278 10 l 1622 714 b 1631 740 1628 724 1631 732 b 1535 790 1631 771 1592 790 b 1458 758 1494 790 1468 781 l 1193 175 l 913 736 b 826 790 893 774 882 790 b 736 736 779 790 758 778 l 444 175 l 185 758 b 110 790 175 781 150 790 b 14 740 53 790 14 771 b 22 714 14 732 17 724 l 342 44 b 446 -6 358 10 396 -6 b 546 42 496 -6 529 10 z m 872 968 b 982 882 872 908 904 882 b 1092 968 1060 882 1092 908 b 982 1054 1092 1028 1060 1054 b 872 968 904 1054 872 1028 z m 553 968 b 663 882 553 908 585 882 b 772 968 740 882 772 908 b 663 1054 772 1028 740 1054 b 553 968 585 1054 553 1028 z "},"Ỳ":{"ha":1276,"x_min":0,"x_max":0,"o":"m 546 417 l 546 60 b 638 -6 546 7 578 -6 b 731 60 699 -6 731 7 l 731 417 l 1232 901 b 1261 957 1250 918 1261 939 b 1161 1013 1261 988 1231 1013 b 1083 986 1121 1013 1101 1004 l 639 553 l 193 986 b 115 1013 174 1004 156 1013 b 15 957 44 1013 15 986 b 44 901 15 939 26 918 z m 643 1104 b 747 1086 668 1092 689 1086 b 817 1144 785 1086 817 1106 b 775 1204 817 1169 804 1189 l 493 1357 b 389 1375 468 1369 447 1375 b 319 1315 351 1375 319 1356 b 361 1257 319 1292 332 1272 z "},"ỳ":{"ha":1222,"x_min":0,"x_max":0,"o":"m 458 160 b 236 260 303 160 236 203 l 236 725 b 147 790 236 778 207 790 b 60 725 89 790 60 778 l 60 261 b 453 19 60 99 192 19 l 981 19 l 981 13 b 797 -87 981 -51 935 -87 l 606 -87 b 556 -157 564 -87 556 -111 b 606 -228 556 -203 564 -228 l 797 -228 b 1157 13 1029 -228 1157 -147 l 1157 725 b 1068 790 1157 778 1128 790 b 981 725 1010 790 981 778 l 981 160 z m 617 882 b 721 864 642 869 663 864 b 790 922 758 864 790 883 b 749 982 790 947 778 967 l 467 1135 b 363 1153 442 1147 421 1153 b 293 1093 325 1153 293 1133 b 335 1035 293 1069 306 1050 z "},"–":{"ha":815,"x_min":0,"x_max":0,"o":"m 67 567 b 17 496 25 567 17 542 b 67 426 17 450 25 426 l 749 426 b 799 496 790 426 799 450 b 749 567 799 542 790 567 z "},"—":{"ha":1053,"x_min":0,"x_max":0,"o":"m 54 567 b 4 496 13 567 4 542 b 54 426 4 450 13 426 l 999 426 b 1049 496 1040 426 1049 450 b 999 567 1049 542 1040 567 z "},"‘":{"ha":271,"x_min":0,"x_max":0,"o":"m 63 710 b 158 654 69 667 94 654 b 249 704 221 654 249 667 b 243 749 249 715 246 732 l 207 972 b 111 1028 200 1015 175 1028 b 22 974 47 1028 22 1015 b 25 942 22 964 24 951 z "},"’":{"ha":271,"x_min":0,"x_max":0,"o":"m 246 942 b 249 974 247 951 249 964 b 160 1028 249 1015 224 1028 b 64 972 96 1028 71 1015 l 28 749 b 22 704 25 732 22 715 b 113 654 22 667 50 654 b 208 710 176 654 201 667 z "},"‚":{"ha":271,"x_min":0,"x_max":0,"o":"m 246 157 b 249 189 247 167 249 179 b 160 243 249 231 224 243 b 64 188 96 243 71 231 l 28 -36 b 22 -81 25 -53 22 -69 b 113 -131 22 -118 50 -131 b 208 -75 176 -131 201 -118 z m 246 157 b 249 189 247 167 249 179 b 160 243 249 231 224 243 b 64 188 96 243 71 231 l 28 -36 b 22 -81 25 -53 22 -69 b 113 -131 22 -118 50 -131 b 208 -75 176 -131 201 -118 z "},"“":{"ha":521,"x_min":0,"x_max":0,"o":"m 63 710 b 158 654 69 667 94 654 b 249 704 221 654 249 667 b 243 749 249 715 246 732 l 207 972 b 111 1028 200 1015 175 1028 b 22 974 47 1028 22 1015 b 25 942 22 964 24 951 z m 313 710 b 408 654 319 667 344 654 b 499 704 471 654 499 667 b 493 749 499 715 496 732 l 457 972 b 361 1028 450 1015 425 1028 b 272 974 297 1028 272 1015 b 275 942 272 964 274 951 z "},"”":{"ha":521,"x_min":0,"x_max":0,"o":"m 496 942 b 499 974 497 951 499 964 b 410 1028 499 1015 474 1028 b 314 972 346 1028 321 1015 l 278 749 b 272 704 275 732 272 715 b 363 654 272 667 300 654 b 458 710 426 654 451 667 z m 246 942 b 249 974 247 951 249 964 b 160 1028 249 1015 224 1028 b 64 972 96 1028 71 1015 l 28 749 b 22 704 25 732 22 715 b 113 654 22 667 50 654 b 208 710 176 654 201 667 z "},"„":{"ha":521,"x_min":0,"x_max":0,"o":"m 496 157 b 499 189 497 167 499 179 b 410 243 499 231 474 243 b 314 188 346 243 321 231 l 278 -36 b 272 -81 275 -53 272 -69 b 363 -131 272 -118 300 -131 b 458 -75 426 -131 451 -118 z m 246 157 b 249 189 247 167 249 179 b 160 243 249 231 224 243 b 64 188 96 243 71 231 l 28 -36 b 22 -81 25 -53 22 -69 b 113 -131 22 -118 50 -131 b 208 -75 176 -131 201 -118 z "},"†":{"ha":631,"x_min":0,"x_max":0,"o":"m 393 657 l 515 657 b 565 713 549 657 565 675 b 515 769 565 750 549 769 l 404 769 l 404 931 b 315 1013 404 986 374 1013 b 225 931 256 1013 225 986 l 225 769 l 118 769 b 65 713 82 769 65 750 b 118 657 65 675 82 657 l 238 657 l 260 36 b 315 -6 261 3 288 -6 b 371 36 343 -6 369 3 z "},"‡":{"ha":631,"x_min":0,"x_max":0,"o":"m 115 315 b 65 258 82 315 65 296 b 115 201 65 219 82 201 l 226 201 l 226 42 b 314 -42 226 -14 257 -42 b 404 42 374 -42 404 -14 l 404 201 l 511 201 b 565 257 549 201 565 219 b 511 315 565 296 549 315 l 393 315 l 374 488 l 393 657 l 515 657 b 565 714 549 657 565 675 b 515 769 565 750 549 769 l 404 769 l 404 931 b 315 1013 404 986 374 1013 b 225 931 256 1013 225 986 l 225 769 l 118 769 b 65 714 82 769 65 750 b 118 657 65 675 82 657 l 238 657 l 257 488 l 238 315 z "},"•":{"ha":683,"x_min":0,"x_max":0,"o":"m 618 618 b 433 714 618 672 563 714 l 250 714 b 65 618 121 714 65 672 l 65 333 b 250 238 65 281 121 238 l 433 238 b 618 333 563 238 618 281 z "},"…":{"ha":1363,"x_min":0,"x_max":0,"o":"m 93 81 b 203 -6 93 21 125 -6 b 313 81 281 -6 313 21 b 203 167 313 140 281 167 b 93 81 125 167 93 140 z m 571 81 b 681 -6 571 21 603 -6 b 790 81 758 -6 790 21 b 681 167 790 140 758 167 b 571 81 603 167 571 140 z m 1049 81 b 1158 -6 1049 21 1081 -6 b 1268 81 1236 -6 1268 21 b 1158 167 1268 140 1236 167 b 1049 81 1081 167 1049 140 z "},"‰":{"ha":2108,"x_min":0,"x_max":0,"o":"m 374 431 b 611 583 531 431 611 482 l 611 853 b 374 1007 611 956 531 1007 l 290 1007 b 53 853 132 1007 53 956 l 53 583 b 290 431 53 482 132 431 z m 371 535 l 293 535 b 176 583 213 535 176 557 l 176 853 b 293 901 176 881 213 901 l 371 901 b 488 853 451 901 488 881 l 488 583 b 371 535 488 557 451 535 z m 1135 929 b 1154 969 1150 949 1154 961 b 1093 1013 1154 1000 1135 1013 b 1029 988 1064 1013 1044 1007 l 342 79 b 322 38 325 56 322 43 b 383 -6 322 8 342 -6 b 447 21 413 -6 432 1 z m 1183 0 b 1421 153 1340 0 1421 51 l 1421 422 b 1183 576 1421 525 1340 576 l 1100 576 b 863 422 942 576 863 525 l 863 153 b 1100 0 863 51 942 0 z m 1181 104 l 1103 104 b 986 153 1022 104 986 126 l 986 422 b 1103 471 986 450 1022 471 l 1181 471 b 1297 422 1261 471 1297 450 l 1297 153 b 1181 104 1297 126 1261 104 z m 1818 0 b 2056 153 1975 0 2056 51 l 2056 422 b 1818 576 2056 525 1975 576 l 1735 576 b 1497 422 1576 576 1497 525 l 1497 153 b 1735 0 1497 51 1576 0 z m 1815 104 l 1738 104 b 1621 153 1657 104 1621 126 l 1621 422 b 1738 471 1621 450 1657 471 l 1815 471 b 1932 422 1896 471 1932 450 l 1932 153 b 1815 104 1932 126 1896 104 z "},"‹":{"ha":488,"x_min":0,"x_max":0,"o":"m 39 392 b 63 319 39 356 47 333 l 396 4 b 417 -6 403 -3 410 -6 b 449 68 435 -6 449 29 b 429 129 449 90 444 117 l 154 390 l 424 647 b 444 713 440 663 444 689 b 411 790 444 756 431 790 b 392 781 404 790 399 788 l 63 464 b 39 392 47 449 39 428 z "},"›":{"ha":488,"x_min":0,"x_max":0,"o":"m 449 392 b 425 464 449 428 440 449 l 96 781 b 76 790 89 788 83 790 b 43 713 57 790 43 756 b 64 647 43 689 47 663 l 333 390 l 58 129 b 39 68 43 117 39 90 b 71 -6 39 29 53 -6 b 92 4 78 -6 85 -3 l 425 319 b 449 392 440 333 449 356 z "},"⁄":{"ha":286,"x_min":0,"x_max":0,"o":"m 540 929 b 560 969 556 949 560 961 b 499 1013 560 1000 540 1013 b 435 988 469 1013 450 1007 l -253 79 b -272 38 -269 56 -272 43 b -211 -6 -272 8 -253 -6 b -147 21 -182 -6 -162 1 z "},"⁰":{"ha":774,"x_min":0,"x_max":0,"o":"m 497 431 b 735 583 654 431 735 482 l 735 853 b 497 1007 735 956 654 1007 l 275 1007 b 38 853 117 1007 38 956 l 38 583 b 275 431 38 482 117 431 z m 494 535 l 278 535 b 161 583 197 535 161 557 l 161 853 b 278 901 161 881 197 901 l 494 901 b 611 853 575 901 611 881 l 611 583 b 494 535 611 557 575 535 z "},"⁴":{"ha":864,"x_min":0,"x_max":0,"o":"m 165 963 b 104 1010 165 1000 144 1010 b 42 963 64 1010 42 1000 l 42 619 b 90 578 42 589 64 578 l 694 578 l 694 475 b 757 428 694 438 717 428 b 818 475 797 428 818 438 l 818 963 b 757 1010 818 1000 797 1010 b 694 963 717 1010 694 1000 l 694 682 l 165 682 z "},"⁵":{"ha":822,"x_min":0,"x_max":0,"o":"m 168 818 l 168 901 l 429 901 b 469 954 461 901 469 919 b 429 1007 469 989 461 1007 l 92 1007 b 44 958 58 1007 44 990 l 44 757 b 92 714 44 729 63 714 l 557 714 b 668 665 638 714 668 692 l 668 583 b 557 535 668 556 638 535 l 83 535 b 43 483 51 535 43 519 b 83 431 43 449 51 431 l 554 431 b 792 583 711 431 792 482 l 792 665 b 554 818 792 767 711 818 z "},"⁶":{"ha":832,"x_min":0,"x_max":0,"o":"m 564 431 b 800 583 721 431 800 482 l 800 667 b 564 819 800 768 721 819 l 163 819 l 163 853 b 279 901 163 881 199 901 l 414 901 b 454 954 446 901 454 919 b 414 1007 454 989 446 1007 l 276 1007 b 39 853 118 1007 39 956 l 39 583 b 276 431 39 482 118 431 z m 560 535 l 279 535 b 163 583 199 535 163 557 l 163 715 l 560 715 b 678 667 642 715 678 694 l 678 583 b 560 535 678 557 642 535 z "},"⁷":{"ha":781,"x_min":0,"x_max":0,"o":"m 64 1007 b 24 954 32 1007 24 989 b 64 901 24 919 32 901 l 592 901 l 256 514 b 235 469 238 493 235 479 b 293 428 235 442 256 428 b 354 453 319 428 339 435 l 739 899 b 757 946 751 914 757 926 b 661 1007 757 993 721 1007 z "},"⁸":{"ha":769,"x_min":0,"x_max":0,"o":"m 506 431 b 742 601 625 431 742 460 b 678 718 742 671 714 700 b 735 832 725 747 735 786 b 499 1007 735 972 642 1007 l 271 1007 b 35 832 128 1007 35 972 b 92 718 35 786 44 747 b 28 600 51 697 28 664 b 264 431 28 460 146 431 z m 154 597 b 269 667 154 647 172 667 l 500 667 b 615 597 597 667 615 647 b 511 535 615 554 603 535 l 258 535 b 154 597 167 535 154 554 z m 510 901 b 615 838 596 901 615 882 b 506 772 615 783 589 772 l 264 772 b 156 838 181 772 156 783 b 260 901 156 882 174 901 z "},"⁹":{"ha":788,"x_min":0,"x_max":0,"o":"m 269 1007 b 32 853 111 1007 32 956 l 32 771 b 269 618 32 668 111 618 l 625 618 l 625 583 b 508 535 625 556 589 535 l 403 535 b 363 483 368 535 363 519 b 403 431 363 449 368 431 l 511 431 b 749 583 668 431 749 482 l 749 853 b 511 1007 749 956 668 1007 z m 508 901 b 625 853 589 901 625 881 l 625 722 l 272 722 b 156 771 192 722 156 743 l 156 853 b 272 901 156 881 192 901 z "},"₀":{"ha":774,"x_min":0,"x_max":0,"o":"m 497 0 b 735 153 654 0 735 51 l 735 422 b 497 576 735 525 654 576 l 275 576 b 38 422 117 576 38 525 l 38 153 b 275 0 38 51 117 0 z m 494 104 l 278 104 b 161 153 197 104 161 126 l 161 422 b 278 471 161 450 197 471 l 494 471 b 611 422 575 471 611 450 l 611 153 b 494 104 611 126 575 104 z "},"₁":{"ha":215,"x_min":0,"x_max":0,"o":"m 169 532 b 107 579 169 569 147 579 b 46 532 67 579 46 569 l 46 44 b 107 -3 46 7 67 -3 b 169 44 147 -3 169 7 z "},"₂":{"ha":819,"x_min":0,"x_max":0,"o":"m 539 232 b 776 385 697 232 776 283 l 776 422 b 539 576 776 525 697 576 l 424 576 b 382 524 389 576 382 558 b 424 471 382 489 389 471 l 542 471 b 654 422 622 471 654 450 l 654 385 b 542 338 654 358 622 338 l 279 338 b 42 183 122 338 42 286 l 42 49 b 89 0 42 17 56 0 l 736 0 b 776 53 768 0 776 18 b 736 104 776 89 768 104 l 165 104 l 165 183 b 276 232 165 211 196 232 z "},"₃":{"ha":804,"x_min":0,"x_max":0,"o":"m 650 167 b 546 104 650 124 638 104 l 81 104 b 40 53 49 104 40 89 b 81 0 40 18 49 0 l 540 0 b 776 169 658 0 776 29 b 714 286 776 233 753 265 b 769 406 757 314 769 356 b 535 576 769 542 674 576 l 429 576 b 389 524 397 576 389 558 b 429 471 389 489 397 471 l 544 471 b 650 407 632 471 650 451 b 542 342 650 353 625 342 l 82 342 b 42 289 47 342 42 324 b 82 236 42 254 47 236 l 536 236 b 650 167 633 236 650 217 z "},"₄":{"ha":864,"x_min":0,"x_max":0,"o":"m 165 532 b 104 579 165 569 144 579 b 42 532 64 579 42 569 l 42 189 b 90 147 42 158 64 147 l 694 147 l 694 44 b 757 -3 694 7 717 -3 b 818 44 797 -3 818 7 l 818 532 b 757 579 818 569 797 579 b 694 532 717 579 694 569 l 694 251 l 165 251 z "},"₅":{"ha":822,"x_min":0,"x_max":0,"o":"m 168 388 l 168 471 l 429 471 b 469 524 461 471 469 489 b 429 576 469 558 461 576 l 92 576 b 44 528 58 576 44 560 l 44 326 b 92 283 44 299 63 283 l 557 283 b 668 235 638 283 668 261 l 668 153 b 557 104 668 125 638 104 l 83 104 b 43 53 51 104 43 89 b 83 0 43 18 51 0 l 554 0 b 792 153 711 0 792 51 l 792 235 b 554 388 792 336 711 388 z "},"₆":{"ha":832,"x_min":0,"x_max":0,"o":"m 564 0 b 800 153 721 0 800 51 l 800 236 b 564 389 800 338 721 389 l 163 389 l 163 422 b 279 471 163 450 199 471 l 414 471 b 454 524 446 471 454 489 b 414 576 454 558 446 576 l 276 576 b 39 422 118 576 39 525 l 39 153 b 276 0 39 51 118 0 z m 560 104 l 279 104 b 163 153 199 104 163 126 l 163 285 l 560 285 b 678 236 642 285 678 264 l 678 153 b 560 104 678 126 642 104 z "},"₇":{"ha":781,"x_min":0,"x_max":0,"o":"m 64 576 b 24 524 32 576 24 558 b 64 471 24 489 32 471 l 592 471 l 256 83 b 235 39 238 63 235 49 b 293 -3 235 11 256 -3 b 354 22 319 -3 339 4 l 739 468 b 757 515 751 483 757 496 b 661 576 757 563 721 576 z "},"₈":{"ha":769,"x_min":0,"x_max":0,"o":"m 506 0 b 742 171 625 0 742 29 b 678 288 742 240 714 269 b 735 401 725 317 735 356 b 499 576 735 542 642 576 l 271 576 b 35 401 128 576 35 542 b 92 288 35 356 44 317 b 28 169 51 267 28 233 b 264 0 28 29 146 0 z m 154 167 b 269 236 154 217 172 236 l 500 236 b 615 167 597 236 615 217 b 511 104 615 124 603 104 l 258 104 b 154 167 167 104 154 124 z m 510 471 b 615 407 596 471 615 451 b 506 342 615 353 589 342 l 264 342 b 156 407 181 342 156 353 b 260 471 156 451 174 471 z "},"₉":{"ha":788,"x_min":0,"x_max":0,"o":"m 269 576 b 32 422 111 576 32 525 l 32 340 b 269 188 32 238 111 188 l 625 188 l 625 153 b 508 104 625 125 589 104 l 403 104 b 363 53 368 104 363 89 b 403 0 363 18 368 0 l 511 0 b 749 153 668 0 749 51 l 749 422 b 511 576 749 525 668 576 z m 508 471 b 625 422 589 471 625 450 l 625 292 l 272 292 b 156 340 192 292 156 313 l 156 422 b 272 471 156 450 192 471 z "},"₤":{"ha":1164,"x_min":0,"x_max":0,"o":"m 114 401 b 64 331 72 401 64 376 b 114 261 64 285 72 261 l 211 261 l 211 150 l 71 150 b 17 75 26 150 17 125 b 71 0 17 25 26 0 l 1051 0 b 1106 75 1096 0 1106 25 b 1051 150 1106 125 1096 150 l 396 150 l 396 261 l 985 261 b 1035 331 1026 261 1035 285 b 985 401 1035 376 1026 401 l 396 401 l 396 522 l 985 522 b 1035 592 1026 522 1035 546 b 985 663 1035 638 1026 663 l 396 663 l 396 749 b 628 857 396 808 465 857 l 722 857 b 775 931 767 857 775 882 b 722 1007 775 981 767 1007 l 624 1007 b 211 749 349 1007 211 921 l 211 663 l 115 663 b 65 592 74 663 65 638 b 115 522 65 546 74 522 l 211 522 l 211 401 z "},"€":{"ha":1285,"x_min":0,"x_max":0,"o":"m 1172 0 b 1225 75 1217 0 1225 26 b 1172 150 1225 125 1217 150 l 565 150 b 332 258 403 150 332 199 l 332 297 l 688 297 b 742 372 732 297 742 322 b 688 447 742 422 732 447 l 332 447 l 332 575 l 921 575 b 975 650 965 575 975 600 b 921 725 975 700 965 725 l 332 725 l 332 749 b 565 857 332 810 403 857 l 1171 857 b 1225 932 1215 857 1225 882 b 1171 1007 1225 982 1215 1007 l 560 1007 b 149 749 286 1007 149 922 l 149 725 l 89 725 b 35 650 44 725 35 700 b 89 575 35 600 44 575 l 149 575 l 149 447 l 89 447 b 35 372 44 447 35 422 b 89 297 35 322 44 297 l 149 297 l 149 258 b 560 0 149 86 286 0 z "},"₹":{"ha":1218,"x_min":0,"x_max":0,"o":"m 1124 585 b 1178 660 1168 585 1178 610 b 1124 735 1178 710 1168 735 l 1011 735 l 1011 782 b 993 857 1011 808 1004 833 l 1124 857 b 1178 932 1168 857 1178 882 b 1124 1007 1178 982 1168 1007 l 94 1007 b 40 932 50 1007 40 982 b 94 857 40 882 50 857 l 586 857 b 828 768 775 857 828 818 l 828 735 l 94 735 b 40 660 50 735 40 710 b 94 585 40 610 50 585 l 828 585 l 828 563 b 586 474 828 513 775 474 l 268 474 b 181 399 213 474 181 438 b 224 326 181 372 194 346 l 685 14 b 807 -6 710 -3 744 -6 b 889 60 857 -6 889 15 b 844 122 889 90 874 103 l 526 326 l 603 326 b 1011 551 854 326 1011 415 l 1011 585 z "},"₺":{"ha":1267,"x_min":0,"x_max":0,"o":"m 81 721 b 46 671 56 711 46 696 b 108 622 46 639 71 622 b 156 625 128 622 142 622 l 156 488 l 81 457 b 46 407 56 447 46 432 b 108 358 46 375 71 358 b 156 361 128 358 142 358 l 156 258 b 567 0 156 86 293 0 l 1169 0 b 1222 76 1214 0 1222 26 b 1169 150 1222 125 1214 150 l 572 150 b 340 258 410 150 340 199 l 340 431 l 782 615 b 817 665 807 625 817 640 b 753 714 817 697 792 714 b 660 699 706 714 681 707 l 340 565 l 340 694 l 782 879 b 817 929 807 889 817 904 b 753 978 817 961 792 978 b 660 963 706 978 681 971 l 340 829 l 340 947 b 247 1013 340 1000 308 1013 b 156 947 188 1013 156 1000 l 156 751 z "},"₽":{"ha":1392,"x_min":0,"x_max":0,"o":"m 1179 157 b 1235 232 1224 157 1235 182 b 1179 307 1235 282 1224 307 l 401 307 l 401 425 l 931 425 b 1339 650 1182 425 1339 514 l 1339 782 b 931 1007 1339 918 1182 1007 l 282 1007 b 217 943 238 1007 217 986 l 217 575 l 107 575 b 53 500 64 575 53 550 b 107 425 53 450 64 425 l 217 425 l 217 307 l 107 307 b 53 232 64 307 53 282 b 107 157 53 182 64 157 l 217 157 l 217 60 b 308 -6 217 7 249 -6 b 401 60 369 -6 401 7 l 401 157 z m 914 857 b 1156 768 1103 857 1156 818 l 1156 664 b 914 575 1156 614 1103 575 l 401 575 l 401 857 z "},"℗":{"ha":1201,"x_min":0,"x_max":0,"o":"m 1136 739 b 818 1007 1136 907 1042 1007 l 383 1007 b 65 739 160 1007 65 907 l 65 268 b 383 0 65 100 160 0 l 818 0 b 1136 268 1042 0 1136 100 z m 153 278 l 153 729 b 385 917 153 857 231 917 l 817 917 b 1049 729 971 917 1049 857 l 1049 278 b 817 90 1049 150 971 90 l 385 90 b 153 278 231 90 153 150 z m 276 743 l 276 278 b 324 243 276 250 293 243 b 374 278 357 243 374 250 l 374 433 l 725 433 b 940 551 858 433 940 481 l 940 658 b 725 776 940 729 858 776 l 310 776 b 276 743 288 776 276 765 z m 717 697 b 844 650 817 697 844 676 l 844 560 b 717 513 844 533 817 513 l 374 513 l 374 697 z "},"™":{"ha":1550,"x_min":0,"x_max":0,"o":"m 532 918 b 565 963 558 918 565 932 b 532 1007 565 992 558 1007 l 63 1007 b 31 963 36 1007 31 992 b 63 918 31 932 36 918 l 242 918 l 242 443 b 297 404 242 411 261 404 b 353 443 333 404 353 411 l 353 918 z m 1049 529 l 751 976 b 686 1006 738 997 714 1006 b 625 949 646 1006 625 986 l 625 443 b 681 404 625 411 644 404 b 736 443 717 404 736 411 l 736 811 l 983 436 b 1053 404 999 413 1019 404 b 1118 436 1082 404 1101 411 l 1364 811 l 1364 443 b 1419 404 1364 411 1383 404 b 1475 443 1456 404 1475 411 l 1475 949 b 1414 1006 1475 986 1454 1006 b 1349 976 1388 1006 1364 999 z "},"⅓":{"ha":1301,"x_min":0,"x_max":0,"o":"m 279 963 b 217 1010 279 1000 257 1010 b 156 963 176 1010 156 1000 l 156 475 b 217 428 156 438 176 428 b 279 475 257 428 279 438 z m 865 929 b 885 969 881 949 885 961 b 824 1013 885 1000 865 1013 b 760 988 794 1013 775 1007 l 72 79 b 53 38 56 56 53 43 b 114 -6 53 8 72 -6 b 178 21 143 -6 163 1 z m 1122 167 b 1018 104 1122 124 1110 104 l 553 104 b 513 53 521 104 513 89 b 553 0 513 18 521 0 l 1013 0 b 1249 169 1131 0 1249 29 b 1186 286 1249 233 1225 265 b 1242 406 1229 314 1242 356 b 1007 576 1242 542 1146 576 l 901 576 b 861 524 869 576 861 558 b 901 471 861 489 869 471 l 1017 471 b 1122 407 1104 471 1122 451 b 1014 342 1122 353 1097 342 l 554 342 b 514 289 519 342 514 324 b 554 236 514 254 519 236 l 1008 236 b 1122 167 1106 236 1122 217 z "},"⅔":{"ha":1807,"x_min":0,"x_max":0,"o":"m 550 663 b 788 815 708 663 788 714 l 788 853 b 550 1007 788 956 708 1007 l 435 1007 b 393 954 400 1007 393 989 b 435 901 393 919 400 901 l 553 901 b 665 853 633 901 665 881 l 665 815 b 553 768 665 789 633 768 l 290 768 b 53 614 133 768 53 717 l 53 479 b 100 431 53 447 67 431 l 747 431 b 788 483 779 431 788 449 b 747 535 788 519 779 535 l 176 535 l 176 614 b 288 663 176 642 207 663 z m 1371 929 b 1390 969 1386 949 1390 961 b 1329 1013 1390 1000 1371 1013 b 1265 988 1300 1013 1281 1007 l 578 79 b 558 38 561 56 558 43 b 619 -6 558 8 578 -6 b 683 21 649 -6 668 1 z m 1628 167 b 1524 104 1628 124 1615 104 l 1058 104 b 1018 53 1026 104 1018 89 b 1058 0 1018 18 1026 0 l 1518 0 b 1754 169 1636 0 1754 29 b 1692 286 1754 233 1731 265 b 1747 406 1735 314 1747 356 b 1513 576 1747 542 1651 576 l 1407 576 b 1367 524 1375 576 1367 558 b 1407 471 1367 489 1375 471 l 1522 471 b 1628 407 1610 471 1628 451 b 1519 342 1628 353 1603 342 l 1060 342 b 1019 289 1025 342 1019 324 b 1060 236 1019 254 1025 236 l 1514 236 b 1628 167 1611 236 1628 217 z "},"⅕":{"ha":1456,"x_min":0,"x_max":0,"o":"m 279 963 b 217 1010 279 1000 257 1010 b 156 963 176 1010 156 1000 l 156 475 b 217 428 156 438 176 428 b 279 475 257 428 279 438 z m 865 929 b 885 969 881 949 885 961 b 824 1013 885 1000 865 1013 b 760 988 794 1013 775 1007 l 72 79 b 53 38 56 56 53 43 b 114 -6 53 8 72 -6 b 178 21 143 -6 163 1 z m 779 388 l 779 471 l 1040 471 b 1081 524 1072 471 1081 489 b 1040 576 1081 558 1072 576 l 703 576 b 656 528 669 576 656 560 l 656 326 b 703 283 656 299 674 283 l 1168 283 b 1279 235 1249 283 1279 261 l 1279 153 b 1168 104 1279 125 1249 104 l 694 104 b 654 53 663 104 654 89 b 694 0 654 18 663 0 l 1165 0 b 1403 153 1322 0 1403 51 l 1403 235 b 1165 388 1403 336 1322 388 z "},"⅖":{"ha":1961,"x_min":0,"x_max":0,"o":"m 550 663 b 788 815 708 663 788 714 l 788 853 b 550 1007 788 956 708 1007 l 435 1007 b 393 954 400 1007 393 989 b 435 901 393 919 400 901 l 553 901 b 665 853 633 901 665 881 l 665 815 b 553 768 665 789 633 768 l 290 768 b 53 614 133 768 53 717 l 53 479 b 100 431 53 447 67 431 l 747 431 b 788 483 779 431 788 449 b 747 535 788 519 779 535 l 176 535 l 176 614 b 288 663 176 642 207 663 z m 1371 929 b 1390 969 1386 949 1390 961 b 1329 1013 1390 1000 1371 1013 b 1265 988 1300 1013 1281 1007 l 578 79 b 558 38 561 56 558 43 b 619 -6 558 8 578 -6 b 683 21 649 -6 668 1 z m 1285 388 l 1285 471 l 1546 471 b 1586 524 1578 471 1586 489 b 1546 576 1586 558 1578 576 l 1208 576 b 1161 528 1175 576 1161 560 l 1161 326 b 1208 283 1161 299 1179 283 l 1674 283 b 1785 235 1754 283 1785 261 l 1785 153 b 1674 104 1785 125 1754 104 l 1200 104 b 1160 53 1168 104 1160 89 b 1200 0 1160 18 1168 0 l 1671 0 b 1908 153 1828 0 1908 51 l 1908 235 b 1671 388 1908 336 1828 388 z "},"⅗":{"ha":1919,"x_min":0,"x_max":0,"o":"m 663 597 b 558 535 663 554 650 535 l 93 535 b 53 483 61 535 53 519 b 93 431 53 449 61 431 l 553 431 b 789 600 671 431 789 460 b 726 717 789 664 765 696 b 782 836 769 744 782 786 b 547 1007 782 972 686 1007 l 442 1007 b 401 954 410 1007 401 989 b 442 901 401 919 410 901 l 557 901 b 663 838 644 901 663 882 b 554 772 663 783 638 772 l 94 772 b 54 719 60 772 54 754 b 94 667 54 685 60 667 l 549 667 b 663 597 646 667 663 647 z m 1329 929 b 1349 969 1344 949 1349 961 b 1288 1013 1349 1000 1329 1013 b 1224 988 1258 1013 1239 1007 l 536 79 b 517 38 519 56 517 43 b 578 -6 517 8 536 -6 b 642 21 607 -6 626 1 z m 1243 388 l 1243 471 l 1504 471 b 1544 524 1536 471 1544 489 b 1504 576 1544 558 1536 576 l 1167 576 b 1119 528 1133 576 1119 560 l 1119 326 b 1167 283 1119 299 1138 283 l 1632 283 b 1743 235 1713 283 1743 261 l 1743 153 b 1632 104 1743 125 1713 104 l 1158 104 b 1118 53 1126 104 1118 89 b 1158 0 1118 18 1126 0 l 1629 0 b 1867 153 1786 0 1867 51 l 1867 235 b 1629 388 1867 336 1786 388 z "},"⅘":{"ha":2006,"x_min":0,"x_max":0,"o":"m 176 963 b 115 1010 176 1000 156 1010 b 53 963 75 1010 53 1000 l 53 619 b 101 578 53 589 75 578 l 706 578 l 706 475 b 768 428 706 438 728 428 b 829 475 808 428 829 438 l 829 963 b 768 1010 829 1000 808 1010 b 706 963 728 1010 706 1000 l 706 682 l 176 682 z m 1415 929 b 1435 969 1431 949 1435 961 b 1374 1013 1435 1000 1415 1013 b 1310 988 1344 1013 1325 1007 l 622 79 b 603 38 606 56 603 43 b 664 -6 603 8 622 -6 b 728 21 693 -6 713 1 z m 1329 388 l 1329 471 l 1590 471 b 1631 524 1622 471 1631 489 b 1590 576 1631 558 1622 576 l 1253 576 b 1206 528 1219 576 1206 560 l 1206 326 b 1253 283 1206 299 1224 283 l 1718 283 b 1829 235 1799 283 1829 261 l 1829 153 b 1718 104 1829 125 1799 104 l 1244 104 b 1204 53 1213 104 1204 89 b 1244 0 1204 18 1213 0 l 1715 0 b 1953 153 1872 0 1953 51 l 1953 235 b 1715 388 1953 336 1872 388 z "},"⅙":{"ha":1436,"x_min":0,"x_max":0,"o":"m 279 963 b 217 1010 279 1000 257 1010 b 156 963 176 1010 156 1000 l 156 475 b 217 428 156 438 176 428 b 279 475 257 428 279 438 z m 865 929 b 885 969 881 949 885 961 b 824 1013 885 1000 865 1013 b 760 988 794 1013 775 1007 l 72 79 b 53 38 56 56 53 43 b 114 -6 53 8 72 -6 b 178 21 143 -6 163 1 z m 1147 0 b 1383 153 1304 0 1383 51 l 1383 236 b 1147 389 1383 338 1304 389 l 746 389 l 746 422 b 863 471 746 450 782 471 l 997 471 b 1038 524 1029 471 1038 489 b 997 576 1038 558 1029 576 l 860 576 b 622 422 701 576 622 525 l 622 153 b 860 0 622 51 701 0 z m 1143 104 l 863 104 b 746 153 782 104 746 126 l 746 285 l 1143 285 b 1261 236 1225 285 1261 264 l 1261 153 b 1143 104 1261 126 1225 104 z "},"⅚":{"ha":1901,"x_min":0,"x_max":0,"o":"m 178 818 l 178 901 l 439 901 b 479 954 471 901 479 919 b 439 1007 479 989 471 1007 l 101 1007 b 54 958 68 1007 54 990 l 54 757 b 101 714 54 729 72 714 l 567 714 b 678 665 647 714 678 692 l 678 583 b 567 535 678 556 647 535 l 93 535 b 53 483 61 535 53 519 b 93 431 53 449 61 431 l 564 431 b 801 583 721 431 801 482 l 801 665 b 564 818 801 767 721 818 z m 1331 929 b 1350 969 1346 949 1350 961 b 1289 1013 1350 1000 1331 1013 b 1225 988 1260 1013 1240 1007 l 538 79 b 518 38 521 56 518 43 b 579 -6 518 8 538 -6 b 643 21 608 -6 628 1 z m 1613 0 b 1849 153 1769 0 1849 51 l 1849 236 b 1613 389 1849 338 1769 389 l 1211 389 l 1211 422 b 1328 471 1211 450 1247 471 l 1463 471 b 1503 524 1494 471 1503 489 b 1463 576 1503 558 1494 576 l 1325 576 b 1088 422 1167 576 1088 525 l 1088 153 b 1325 0 1088 51 1167 0 z m 1608 104 l 1328 104 b 1211 153 1247 104 1211 126 l 1211 285 l 1608 285 b 1726 236 1690 285 1726 264 l 1726 153 b 1608 104 1726 126 1690 104 z "},"⅛":{"ha":1378,"x_min":0,"x_max":0,"o":"m 279 963 b 217 1010 279 1000 257 1010 b 156 963 176 1010 156 1000 l 156 475 b 217 428 156 438 176 428 b 279 475 257 428 279 438 z m 865 929 b 885 969 881 949 885 961 b 824 1013 885 1000 865 1013 b 760 988 794 1013 775 1007 l 72 79 b 53 38 56 56 53 43 b 114 -6 53 8 72 -6 b 178 21 143 -6 163 1 z m 1089 0 b 1325 171 1208 0 1325 29 b 1261 288 1325 240 1297 269 b 1318 401 1308 317 1318 356 b 1082 576 1318 542 1225 576 l 854 576 b 618 401 711 576 618 542 b 675 288 618 356 628 317 b 611 169 635 267 611 233 b 847 0 611 29 729 0 z m 738 167 b 853 236 738 217 756 236 l 1083 236 b 1199 167 1181 236 1199 217 b 1094 104 1199 124 1186 104 l 842 104 b 738 167 750 104 738 124 z m 1093 471 b 1199 407 1179 471 1199 451 b 1089 342 1199 353 1172 342 l 847 342 b 739 407 764 342 739 353 b 843 471 739 451 757 471 z "},"⅜":{"ha":1842,"x_min":0,"x_max":0,"o":"m 663 597 b 558 535 663 554 650 535 l 93 535 b 53 483 61 535 53 519 b 93 431 53 449 61 431 l 553 431 b 789 600 671 431 789 460 b 726 717 789 664 765 696 b 782 836 769 744 782 786 b 547 1007 782 972 686 1007 l 442 1007 b 401 954 410 1007 401 989 b 442 901 401 919 410 901 l 557 901 b 663 838 644 901 663 882 b 554 772 663 783 638 772 l 94 772 b 54 719 60 772 54 754 b 94 667 54 685 60 667 l 549 667 b 663 597 646 667 663 647 z m 1329 929 b 1349 969 1344 949 1349 961 b 1288 1013 1349 1000 1329 1013 b 1224 988 1258 1013 1239 1007 l 536 79 b 517 38 519 56 517 43 b 578 -6 517 8 536 -6 b 642 21 607 -6 626 1 z m 1553 0 b 1789 171 1672 0 1789 29 b 1725 288 1789 240 1761 269 b 1782 401 1772 317 1782 356 b 1546 576 1782 542 1689 576 l 1318 576 b 1082 401 1175 576 1082 542 b 1139 288 1082 356 1092 317 b 1075 169 1099 267 1075 233 b 1311 0 1075 29 1193 0 z m 1201 167 b 1317 236 1201 217 1219 236 l 1547 236 b 1663 167 1644 236 1663 217 b 1558 104 1663 124 1650 104 l 1306 104 b 1201 167 1214 104 1201 124 z m 1557 471 b 1663 407 1643 471 1663 451 b 1553 342 1663 353 1636 342 l 1311 342 b 1203 407 1228 342 1203 353 b 1307 471 1203 451 1221 471 z "},"⅝":{"ha":1843,"x_min":0,"x_max":0,"o":"m 178 818 l 178 901 l 439 901 b 479 954 471 901 479 919 b 439 1007 479 989 471 1007 l 101 1007 b 54 958 68 1007 54 990 l 54 757 b 101 714 54 729 72 714 l 567 714 b 678 665 647 714 678 692 l 678 583 b 567 535 678 556 647 535 l 93 535 b 53 483 61 535 53 519 b 93 431 53 449 61 431 l 564 431 b 801 583 721 431 801 482 l 801 665 b 564 818 801 767 721 818 z m 1331 929 b 1350 969 1346 949 1350 961 b 1289 1013 1350 1000 1331 1013 b 1225 988 1260 1013 1240 1007 l 538 79 b 518 38 521 56 518 43 b 579 -6 518 8 538 -6 b 643 21 608 -6 628 1 z m 1554 0 b 1790 171 1674 0 1790 29 b 1726 288 1790 240 1763 269 b 1783 401 1774 317 1783 356 b 1547 576 1783 542 1690 576 l 1319 576 b 1083 401 1176 576 1083 542 b 1140 288 1083 356 1093 317 b 1076 169 1100 267 1076 233 b 1313 0 1076 29 1194 0 z m 1203 167 b 1318 236 1203 217 1221 236 l 1549 236 b 1664 167 1646 236 1664 217 b 1560 104 1664 124 1651 104 l 1307 104 b 1203 167 1215 104 1203 124 z m 1558 471 b 1664 407 1644 471 1664 451 b 1554 342 1664 353 1638 342 l 1313 342 b 1204 407 1229 342 1204 353 b 1308 471 1204 451 1222 471 z "},"⅞":{"ha":1671,"x_min":0,"x_max":0,"o":"m 93 1007 b 53 954 61 1007 53 989 b 93 901 53 919 61 901 l 621 901 l 285 514 b 264 469 267 493 264 479 b 322 428 264 442 285 428 b 383 453 349 428 368 435 l 768 899 b 786 946 781 914 786 926 b 690 1007 786 993 750 1007 z m 1158 929 b 1178 969 1174 949 1178 961 b 1117 1013 1178 1000 1158 1013 b 1053 988 1088 1013 1068 1007 l 365 79 b 346 38 349 56 346 43 b 407 -6 346 8 365 -6 b 471 21 436 -6 456 1 z m 1382 0 b 1618 171 1501 0 1618 29 b 1554 288 1618 240 1590 269 b 1611 401 1601 317 1611 356 b 1375 576 1611 542 1518 576 l 1147 576 b 911 401 1004 576 911 542 b 968 288 911 356 921 317 b 904 169 928 267 904 233 b 1140 0 904 29 1022 0 z m 1031 167 b 1146 236 1031 217 1049 236 l 1376 236 b 1492 167 1474 236 1492 217 b 1388 104 1492 124 1479 104 l 1135 104 b 1031 167 1043 104 1031 124 z m 1386 471 b 1492 407 1472 471 1492 451 b 1382 342 1492 353 1465 342 l 1140 342 b 1032 407 1057 342 1032 353 b 1136 471 1032 451 1050 471 z "},"∂":{"ha":800,"x_min":0,"x_max":0,"o":"m 625 414 b 360 629 608 511 535 629 b 44 294 165 629 44 482 b 331 -6 44 131 138 -6 b 757 571 613 -6 757 288 b 383 1013 757 840 626 1013 b 286 947 322 1013 286 1001 b 332 889 286 904 308 892 b 640 556 525 867 640 857 b 625 414 640 507 635 460 z m 592 326 b 342 119 546 200 465 119 b 158 304 221 119 158 196 b 371 519 158 429 242 519 b 592 326 489 519 576 444 z "},"∏":{"ha":1031,"x_min":0,"x_max":0,"o":"m 797 -219 b 875 -292 797 -268 828 -292 b 957 -219 922 -292 957 -268 l 957 1067 b 889 1139 957 1115 936 1139 l 140 1139 b 72 1067 93 1139 72 1115 l 72 -219 b 154 -292 72 -268 107 -292 b 232 -219 201 -292 232 -268 l 232 1013 l 797 1013 z "},"∑":{"ha":821,"x_min":0,"x_max":0,"o":"m 731 -228 b 771 -172 757 -228 771 -210 b 731 -122 771 -137 757 -122 l 199 -122 l 458 378 b 475 438 469 404 471 421 b 461 490 475 457 472 469 l 229 897 l 725 897 b 768 953 754 897 768 915 b 725 1007 768 988 754 1007 l 128 1007 b 68 956 86 1007 68 983 b 89 889 68 935 74 914 l 356 444 l 49 -131 b 33 -178 39 -149 33 -165 b 100 -228 33 -206 54 -228 z "},"−":{"ha":846,"x_min":0,"x_max":0,"o":"m 735 422 b 793 503 782 422 793 449 b 735 582 793 556 782 582 l 111 582 b 53 503 64 582 53 556 b 111 422 53 449 64 422 z "},"√":{"ha":1006,"x_min":0,"x_max":0,"o":"m 468 171 l 313 536 b 244 582 299 569 282 582 l 88 582 b 29 503 40 582 29 556 b 88 422 29 449 40 422 l 181 422 l 364 44 b 468 -6 381 10 418 -6 b 572 44 517 -6 556 10 l 979 936 b 988 963 983 946 988 954 b 892 1013 988 993 949 1013 b 817 981 851 1013 826 1003 z "},"∞":{"ha":1206,"x_min":0,"x_max":0,"o":"m 601 403 b 865 225 657 290 735 225 b 1154 506 1043 225 1154 300 b 865 779 1154 707 1022 779 b 599 603 738 779 650 710 b 336 779 544 715 468 779 b 50 501 163 779 50 710 b 338 225 50 294 182 225 b 601 403 464 225 554 301 z m 642 501 b 819 646 671 586 740 646 b 978 501 926 646 978 600 b 819 360 978 404 931 360 b 642 501 729 360 663 421 z m 563 504 b 388 360 536 418 463 360 b 231 503 282 360 231 408 b 386 646 231 600 275 646 b 563 504 475 646 542 585 z "},"∫":{"ha":600,"x_min":0,"x_max":0,"o":"m 379 960 b 536 1133 379 1082 450 1106 b 582 1190 563 1142 582 1150 b 500 1253 582 1236 557 1253 b 219 960 344 1253 219 1125 l 219 1 b 63 -172 219 -121 149 -144 b 17 -229 36 -181 17 -189 b 99 -292 17 -275 42 -292 b 379 1 254 -292 379 -164 z "},"≈":{"ha":846,"x_min":0,"x_max":0,"o":"m 576 547 b 793 738 686 547 793 622 b 729 799 793 789 771 799 b 657 760 682 799 672 786 b 554 682 631 715 596 682 b 268 799 475 682 400 799 b 53 608 161 799 53 724 b 115 547 53 557 75 547 b 189 586 164 547 174 561 b 290 664 214 626 247 664 b 576 547 365 664 439 547 z m 576 214 b 793 404 686 214 793 289 b 729 465 793 456 771 465 b 657 426 682 465 672 453 b 554 349 631 382 596 349 b 268 465 475 349 400 465 b 53 275 161 465 53 390 b 115 214 53 224 75 214 b 189 253 164 214 174 228 b 290 331 214 293 247 331 b 576 214 365 331 439 214 z "},"≠":{"ha":846,"x_min":0,"x_max":0,"o":"m 735 617 b 793 697 782 617 793 643 b 735 776 793 750 782 776 l 715 776 l 818 913 b 842 961 836 936 842 950 b 768 1013 842 997 818 1013 b 693 982 733 1013 711 1006 l 539 776 l 111 776 b 53 697 64 776 53 750 b 111 617 53 643 64 617 l 418 617 l 246 388 l 111 388 b 53 308 64 388 53 361 b 111 228 53 254 64 228 l 126 228 l 26 94 b 3 46 6 67 3 51 b 76 -6 3 10 26 -6 b 151 25 111 -6 133 1 l 303 228 l 735 228 b 793 308 782 228 793 254 b 735 388 793 361 782 388 l 424 388 l 596 617 z "},"≤":{"ha":846,"x_min":0,"x_max":0,"o":"m 51 563 b 90 488 51 513 67 497 l 600 267 b 703 249 625 256 663 249 b 790 308 761 249 790 264 b 749 368 790 338 779 356 l 265 563 l 749 757 b 790 817 779 769 790 788 b 703 876 790 861 761 876 b 600 858 663 876 625 869 l 90 638 b 51 563 67 628 51 611 z m 735 0 b 793 81 782 0 793 26 b 735 160 793 133 782 160 l 111 160 b 53 81 64 160 53 133 b 111 0 53 26 64 0 z "},"≥":{"ha":846,"x_min":0,"x_max":0,"o":"m 790 563 b 751 638 790 611 775 628 l 242 858 b 139 876 217 869 179 876 b 51 817 81 876 51 861 b 93 757 51 788 63 769 l 576 563 l 93 368 b 51 308 63 356 51 338 b 139 249 51 264 81 249 b 242 267 179 249 217 256 l 751 488 b 790 563 775 497 790 513 z m 735 0 b 793 81 782 0 793 26 b 735 160 793 133 782 160 l 111 160 b 53 81 64 160 53 133 b 111 0 53 26 64 0 z "},"◊":{"ha":846,"x_min":0,"x_max":0,"o":"m 782 525 l 526 971 b 422 1013 510 1000 472 1013 b 318 971 372 1013 335 1000 l 63 525 b 56 503 58 517 56 510 b 63 482 56 496 58 489 l 318 36 b 422 -6 335 7 372 -6 b 526 36 472 -6 510 7 l 782 482 b 789 503 786 489 789 496 b 782 525 789 510 786 517 z m 422 867 l 611 503 l 422 140 l 232 503 z "},"":{"ha":1233,"x_min":0,"x_max":0,"o":"m 107 1007 b 53 932 63 1007 53 982 b 107 857 53 882 63 857 l 926 857 l 67 161 b 38 96 47 144 38 128 b 190 0 38 21 92 0 l 1132 0 b 1186 75 1176 0 1186 25 b 1132 150 1186 125 1176 150 l 299 150 l 1157 846 b 1186 911 1176 861 1186 879 b 1033 1007 1186 986 1132 1007 z "},"":{"ha":1201,"x_min":0,"x_max":0,"o":"m 119 785 b 69 714 78 785 69 761 b 119 644 69 668 78 644 l 846 644 l 72 151 b 44 90 53 139 44 118 b 188 0 44 19 96 0 l 1099 0 b 1150 71 1140 0 1150 24 b 1099 140 1150 117 1140 140 l 350 140 l 1106 633 b 1133 694 1125 646 1133 667 b 990 785 1133 765 1082 785 z "},"":{"ha":1233,"x_min":0,"x_max":0,"o":"m 644 1240 l 557 1347 b 481 1375 540 1368 508 1375 b 392 1326 433 1375 392 1356 b 403 1300 392 1319 394 1310 l 556 1119 b 644 1086 574 1097 600 1086 b 733 1119 689 1086 715 1097 l 886 1300 b 897 1326 894 1310 897 1319 b 808 1375 897 1356 856 1375 b 732 1347 781 1375 749 1368 z m 107 1007 b 53 932 63 1007 53 982 b 107 857 53 882 63 857 l 926 857 l 67 161 b 38 96 47 144 38 128 b 190 0 38 21 92 0 l 1132 0 b 1186 75 1176 0 1186 25 b 1132 150 1186 125 1176 150 l 299 150 l 1157 846 b 1186 911 1176 861 1186 879 b 1033 1007 1186 986 1132 1007 z "},"":{"ha":1201,"x_min":0,"x_max":0,"o":"m 628 1018 l 540 1125 b 464 1153 524 1146 492 1153 b 375 1104 417 1153 375 1133 b 386 1078 375 1097 378 1088 l 539 897 b 628 864 557 875 583 864 b 717 897 672 864 699 875 l 869 1078 b 881 1104 878 1088 881 1097 b 792 1153 881 1133 839 1153 b 715 1125 764 1153 732 1146 z m 119 785 b 69 714 78 785 69 761 b 119 644 69 668 78 644 l 846 644 l 72 151 b 44 90 53 139 44 118 b 188 0 44 19 96 0 l 1099 0 b 1150 71 1140 0 1150 24 b 1099 140 1150 117 1140 140 l 350 140 l 1106 633 b 1133 694 1125 646 1133 667 b 990 785 1133 765 1082 785 z "},"":{"ha":1233,"x_min":0,"x_max":0,"o":"m 921 1257 b 963 1315 950 1272 963 1292 b 893 1375 963 1356 931 1375 b 789 1357 835 1375 814 1369 l 507 1204 b 465 1144 478 1189 465 1169 b 535 1086 465 1106 497 1086 b 639 1104 593 1086 614 1092 z m 107 1007 b 53 932 63 1007 53 982 b 107 857 53 882 63 857 l 926 857 l 67 161 b 38 96 47 144 38 128 b 190 0 38 21 92 0 l 1132 0 b 1186 75 1176 0 1186 25 b 1132 150 1186 125 1176 150 l 299 150 l 1157 846 b 1186 911 1176 861 1186 879 b 1033 1007 1186 986 1132 1007 z "},"":{"ha":1201,"x_min":0,"x_max":0,"o":"m 904 1035 b 946 1093 933 1050 946 1069 b 876 1153 946 1133 914 1153 b 772 1135 818 1153 797 1147 l 490 982 b 449 922 461 967 449 947 b 518 864 449 883 481 864 b 622 882 576 864 597 869 z m 119 785 b 69 714 78 785 69 761 b 119 644 69 668 78 644 l 846 644 l 72 151 b 44 90 53 139 44 118 b 188 0 44 19 96 0 l 1099 0 b 1150 71 1140 0 1150 24 b 1099 140 1150 117 1140 140 l 350 140 l 1106 633 b 1133 694 1125 646 1133 667 b 990 785 1133 765 1082 785 z "},"":{"ha":1233,"x_min":0,"x_max":0,"o":"m 535 1190 b 644 1104 535 1131 567 1104 b 754 1190 722 1104 754 1131 b 644 1276 754 1250 722 1276 b 535 1190 567 1276 535 1250 z m 107 1007 b 53 932 63 1007 53 982 b 107 857 53 882 63 857 l 926 857 l 67 161 b 38 96 47 144 38 128 b 190 0 38 21 92 0 l 1132 0 b 1186 75 1176 0 1186 25 b 1132 150 1186 125 1176 150 l 299 150 l 1157 846 b 1186 911 1176 861 1186 879 b 1033 1007 1186 986 1132 1007 z "},"":{"ha":1201,"x_min":0,"x_max":0,"o":"m 532 968 b 642 882 532 908 564 882 b 751 968 719 882 751 908 b 642 1054 751 1028 719 1054 b 532 968 564 1054 532 1028 z m 119 785 b 69 714 78 785 69 761 b 119 644 69 668 78 644 l 846 644 l 72 151 b 44 90 53 139 44 118 b 188 0 44 19 96 0 l 1099 0 b 1150 71 1140 0 1150 24 b 1099 140 1150 117 1140 140 l 350 140 l 1106 633 b 1133 694 1125 646 1133 667 b 990 785 1133 765 1082 785 z "}}}
